<svg width="252" height="144" viewBox="0 0 252 144" fill="none" xmlns="http://www.w3.org/2000/svg">
<g clip-path="url(#clip0_28_76)">
<rect width="252" height="144" rx="12" fill="#F5F5F5"/>
<path d="M196.629 137.003C201.234 135.846 205.596 133.466 209.198 129.864C211.108 127.954 212.674 125.831 213.896 123.571C205.91 123.095 198.041 120.191 191.492 114.857C190.57 122.472 192.283 130.346 196.629 137.003Z" fill="#00B4D8"/>
<path d="M235.458 103.604C239.06 100.002 241.439 95.6406 242.596 91.0353C235.94 86.689 228.066 84.9766 220.451 85.8981C225.784 92.4476 228.689 100.316 229.164 108.303C231.425 107.08 233.548 105.514 235.458 103.604Z" fill="#00B4D8"/>
<path d="M195.723 102.206C197.139 99.7678 198.89 97.4716 200.978 95.3841C203.065 93.2967 205.362 91.5451 207.799 90.1296C202.46 85.4843 195.739 83.2711 189.084 83.49C188.865 90.1457 191.078 96.8665 195.723 102.206Z" fill="#00B4D8"/>
<path d="M226.144 112.92C224.126 113.619 222.049 114.097 219.949 114.355C219.691 116.455 219.213 118.532 218.514 120.55C218.153 121.594 217.733 122.621 217.254 123.628C215.813 126.655 213.839 129.493 211.333 131.999C207.633 135.699 203.213 138.238 198.523 139.616C199.282 140.562 200.1 141.477 200.978 142.354C201.697 143.073 202.441 143.753 203.207 144.392C204.112 145.147 205.048 145.847 206.01 146.491C218.918 155.135 236.546 153.756 247.948 142.354C259.35 130.953 260.729 113.324 252.085 100.416C251.441 99.4538 250.741 98.518 249.986 97.613C249.346 96.8471 248.667 96.1032 247.948 95.3841C247.07 94.5065 246.156 93.6883 245.21 92.9295C243.831 97.6188 241.293 102.039 237.593 105.739C235.087 108.245 232.249 110.219 229.221 111.66C228.215 112.139 227.187 112.559 226.144 112.92Z" fill="#6C757D"/>
<path d="M187.712 74.488C185.49 74.6266 183.279 74.9689 181.109 75.5149C180.563 77.6854 180.22 79.8966 180.082 82.1181C180.014 83.1969 179.995 84.2782 180.024 85.3584C180.262 94.3053 183.795 103.181 190.623 110.009C191.104 110.49 191.595 110.954 192.096 111.403C198.702 117.318 206.957 120.387 215.274 120.608C216.042 118.654 216.575 116.629 216.873 114.576C208.937 114.74 200.949 111.795 194.893 105.739C194.672 105.518 194.456 105.295 194.243 105.069C188.627 99.1004 185.898 91.4052 186.056 83.7587C186.077 82.7311 186.151 81.7044 186.277 80.6828C187.298 80.5572 188.325 80.4837 189.352 80.4624C196.999 80.3038 204.694 83.0327 210.663 88.6493C210.888 88.8618 211.112 89.0785 211.333 89.2994C217.389 95.3553 220.334 103.344 220.17 111.28C222.222 110.981 224.248 110.448 226.202 109.68C225.981 101.363 222.912 93.1081 216.996 86.5019C216.548 86.0014 216.084 85.5103 215.603 85.0293C208.774 78.2012 199.899 74.6681 190.952 74.4301C189.872 74.4013 188.791 74.4206 187.712 74.488Z" fill="#00B4D8"/>
<path d="M170.86 21.08C170.758 21.08 170.676 21.0533 170.612 21C170.553 20.952 170.524 20.888 170.524 20.808C170.524 20.7813 170.526 20.76 170.532 20.744L170.548 20.664L169.548 17.12H170.252L170.948 20.032L171.788 17.2C171.814 17.0933 171.916 17.04 172.092 17.04C172.214 17.04 172.302 17.064 172.356 17.112C172.414 17.1547 172.444 17.216 172.444 17.296C172.444 17.3333 172.441 17.3627 172.436 17.384L172.404 17.552L173.124 20.032L173.82 17.12H174.524L173.524 20.664L173.54 20.744C173.545 20.76 173.548 20.7813 173.548 20.808C173.548 20.888 173.516 20.952 173.452 21C173.393 21.0533 173.313 21.08 173.212 21.08C173.094 21.08 173.006 21.0587 172.948 21.016C172.894 20.9787 172.854 20.9173 172.828 20.832L172.036 18.112L171.243 20.832C171.217 20.9173 171.174 20.9787 171.116 21.016C171.062 21.0587 170.977 21.08 170.86 21.08ZM176.752 21.08C176.65 21.08 176.568 21.0533 176.504 21C176.445 20.952 176.416 20.888 176.416 20.808C176.416 20.7813 176.418 20.76 176.424 20.744L176.44 20.664L175.44 17.12H176.144L176.84 20.032L177.68 17.2C177.706 17.0933 177.808 17.04 177.984 17.04C178.106 17.04 178.194 17.064 178.248 17.112C178.306 17.1547 178.336 17.216 178.336 17.296C178.336 17.3333 178.333 17.3627 178.328 17.384L178.296 17.552L179.016 20.032L179.712 17.12H180.416L179.416 20.664L179.432 20.744C179.437 20.76 179.44 20.7813 179.44 20.808C179.44 20.888 179.408 20.952 179.344 21C179.285 21.0533 179.205 21.08 179.104 21.08C178.986 21.08 178.898 21.0587 178.84 21.016C178.786 20.9787 178.746 20.9173 178.72 20.832L177.928 18.112L177.136 20.832C177.109 20.9173 177.066 20.9787 177.008 21.016C176.954 21.0587 176.869 21.08 176.752 21.08ZM182.644 21.08C182.543 21.08 182.46 21.0533 182.396 21C182.337 20.952 182.308 20.888 182.308 20.808C182.308 20.7813 182.311 20.76 182.316 20.744L182.332 20.664L181.332 17.12H182.036L182.732 20.032L183.572 17.2C183.599 17.0933 183.7 17.04 183.876 17.04C183.999 17.04 184.087 17.064 184.14 17.112C184.199 17.1547 184.228 17.216 184.228 17.296C184.228 17.3333 184.225 17.3627 184.22 17.384L184.188 17.552L184.908 20.032L185.604 17.12H186.308L185.308 20.664L185.324 20.744C185.329 20.76 185.332 20.7813 185.332 20.808C185.332 20.888 185.3 20.952 185.236 21C185.177 21.0533 185.097 21.08 184.996 21.08C184.879 21.08 184.791 21.0587 184.732 21.016C184.679 20.9787 184.639 20.9173 184.612 20.832L183.82 18.112L183.028 20.832C183.001 20.9173 182.959 20.9787 182.9 21.016C182.847 21.0587 182.761 21.08 182.644 21.08ZM187.891 21C187.758 21 187.646 20.9573 187.555 20.872C187.47 20.7813 187.427 20.6747 187.427 20.552C187.427 20.4293 187.47 20.3253 187.555 20.24C187.646 20.1493 187.758 20.104 187.891 20.104C188.019 20.104 188.126 20.1493 188.211 20.24C188.297 20.3253 188.339 20.4293 188.339 20.552C188.339 20.6747 188.297 20.7813 188.211 20.872C188.126 20.9573 188.019 21 187.891 21ZM189.636 18.096C189.636 17.9147 189.62 17.76 189.588 17.632C189.561 17.504 189.519 17.384 189.46 17.272L190.06 17.04C190.103 17.12 190.143 17.224 190.18 17.352C190.223 17.4747 190.249 17.6 190.26 17.728C190.393 17.4987 190.545 17.328 190.716 17.216C190.887 17.0987 191.089 17.04 191.324 17.04C191.452 17.04 191.564 17.056 191.66 17.088C191.761 17.1147 191.871 17.1653 191.988 17.24L191.724 17.728C191.591 17.648 191.439 17.608 191.268 17.608C190.959 17.608 190.721 17.7253 190.556 17.96C190.391 18.1947 190.308 18.496 190.308 18.864V21H189.636V18.096ZM194.505 21.08C194.11 21.08 193.774 20.992 193.497 20.816C193.225 20.6347 193.019 20.392 192.881 20.088C192.742 19.784 192.673 19.44 192.673 19.056C192.673 18.6773 192.742 18.336 192.881 18.032C193.019 17.7227 193.225 17.48 193.497 17.304C193.774 17.128 194.11 17.04 194.505 17.04C194.899 17.04 195.233 17.128 195.505 17.304C195.782 17.48 195.99 17.7227 196.129 18.032C196.267 18.336 196.337 18.6773 196.337 19.056C196.337 19.44 196.267 19.784 196.129 20.088C195.99 20.392 195.782 20.6347 195.505 20.816C195.233 20.992 194.899 21.08 194.505 21.08ZM194.505 20.512C194.878 20.512 195.161 20.3813 195.353 20.12C195.55 19.8533 195.649 19.4987 195.649 19.056C195.649 18.6187 195.55 18.2693 195.353 18.008C195.161 17.7413 194.878 17.608 194.505 17.608C194.137 17.608 193.854 17.7413 193.657 18.008C193.459 18.2693 193.361 18.6187 193.361 19.056C193.361 19.4987 193.459 19.8533 193.657 20.12C193.854 20.3813 194.137 20.512 194.505 20.512ZM199.252 21.08C198.634 21.08 198.146 20.9013 197.788 20.544C197.431 20.1813 197.252 19.688 197.252 19.064C197.252 18.6533 197.332 18.296 197.492 17.992C197.652 17.688 197.879 17.4533 198.172 17.288C198.471 17.1227 198.815 17.04 199.204 17.04C199.46 17.04 199.708 17.0827 199.948 17.168C200.194 17.2533 200.391 17.368 200.54 17.512L200.284 17.992C200.167 17.88 200.012 17.7893 199.82 17.72C199.634 17.6453 199.436 17.608 199.228 17.608C198.828 17.608 198.514 17.7333 198.284 17.984C198.055 18.2347 197.94 18.5947 197.94 19.064C197.94 19.5227 198.058 19.88 198.292 20.136C198.532 20.3867 198.863 20.512 199.284 20.512C199.471 20.512 199.652 20.48 199.828 20.416C200.004 20.352 200.151 20.2587 200.268 20.136L200.652 20.536C200.492 20.7013 200.284 20.8347 200.028 20.936C199.778 21.032 199.519 21.08 199.252 21.08ZM201.889 15.128H202.561V18.48L204.017 17.12H204.873L202.953 18.896L205.129 21H204.257L202.561 19.344V21H201.889V15.128ZM207.285 21.08C206.89 21.08 206.549 20.9973 206.261 20.832C205.973 20.6667 205.751 20.4347 205.597 20.136C205.447 19.832 205.373 19.4827 205.373 19.088C205.373 18.5013 205.522 18.0133 205.821 17.624C206.119 17.2347 206.573 17.04 207.181 17.04C207.602 17.04 207.949 17.1387 208.221 17.336C208.493 17.5333 208.69 17.7787 208.813 18.072C208.935 18.36 208.997 18.6533 208.997 18.952C208.997 19.2187 208.845 19.352 208.541 19.352H206.053C206.053 19.704 206.162 19.9867 206.381 20.2C206.599 20.408 206.901 20.512 207.285 20.512C207.738 20.512 208.111 20.3787 208.405 20.112L208.757 20.504C208.586 20.6853 208.373 20.8267 208.117 20.928C207.861 21.0293 207.583 21.08 207.285 21.08ZM208.325 18.8C208.325 18.4587 208.223 18.1733 208.021 17.944C207.823 17.7147 207.543 17.6 207.181 17.6C206.935 17.6 206.727 17.6587 206.557 17.776C206.386 17.8933 206.258 18.0453 206.173 18.232C206.093 18.4133 206.053 18.6027 206.053 18.8H208.325ZM211.505 21.08C211.169 21.08 210.918 20.9893 210.753 20.808C210.593 20.6213 210.513 20.3573 210.513 20.016V17.68H209.833L209.977 17.12H210.521V16.136L211.169 15.84V17.12H212.169L212.033 17.68H211.185V20.024C211.185 20.2107 211.214 20.3413 211.273 20.416C211.337 20.4907 211.449 20.528 211.609 20.528C211.78 20.528 211.929 20.496 212.057 20.432L212.225 20.936C212.145 20.9733 212.036 21.0053 211.897 21.032C211.758 21.064 211.628 21.08 211.505 21.08ZM214.794 21.08C214.341 21.08 213.986 20.944 213.73 20.672C213.474 20.3947 213.346 20.0107 213.346 19.52L213.354 17.12H214.026V19.512C214.026 19.8533 214.098 20.1067 214.242 20.272C214.392 20.432 214.624 20.512 214.938 20.512C215.258 20.512 215.506 20.3947 215.682 20.16C215.864 19.92 215.954 19.6267 215.954 19.28V17.12H216.626V20.024C216.626 20.2053 216.64 20.36 216.666 20.488C216.698 20.616 216.744 20.736 216.802 20.848L216.202 21.08C216.16 21 216.12 20.8987 216.082 20.776C216.045 20.6533 216.018 20.5253 216.002 20.392C215.72 20.8507 215.317 21.08 214.794 21.08ZM218.116 18.136C218.116 17.912 218.1 17.7413 218.068 17.624C218.041 17.5013 217.993 17.384 217.924 17.272L218.5 17.048C218.564 17.1173 218.617 17.2133 218.66 17.336C218.708 17.4533 218.735 17.584 218.74 17.728C218.895 17.5147 219.081 17.3467 219.3 17.224C219.524 17.1013 219.777 17.04 220.06 17.04C220.593 17.04 221.009 17.2267 221.308 17.6C221.612 17.968 221.764 18.4533 221.764 19.056C221.764 19.6693 221.612 20.16 221.308 20.528C221.009 20.896 220.577 21.08 220.012 21.08C219.751 21.08 219.516 21.024 219.308 20.912C219.1 20.8 218.927 20.6453 218.788 20.448V22.76H218.116V18.136ZM219.94 20.52C220.335 20.52 220.623 20.3867 220.804 20.12C220.991 19.8533 221.084 19.4987 221.084 19.056C221.084 18.6347 220.991 18.288 220.804 18.016C220.623 17.7387 220.345 17.6 219.972 17.6C219.727 17.6 219.513 17.6587 219.332 17.776C219.156 17.8933 219.02 18.0507 218.924 18.248C218.828 18.4453 218.78 18.6587 218.78 18.888V19.224C218.78 19.4427 218.825 19.6533 218.916 19.856C219.007 20.0533 219.14 20.2133 219.316 20.336C219.492 20.4587 219.7 20.52 219.94 20.52ZM223.351 21C223.217 21 223.105 20.9573 223.015 20.872C222.929 20.7813 222.887 20.6747 222.887 20.552C222.887 20.4293 222.929 20.3253 223.015 20.24C223.105 20.1493 223.217 20.104 223.351 20.104C223.479 20.104 223.585 20.1493 223.671 20.24C223.756 20.3253 223.799 20.4293 223.799 20.552C223.799 20.6747 223.756 20.7813 223.671 20.872C223.585 20.9573 223.479 21 223.351 21ZM226.919 21.08C226.301 21.08 225.813 20.9013 225.455 20.544C225.098 20.1813 224.919 19.688 224.919 19.064C224.919 18.6533 224.999 18.296 225.159 17.992C225.319 17.688 225.546 17.4533 225.839 17.288C226.138 17.1227 226.482 17.04 226.871 17.04C227.127 17.04 227.375 17.0827 227.615 17.168C227.861 17.2533 228.058 17.368 228.207 17.512L227.951 17.992C227.834 17.88 227.679 17.7893 227.487 17.72C227.301 17.6453 227.103 17.608 226.895 17.608C226.495 17.608 226.181 17.7333 225.951 17.984C225.722 18.2347 225.607 18.5947 225.607 19.064C225.607 19.5227 225.725 19.88 225.959 20.136C226.199 20.3867 226.53 20.512 226.951 20.512C227.138 20.512 227.319 20.48 227.495 20.416C227.671 20.352 227.818 20.2587 227.935 20.136L228.319 20.536C228.159 20.7013 227.951 20.8347 227.695 20.936C227.445 21.032 227.186 21.08 226.919 21.08ZM231.065 21.08C230.671 21.08 230.335 20.992 230.057 20.816C229.785 20.6347 229.58 20.392 229.441 20.088C229.303 19.784 229.233 19.44 229.233 19.056C229.233 18.6773 229.303 18.336 229.441 18.032C229.58 17.7227 229.785 17.48 230.057 17.304C230.335 17.128 230.671 17.04 231.065 17.04C231.46 17.04 231.793 17.128 232.065 17.304C232.343 17.48 232.551 17.7227 232.689 18.032C232.828 18.336 232.897 18.6773 232.897 19.056C232.897 19.44 232.828 19.784 232.689 20.088C232.551 20.392 232.343 20.6347 232.065 20.816C231.793 20.992 231.46 21.08 231.065 21.08ZM231.065 20.512C231.439 20.512 231.721 20.3813 231.913 20.12C232.111 19.8533 232.209 19.4987 232.209 19.056C232.209 18.6187 232.111 18.2693 231.913 18.008C231.721 17.7413 231.439 17.608 231.065 17.608C230.697 17.608 230.415 17.7413 230.217 18.008C230.02 18.2693 229.921 18.6187 229.921 19.056C229.921 19.4987 230.02 19.8533 230.217 20.12C230.415 20.3813 230.697 20.512 231.065 20.512ZM239.04 21.08C238.87 20.7867 238.784 20.4693 238.784 20.128V18.592C238.784 18.2507 238.731 18.0027 238.624 17.848C238.518 17.688 238.328 17.608 238.056 17.608C237.774 17.608 237.555 17.7067 237.4 17.904C237.251 18.096 237.176 18.344 237.176 18.648V21H236.52V18.592C236.52 18.2773 236.459 18.0347 236.336 17.864C236.219 17.6933 236.035 17.608 235.784 17.608C235.491 17.608 235.264 17.7227 235.104 17.952C234.944 18.1813 234.864 18.4747 234.864 18.832V21H234.192V18.096C234.192 17.904 234.179 17.7467 234.152 17.624C234.126 17.5013 234.08 17.384 234.016 17.272L234.616 17.04C234.67 17.136 234.712 17.2347 234.744 17.336C234.782 17.4373 234.806 17.56 234.816 17.704C234.923 17.496 235.072 17.3333 235.264 17.216C235.462 17.0987 235.672 17.04 235.896 17.04C236.387 17.04 236.728 17.2827 236.92 17.768C237.043 17.5333 237.211 17.3547 237.424 17.232C237.638 17.104 237.88 17.04 238.152 17.04C238.595 17.04 238.923 17.168 239.136 17.424C239.35 17.68 239.456 18.0267 239.456 18.464V20.128C239.456 20.3947 239.518 20.632 239.64 20.84L239.04 21.08Z" fill="#222222"/>
<path d="M84.8218 32.68C84.7658 32.656 84.7258 32.63 84.7018 32.602C84.6778 32.57 84.6658 32.53 84.6658 32.482C84.6658 32.382 84.6938 32.298 84.7498 32.23C84.8098 32.162 84.8818 32.128 84.9658 32.128C84.9898 32.128 85.0078 32.13 85.0198 32.134L85.0798 32.146L88.0978 30.91L87.9958 31.492L85.5598 32.452L87.6598 33.406L87.5518 33.988L84.8218 32.68ZM89.1498 30.352C89.1538 30.336 89.1558 30.314 89.1558 30.286C89.1558 30.234 89.1398 30.186 89.1078 30.142C89.0758 30.094 89.0598 30.056 89.0598 30.028C89.0598 30.02 89.0638 30 89.0718 29.968C89.0998 29.896 89.1498 29.832 89.2218 29.776C89.2938 29.72 89.3678 29.692 89.4438 29.692C89.5238 29.692 89.5958 29.728 89.6598 29.8H90.4938C90.9458 29.8 91.2978 29.902 91.5498 30.106C91.8058 30.31 91.9338 30.584 91.9338 30.928C91.9338 31.252 91.8578 31.538 91.7058 31.786C91.5538 32.03 91.3378 32.218 91.0578 32.35C90.7778 32.482 90.4478 32.548 90.0678 32.548H89.3778L89.1198 34H88.5078L89.1498 30.352ZM90.1218 32.026C90.4898 32.026 90.7778 31.934 90.9858 31.75C91.1938 31.562 91.2978 31.306 91.2978 30.982C91.2978 30.546 91.0038 30.328 90.4158 30.328H89.7678L89.4678 32.026H90.1218ZM93.3608 34.06C93.0008 34.06 92.7148 33.954 92.5028 33.742C92.2908 33.53 92.1848 33.25 92.1848 32.902C92.1848 32.538 92.2548 32.214 92.3948 31.93C92.5388 31.646 92.7388 31.426 92.9948 31.27C93.2548 31.11 93.5548 31.03 93.8948 31.03C94.2508 31.03 94.5348 31.136 94.7468 31.348C94.9588 31.56 95.0648 31.842 95.0648 32.194C95.0648 32.558 94.9948 32.882 94.8548 33.166C94.7148 33.446 94.5148 33.666 94.2548 33.826C93.9988 33.982 93.7008 34.06 93.3608 34.06ZM93.4448 33.562C93.6408 33.562 93.8148 33.508 93.9668 33.4C94.1188 33.288 94.2368 33.132 94.3208 32.932C94.4048 32.732 94.4468 32.502 94.4468 32.242C94.4468 32.014 94.3888 31.838 94.2728 31.714C94.1608 31.59 94.0048 31.528 93.8048 31.528C93.6088 31.528 93.4348 31.584 93.2828 31.696C93.1308 31.804 93.0128 31.958 92.9288 32.158C92.8448 32.358 92.8028 32.588 92.8028 32.848C92.8028 33.084 92.8588 33.262 92.9708 33.382C93.0828 33.502 93.2408 33.562 93.4448 33.562ZM96.9229 34.06C96.6509 34.06 96.4069 34.016 96.1909 33.928C95.9749 33.836 95.7989 33.708 95.6629 33.544L96.0829 33.166C96.1789 33.298 96.3089 33.4 96.4729 33.472C96.6369 33.54 96.8129 33.574 97.0009 33.574C97.1849 33.574 97.3249 33.542 97.4209 33.478C97.5209 33.41 97.5709 33.312 97.5709 33.184C97.5709 33.108 97.5289 33.042 97.4449 32.986C97.3649 32.926 97.2049 32.854 96.9649 32.77C96.6529 32.662 96.4249 32.544 96.2809 32.416C96.1409 32.288 96.0709 32.132 96.0709 31.948C96.0709 31.66 96.1829 31.436 96.4069 31.276C96.6349 31.112 96.9429 31.03 97.3309 31.03C97.5349 31.03 97.7209 31.06 97.8889 31.12C98.0609 31.18 98.2069 31.26 98.3269 31.36L98.0389 31.768C97.9069 31.676 97.7789 31.612 97.6549 31.576C97.5309 31.536 97.3949 31.516 97.2469 31.516C97.0709 31.516 96.9309 31.55 96.8269 31.618C96.7269 31.682 96.6769 31.772 96.6769 31.888C96.6769 31.972 96.7189 32.04 96.8029 32.092C96.8869 32.14 97.0509 32.21 97.2949 32.302C97.6149 32.418 97.8409 32.536 97.9729 32.656C98.1089 32.776 98.1769 32.928 98.1769 33.112C98.1769 33.408 98.0649 33.64 97.8409 33.808C97.6169 33.976 97.3109 34.06 96.9229 34.06ZM99.9599 30.562C99.8519 30.562 99.7639 30.53 99.6959 30.466C99.6319 30.402 99.5999 30.32 99.5999 30.22C99.5999 30.092 99.6499 29.98 99.7499 29.884C99.8499 29.788 99.9679 29.74 100.104 29.74C100.212 29.74 100.3 29.772 100.368 29.836C100.436 29.896 100.47 29.976 100.47 30.076C100.47 30.204 100.418 30.318 100.314 30.418C100.214 30.514 100.096 30.562 99.9599 30.562ZM99.5699 31.09H100.17L99.6539 34H99.0539L99.5699 31.09ZM101.915 34.054C101.703 34.054 101.539 34.002 101.423 33.898C101.311 33.79 101.255 33.636 101.255 33.436C101.255 33.368 101.261 33.296 101.273 33.22L101.561 31.582H101.045L101.255 31.09H101.657L101.777 30.394L102.407 30.13L102.233 31.09H102.995L102.791 31.582H102.161L101.873 33.232C101.865 33.296 101.861 33.34 101.861 33.364C101.861 33.44 101.879 33.494 101.915 33.526C101.955 33.554 102.017 33.568 102.101 33.568C102.225 33.568 102.335 33.546 102.431 33.502L102.497 33.94C102.433 33.972 102.345 33.998 102.233 34.018C102.121 34.042 102.015 34.054 101.915 34.054ZM104.368 30.562C104.26 30.562 104.172 30.53 104.104 30.466C104.04 30.402 104.008 30.32 104.008 30.22C104.008 30.092 104.058 29.98 104.158 29.884C104.258 29.788 104.376 29.74 104.512 29.74C104.62 29.74 104.708 29.772 104.776 29.836C104.844 29.896 104.878 29.976 104.878 30.076C104.878 30.204 104.826 30.318 104.722 30.418C104.622 30.514 104.504 30.562 104.368 30.562ZM103.978 31.09H104.578L104.062 34H103.462L103.978 31.09ZM106.492 34.06C106.132 34.06 105.846 33.954 105.634 33.742C105.422 33.53 105.316 33.25 105.316 32.902C105.316 32.538 105.386 32.214 105.526 31.93C105.67 31.646 105.87 31.426 106.126 31.27C106.386 31.11 106.686 31.03 107.026 31.03C107.382 31.03 107.666 31.136 107.878 31.348C108.09 31.56 108.196 31.842 108.196 32.194C108.196 32.558 108.126 32.882 107.986 33.166C107.846 33.446 107.646 33.666 107.386 33.826C107.13 33.982 106.832 34.06 106.492 34.06ZM106.576 33.562C106.772 33.562 106.946 33.508 107.098 33.4C107.25 33.288 107.368 33.132 107.452 32.932C107.536 32.732 107.578 32.502 107.578 32.242C107.578 32.014 107.52 31.838 107.404 31.714C107.292 31.59 107.136 31.528 106.936 31.528C106.74 31.528 106.566 31.584 106.414 31.696C106.262 31.804 106.144 31.958 106.06 32.158C105.976 32.358 105.934 32.588 105.934 32.848C105.934 33.084 105.99 33.262 106.102 33.382C106.214 33.502 106.372 33.562 106.576 33.562ZM110.984 34.06C110.924 33.908 110.894 33.754 110.894 33.598C110.894 33.518 110.904 33.422 110.924 33.31L111.116 32.23C111.132 32.15 111.14 32.068 111.14 31.984C111.14 31.828 111.098 31.714 111.014 31.642C110.934 31.566 110.812 31.528 110.648 31.528C110.42 31.528 110.22 31.618 110.048 31.798C109.876 31.974 109.768 32.19 109.724 32.446L109.448 34H108.848L109.226 31.852C109.246 31.74 109.256 31.644 109.256 31.564C109.256 31.452 109.238 31.342 109.202 31.234L109.772 31.03C109.816 31.146 109.838 31.278 109.838 31.426C109.838 31.47 109.836 31.504 109.832 31.528C109.968 31.376 110.13 31.256 110.318 31.168C110.51 31.076 110.702 31.03 110.894 31.03C111.178 31.03 111.392 31.104 111.536 31.252C111.68 31.396 111.752 31.604 111.752 31.876C111.752 31.988 111.74 32.108 111.716 32.236L111.524 33.304C111.512 33.376 111.506 33.446 111.506 33.514C111.506 33.654 111.526 33.766 111.566 33.85L110.984 34.06ZM112.44 33.406L114.876 32.452L112.776 31.492L112.884 30.91L115.464 32.146L115.53 32.134C115.546 32.13 115.568 32.128 115.596 32.128C115.656 32.128 115.702 32.148 115.734 32.188C115.77 32.224 115.788 32.274 115.788 32.338C115.788 32.438 115.764 32.512 115.716 32.56C115.672 32.608 115.61 32.648 115.53 32.68L112.338 33.988L112.44 33.406Z" fill="#646464"/>
<path d="M55.9305 21.547C55.8205 21.503 55.7399 21.4517 55.6885 21.393C55.6445 21.327 55.6225 21.239 55.6225 21.129C55.6225 20.9897 55.6555 20.8797 55.7215 20.799C55.7875 20.711 55.8755 20.667 55.9855 20.667C56.0369 20.667 56.0735 20.6707 56.0955 20.678L56.1945 20.7L61.3095 18.39V19.303L57.0195 21.184L61.3095 23.065V23.978L55.9305 21.547ZM63.1622 17.301C63.1622 17.1763 63.1438 17.081 63.1072 17.015C63.0705 16.949 63.0228 16.8867 62.9642 16.828C62.9202 16.784 62.8872 16.7473 62.8652 16.718C62.8505 16.6813 62.8505 16.6373 62.8652 16.586C62.9092 16.476 62.9788 16.3697 63.0742 16.267C63.1695 16.157 63.2722 16.102 63.3822 16.102C63.4922 16.102 63.6058 16.168 63.7232 16.3H67.5182V17.114H64.1082V19.688H66.5942V20.48H64.1082V24H63.1622V17.301ZM70.6614 24.11C70.0381 24.11 69.5504 23.923 69.1984 23.549C68.8464 23.1677 68.6704 22.6397 68.6704 21.965L68.6814 18.665H69.6054V21.954C69.6054 22.4233 69.7044 22.7717 69.9024 22.999C70.1078 23.219 70.4268 23.329 70.8594 23.329C71.2994 23.329 71.6404 23.1677 71.8824 22.845C72.1318 22.515 72.2564 22.1117 72.2564 21.635V18.665H73.1804V22.658C73.1804 22.9073 73.1988 23.12 73.2354 23.296C73.2794 23.472 73.3418 23.637 73.4224 23.791L72.5974 24.11C72.5388 24 72.4838 23.8607 72.4324 23.692C72.3811 23.5233 72.3444 23.3473 72.3224 23.164C71.9338 23.7947 71.3801 24.11 70.6614 24.11ZM75.1299 15.926H76.0539V24H75.1299V15.926ZM77.925 15.926H78.849V24H77.925V15.926ZM84.7462 24.11C84.5115 23.7067 84.3942 23.2703 84.3942 22.801V20.711C84.3942 20.2417 84.2988 19.897 84.1082 19.677C83.9248 19.4497 83.6278 19.336 83.2172 19.336C82.9238 19.336 82.6635 19.4167 82.4362 19.578C82.2088 19.7393 82.0328 19.9557 81.9082 20.227C81.7835 20.4983 81.7212 20.788 81.7212 21.096V24H80.7972V20.007C80.7972 19.7577 80.7752 19.545 80.7312 19.369C80.6945 19.193 80.6358 19.028 80.5552 18.874L81.3802 18.555C81.4388 18.665 81.4938 18.808 81.5452 18.984C81.6038 19.1527 81.6405 19.325 81.6552 19.501C81.8458 19.2077 82.0988 18.9767 82.4142 18.808C82.7368 18.6393 83.0815 18.555 83.4482 18.555C84.0788 18.555 84.5482 18.742 84.8562 19.116C85.1642 19.4827 85.3182 20.018 85.3182 20.722V22.801C85.3182 23.1677 85.4025 23.494 85.5712 23.78L84.7462 24.11ZM89.442 24.11C88.958 24.11 88.54 23.9927 88.188 23.758C87.836 23.516 87.5684 23.1897 87.385 22.779C87.2017 22.3683 87.11 21.9027 87.11 21.382C87.11 20.8467 87.2017 20.3663 87.385 19.941C87.5757 19.5083 87.8507 19.171 88.21 18.929C88.5694 18.6797 89.002 18.555 89.508 18.555C90.234 18.555 90.795 18.8483 91.191 19.435V18.665H92.093V22.625C92.093 23.1383 92.1774 23.5307 92.346 23.802L91.587 24.11C91.411 23.8973 91.3084 23.5893 91.279 23.186L91.246 23.175C90.7987 23.7983 90.1974 24.11 89.442 24.11ZM89.563 23.34C90.0837 23.34 90.4834 23.175 90.762 22.845C91.048 22.5077 91.191 22.0823 91.191 21.569V21.107C91.191 20.8137 91.1287 20.5313 91.004 20.26C90.8867 19.9887 90.707 19.765 90.465 19.589C90.223 19.413 89.9297 19.325 89.585 19.325C89.0864 19.325 88.705 19.5157 88.441 19.897C88.177 20.271 88.045 20.766 88.045 21.382C88.045 21.976 88.1734 22.4527 88.43 22.812C88.694 23.164 89.0717 23.34 89.563 23.34ZM100.799 24.11C100.564 23.7067 100.447 23.2703 100.447 22.801V20.689C100.447 20.2197 100.373 19.8787 100.227 19.666C100.08 19.446 99.8195 19.336 99.4455 19.336C99.0568 19.336 98.7562 19.4717 98.5435 19.743C98.3382 20.007 98.2355 20.348 98.2355 20.766V24H97.3335V20.689C97.3335 20.2563 97.2492 19.9227 97.0805 19.688C96.9192 19.4533 96.6662 19.336 96.3215 19.336C95.9182 19.336 95.6065 19.4937 95.3865 19.809C95.1665 20.1243 95.0565 20.5277 95.0565 21.019V24H94.1325V20.007C94.1325 19.743 94.1142 19.5267 94.0775 19.358C94.0408 19.1893 93.9785 19.028 93.8905 18.874L94.7155 18.555C94.7888 18.687 94.8475 18.8227 94.8915 18.962C94.9428 19.1013 94.9758 19.27 94.9905 19.468C95.1372 19.182 95.3425 18.9583 95.6065 18.797C95.8778 18.6357 96.1675 18.555 96.4755 18.555C97.1502 18.555 97.6195 18.8887 97.8835 19.556C98.0522 19.2333 98.2832 18.9877 98.5765 18.819C98.8698 18.643 99.2035 18.555 99.5775 18.555C100.186 18.555 100.637 18.731 100.931 19.083C101.224 19.435 101.371 19.9117 101.371 20.513V22.801C101.371 23.1677 101.455 23.494 101.624 23.78L100.799 24.11ZM105.792 24.11C105.25 24.11 104.78 23.9963 104.384 23.769C103.988 23.5417 103.684 23.2227 103.471 22.812C103.266 22.394 103.163 21.9137 103.163 21.371C103.163 20.5643 103.369 19.8933 103.779 19.358C104.19 18.8227 104.813 18.555 105.649 18.555C106.229 18.555 106.705 18.6907 107.079 18.962C107.453 19.2333 107.725 19.5707 107.893 19.974C108.062 20.37 108.146 20.7733 108.146 21.184C108.146 21.5507 107.937 21.734 107.519 21.734H104.098C104.098 22.218 104.249 22.6067 104.549 22.9C104.85 23.186 105.264 23.329 105.792 23.329C106.416 23.329 106.929 23.1457 107.332 22.779L107.816 23.318C107.582 23.5673 107.288 23.7617 106.936 23.901C106.584 24.0403 106.203 24.11 105.792 24.11ZM107.222 20.975C107.222 20.5057 107.083 20.1133 106.804 19.798C106.533 19.4827 106.148 19.325 105.649 19.325C105.312 19.325 105.026 19.4057 104.791 19.567C104.557 19.7283 104.381 19.9373 104.263 20.194C104.153 20.4433 104.098 20.7037 104.098 20.975H107.222ZM109.686 23.065L113.976 21.184L109.686 19.303V18.39L114.79 20.7L114.889 20.678C114.918 20.6707 114.955 20.667 114.999 20.667C115.116 20.667 115.208 20.711 115.274 20.799C115.34 20.8797 115.373 20.9897 115.373 21.129C115.373 21.239 115.347 21.327 115.296 21.393C115.244 21.4517 115.164 21.503 115.054 21.547L109.686 23.978V23.065Z" fill="#222222"/>
<path d="M40.8751 100.547C40.7651 100.503 40.6844 100.452 40.6331 100.393C40.5891 100.327 40.5671 100.239 40.5671 100.129C40.5671 99.9897 40.6001 99.8797 40.6661 99.799C40.7321 99.711 40.8201 99.667 40.9301 99.667C40.9814 99.667 41.0181 99.6707 41.0401 99.678L41.1391 99.7L46.2541 97.39V98.303L41.9641 100.184L46.2541 102.065V102.978L40.8751 100.547ZM48.1067 96.301C48.1067 96.1763 48.0884 96.081 48.0517 96.015C48.0151 95.949 47.9674 95.8867 47.9087 95.828C47.8647 95.784 47.8317 95.7473 47.8097 95.718C47.7951 95.6813 47.7951 95.6373 47.8097 95.586C47.8537 95.476 47.9234 95.3697 48.0187 95.267C48.1141 95.157 48.2167 95.102 48.3267 95.102C48.4367 95.102 48.5504 95.168 48.6677 95.3H52.4627V96.114H49.0527V98.567H51.5387V99.359H49.0527V102.186H52.5617V103H48.1067V96.301ZM61.0145 103.11C60.7799 102.707 60.6625 102.27 60.6625 101.801V99.689C60.6625 99.2197 60.5892 98.8787 60.4425 98.666C60.2959 98.446 60.0355 98.336 59.6615 98.336C59.2729 98.336 58.9722 98.4717 58.7595 98.743C58.5542 99.007 58.4515 99.348 58.4515 99.766V103H57.5495V99.689C57.5495 99.2563 57.4652 98.9227 57.2965 98.688C57.1352 98.4533 56.8822 98.336 56.5375 98.336C56.1342 98.336 55.8225 98.4937 55.6025 98.809C55.3825 99.1243 55.2725 99.5277 55.2725 100.019V103H54.3485V99.007C54.3485 98.743 54.3302 98.5267 54.2935 98.358C54.2569 98.1893 54.1945 98.028 54.1065 97.874L54.9315 97.555C55.0049 97.687 55.0635 97.8227 55.1075 97.962C55.1589 98.1013 55.1919 98.27 55.2065 98.468C55.3532 98.182 55.5585 97.9583 55.8225 97.797C56.0939 97.6357 56.3835 97.555 56.6915 97.555C57.3662 97.555 57.8355 97.8887 58.0995 98.556C58.2682 98.2333 58.4992 97.9877 58.7925 97.819C59.0859 97.643 59.4195 97.555 59.7935 97.555C60.4022 97.555 60.8532 97.731 61.1465 98.083C61.4399 98.435 61.5865 98.9117 61.5865 99.513V101.801C61.5865 102.168 61.6709 102.494 61.8395 102.78L61.0145 103.11ZM65.7112 103.11C65.2272 103.11 64.8092 102.993 64.4572 102.758C64.1052 102.516 63.8375 102.19 63.6542 101.779C63.4709 101.368 63.3792 100.903 63.3792 100.382C63.3792 99.8467 63.4709 99.3663 63.6542 98.941C63.8449 98.5083 64.1199 98.171 64.4792 97.929C64.8385 97.6797 65.2712 97.555 65.7772 97.555C66.5032 97.555 67.0642 97.8483 67.4602 98.435V97.665H68.3622V101.625C68.3622 102.138 68.4465 102.531 68.6152 102.802L67.8562 103.11C67.6802 102.897 67.5775 102.589 67.5482 102.186L67.5152 102.175C67.0679 102.798 66.4665 103.11 65.7112 103.11ZM65.8322 102.34C66.3529 102.34 66.7525 102.175 67.0312 101.845C67.3172 101.508 67.4602 101.082 67.4602 100.569V100.107C67.4602 99.8137 67.3979 99.5313 67.2732 99.26C67.1559 98.9887 66.9762 98.765 66.7342 98.589C66.4922 98.413 66.1989 98.325 65.8542 98.325C65.3555 98.325 64.9742 98.5157 64.7102 98.897C64.4462 99.271 64.3142 99.766 64.3142 100.382C64.3142 100.976 64.4425 101.453 64.6992 101.812C64.9632 102.164 65.3409 102.34 65.8322 102.34ZM71.0067 96.51C70.816 96.51 70.6547 96.4477 70.5227 96.323C70.3907 96.191 70.3247 96.0333 70.3247 95.85C70.3247 95.6667 70.3907 95.5127 70.5227 95.388C70.6547 95.256 70.816 95.19 71.0067 95.19C71.1973 95.19 71.3587 95.256 71.4907 95.388C71.6227 95.5127 71.6887 95.6667 71.6887 95.85C71.6887 96.0333 71.6227 96.191 71.4907 96.323C71.3587 96.4477 71.1973 96.51 71.0067 96.51ZM70.5337 97.665H71.4577V103H70.5337V97.665ZM73.5602 94.926H74.4842V103H73.5602V94.926ZM76.1903 102.065L80.4803 100.184L76.1903 98.303V97.39L81.2943 99.7L81.3933 99.678C81.4227 99.6707 81.4593 99.667 81.5033 99.667C81.6207 99.667 81.7123 99.711 81.7783 99.799C81.8443 99.8797 81.8773 99.9897 81.8773 100.129C81.8773 100.239 81.8517 100.327 81.8003 100.393C81.749 100.452 81.6683 100.503 81.5583 100.547L76.1903 102.978V102.065Z" fill="#222222"/>
<path d="M32.25 95.25H23.25C23.0511 95.25 22.8603 95.329 22.7197 95.4697C22.579 95.6103 22.5 95.8011 22.5 96V102C22.5 102.199 22.579 102.39 22.7197 102.53C22.8603 102.671 23.0511 102.75 23.25 102.75H32.25C32.4489 102.75 32.6397 102.671 32.7803 102.53C32.921 102.39 33 102.199 33 102V96C33 95.8011 32.921 95.6103 32.7803 95.4697C32.6397 95.329 32.4489 95.25 32.25 95.25ZM31.425 96L27.75 98.5425L24.075 96H31.425ZM23.25 102V96.3412L27.5363 99.3075C27.599 99.351 27.6736 99.3744 27.75 99.3744C27.8264 99.3744 27.901 99.351 27.9637 99.3075L32.25 96.3412V102H23.25Z" fill="#222222"/>
<path d="M40.8751 81.547C40.7651 81.503 40.6844 81.4517 40.6331 81.393C40.5891 81.327 40.5671 81.239 40.5671 81.129C40.5671 80.9897 40.6001 80.8797 40.6661 80.799C40.7321 80.711 40.8201 80.667 40.9301 80.667C40.9814 80.667 41.0181 80.6707 41.0401 80.678L41.1391 80.7L46.2541 78.39V79.303L41.9641 81.184L46.2541 83.065V83.978L40.8751 81.547ZM51.5827 84.11C51.4801 84.11 51.3884 84.0843 51.3077 84.033C51.2344 83.989 51.1831 83.923 51.1537 83.835L49.2947 78.17L48.7557 84.011H47.7987L48.5467 76.828L48.4697 76.718C48.4404 76.6593 48.4257 76.6043 48.4257 76.553C48.4257 76.4357 48.4697 76.333 48.5577 76.245C48.6457 76.1497 48.7741 76.102 48.9427 76.102C49.1407 76.102 49.2911 76.146 49.3937 76.234C49.4964 76.322 49.5771 76.4613 49.6357 76.652L51.5497 82.515L53.4747 76.652C53.5407 76.4613 53.6214 76.322 53.7167 76.234C53.8194 76.146 53.9697 76.102 54.1677 76.102C54.3364 76.102 54.4647 76.1497 54.5527 76.245C54.6407 76.333 54.6847 76.432 54.6847 76.542C54.6847 76.6227 54.6701 76.6813 54.6407 76.718L54.5747 76.828L55.3117 84.011H54.3547L53.8157 78.17L52.0777 83.472L52.1107 83.582C52.1254 83.6407 52.1327 83.6847 52.1327 83.714C52.1327 83.8313 52.0777 83.9267 51.9677 84C51.8651 84.0733 51.7367 84.11 51.5827 84.11ZM59.0962 84.11C58.5536 84.11 58.0916 83.989 57.7102 83.747C57.3362 83.4977 57.0539 83.164 56.8632 82.746C56.6726 82.328 56.5772 81.855 56.5772 81.327C56.5772 80.8063 56.6726 80.337 56.8632 79.919C57.0539 79.4937 57.3362 79.16 57.7102 78.918C58.0916 78.676 58.5536 78.555 59.0962 78.555C59.6389 78.555 60.0972 78.676 60.4712 78.918C60.8526 79.16 61.1386 79.4937 61.3292 79.919C61.5199 80.337 61.6152 80.8063 61.6152 81.327C61.6152 81.855 61.5199 82.328 61.3292 82.746C61.1386 83.164 60.8526 83.4977 60.4712 83.747C60.0972 83.989 59.6389 84.11 59.0962 84.11ZM59.0962 83.329C59.6096 83.329 59.9982 83.1493 60.2622 82.79C60.5336 82.4233 60.6692 81.9357 60.6692 81.327C60.6692 80.7257 60.5336 80.2453 60.2622 79.886C59.9982 79.5193 59.6096 79.336 59.0962 79.336C58.5902 79.336 58.2016 79.5193 57.9302 79.886C57.6589 80.2453 57.5232 80.7257 57.5232 81.327C57.5232 81.9357 57.6589 82.4233 57.9302 82.79C58.2016 83.1493 58.5902 83.329 59.0962 83.329ZM63.1536 83.802C63.2416 83.648 63.3076 83.4867 63.3516 83.318C63.3956 83.142 63.4176 82.9073 63.4176 82.614V75.926H64.3416V79.424C64.5396 79.1673 64.7889 78.9583 65.0896 78.797C65.3903 78.6357 65.7239 78.555 66.0906 78.555C66.8606 78.555 67.4436 78.808 67.8396 79.314C68.2356 79.8127 68.4336 80.4873 68.4336 81.338C68.4336 81.8587 68.3383 82.328 68.1476 82.746C67.9569 83.164 67.6819 83.4977 67.3226 83.747C66.9633 83.989 66.5416 84.11 66.0576 84.11C65.6689 84.11 65.3206 84.0257 65.0126 83.857C64.7119 83.6883 64.4626 83.4573 64.2646 83.164C64.2573 83.3693 64.2206 83.5563 64.1546 83.725C64.0959 83.8937 64.0226 84.022 63.9346 84.11L63.1536 83.802ZM65.9696 83.34C66.4756 83.34 66.8569 83.1493 67.1136 82.768C67.3703 82.3793 67.4986 81.9027 67.4986 81.338C67.4986 80.7293 67.3739 80.2417 67.1246 79.875C66.8826 79.5083 66.4903 79.325 65.9476 79.325C65.6176 79.325 65.3279 79.4093 65.0786 79.578C64.8366 79.7467 64.6496 79.9703 64.5176 80.249C64.3929 80.5203 64.3306 80.8063 64.3306 81.107V81.569C64.3306 81.8843 64.3966 82.1777 64.5286 82.449C64.6606 82.7203 64.8476 82.9367 65.0896 83.098C65.3389 83.2593 65.6323 83.34 65.9696 83.34ZM70.824 77.51C70.6334 77.51 70.472 77.4477 70.34 77.323C70.208 77.191 70.142 77.0333 70.142 76.85C70.142 76.6667 70.208 76.5127 70.34 76.388C70.472 76.256 70.6334 76.19 70.824 76.19C71.0147 76.19 71.176 76.256 71.308 76.388C71.44 76.5127 71.506 76.6667 71.506 76.85C71.506 77.0333 71.44 77.191 71.308 77.323C71.176 77.4477 71.0147 77.51 70.824 77.51ZM70.351 78.665H71.275V84H70.351V78.665ZM73.3776 75.926H74.3016V84H73.3776V75.926ZM78.6367 84.11C78.094 84.11 77.6247 83.9963 77.2287 83.769C76.8327 83.5417 76.5284 83.2227 76.3157 82.812C76.1104 82.394 76.0077 81.9137 76.0077 81.371C76.0077 80.5643 76.213 79.8933 76.6237 79.358C77.0344 78.8227 77.6577 78.555 78.4937 78.555C79.073 78.555 79.5497 78.6907 79.9237 78.962C80.2977 79.2333 80.569 79.5707 80.7377 79.974C80.9064 80.37 80.9907 80.7733 80.9907 81.184C80.9907 81.5507 80.7817 81.734 80.3637 81.734H76.9427C76.9427 82.218 77.093 82.6067 77.3937 82.9C77.6944 83.186 78.1087 83.329 78.6367 83.329C79.26 83.329 79.7734 83.1457 80.1767 82.779L80.6607 83.318C80.426 83.5673 80.1327 83.7617 79.7807 83.901C79.4287 84.0403 79.0474 84.11 78.6367 84.11ZM80.0667 80.975C80.0667 80.5057 79.9274 80.1133 79.6487 79.798C79.3774 79.4827 78.9924 79.325 78.4937 79.325C78.1564 79.325 77.8704 79.4057 77.6357 79.567C77.401 79.7283 77.225 79.9373 77.1077 80.194C76.9977 80.4433 76.9427 80.7037 76.9427 80.975H80.0667ZM82.5304 83.065L86.8204 81.184L82.5304 79.303V78.39L87.6344 80.7L87.7334 80.678C87.7627 80.6707 87.7994 80.667 87.8434 80.667C87.9607 80.667 88.0524 80.711 88.1184 80.799C88.1844 80.8797 88.2174 80.9897 88.2174 81.129C88.2174 81.239 88.1917 81.327 88.1404 81.393C88.089 81.4517 88.0084 81.503 87.8984 81.547L82.5304 83.978V83.065Z" fill="#222222"/>
<path d="M30 73.75C30.1989 73.75 30.3897 73.829 30.5303 73.9697C30.671 74.1103 30.75 74.3011 30.75 74.5V83.5C30.75 83.6989 30.671 83.8897 30.5303 84.0303C30.3897 84.171 30.1989 84.25 30 84.25H25.5C25.3011 84.25 25.1103 84.171 24.9697 84.0303C24.829 83.8897 24.75 83.6989 24.75 83.5V74.5C24.75 74.3011 24.829 74.1103 24.9697 73.9697C25.1103 73.829 25.3011 73.75 25.5 73.75H30ZM25.5 73C25.1022 73 24.7206 73.158 24.4393 73.4393C24.158 73.7206 24 74.1022 24 74.5V83.5C24 83.8978 24.158 84.2794 24.4393 84.5607C24.7206 84.842 25.1022 85 25.5 85H30C30.3978 85 30.7794 84.842 31.0607 84.5607C31.342 84.2794 31.5 83.8978 31.5 83.5V74.5C31.5 74.1022 31.342 73.7206 31.0607 73.4393C30.7794 73.158 30.3978 73 30 73H25.5Z" fill="#222222"/>
<path d="M27.75 83.5C27.9489 83.5 28.1397 83.421 28.2803 83.2803C28.421 83.1397 28.5 82.9489 28.5 82.75C28.5 82.5511 28.421 82.3603 28.2803 82.2197C28.1397 82.079 27.9489 82 27.75 82C27.5511 82 27.3603 82.079 27.2197 82.2197C27.079 82.3603 27 82.5511 27 82.75C27 82.9489 27.079 83.1397 27.2197 83.2803C27.3603 83.421 27.5511 83.5 27.75 83.5Z" fill="#222222"/>
</g>
<defs>
<clipPath id="clip0_28_76">
<rect width="252" height="144" rx="12" fill="white"/>
</clipPath>
</defs>
</svg>
