<svg width="1368" height="768" viewBox="0 0 1368 768" fill="none" xmlns="http://www.w3.org/2000/svg">
<rect width="1368" height="768" fill="#1E1E1E"/>
<rect width="1368" height="768" fill="white"/>
<g opacity="0.6" filter="url(#filter0_i_17_2)">
<path d="M693.012 577.991H789.3C790.791 577.991 791.989 579.188 791.989 580.634C791.989 602.842 786.386 713.635 675.661 713.635C602.236 713.635 548.94 661.876 548.94 590.552C548.94 519.25 602.236 467.491 675.661 467.491H725.022C733.306 467.491 740.022 474.207 740.022 482.491V510.622C740.022 518.906 733.306 525.622 725.022 525.622H675.661C637.051 525.622 613.984 558.652 613.984 590.575C613.984 623.04 637.548 658.058 675.661 658.058C697.926 658.058 717.552 645.48 722.959 629.129C723.904 626.27 721.55 623.608 718.539 623.613L693.012 623.65C692.289 623.65 691.611 623.356 691.114 622.859C690.594 622.362 690.323 621.662 690.323 620.961V580.679C690.323 579.188 691.521 577.991 693.012 577.991Z" fill="url(#paint0_linear_17_2)"/>
</g>
<path d="M812.131 701.359L812.131 475.478" stroke="url(#paint1_linear_17_2)" stroke-width="26" stroke-linecap="round"/>
<path d="M848.656 700.655C839.563 690.535 835.016 676.528 835.016 658.635C835.016 640.742 839.563 626.735 848.656 616.615C857.896 606.495 870.289 601.435 885.836 601.435C901.383 601.435 913.703 606.495 922.796 616.615C931.889 626.735 936.436 640.742 936.436 658.635C936.436 676.528 931.889 690.535 922.796 700.655C913.703 710.775 901.383 715.835 885.836 715.835C870.289 715.835 857.896 710.775 848.656 700.655ZM885.836 638.175C877.623 638.175 873.516 644.922 873.516 658.415C873.516 671.908 877.623 678.655 885.836 678.655C894.196 678.655 898.376 671.908 898.376 658.415C898.376 644.922 894.196 638.175 885.836 638.175ZM947.589 604.955C947.589 603.342 953.896 602.535 966.509 602.535C979.122 602.535 985.429 603.342 985.429 604.955V669.195C985.429 676.528 987.776 680.195 992.469 680.195C995.989 680.195 999.949 678.655 1004.35 675.575V604.955C1004.35 603.488 1010.58 602.755 1023.05 602.755C1035.52 602.755 1041.75 603.488 1041.75 604.955V677.115H1047.47C1052.46 677.115 1054.95 681.882 1054.95 691.415C1054.95 696.255 1053.92 701.168 1051.87 706.155C1048.94 712.608 1044.98 715.835 1039.99 715.835C1030.16 715.835 1022.9 711.802 1018.21 703.735L1017.99 703.955C1009.04 711.875 999.436 715.835 989.169 715.835C974.942 715.835 964.456 712.315 957.709 705.275C950.962 698.088 947.589 686.282 947.589 669.855V604.955ZM1064.62 638.835C1063.59 638.835 1063.08 635.682 1063.08 629.375C1063.08 612.215 1064.47 603.635 1067.26 603.635H1137.44C1138.46 603.635 1140.74 606.862 1144.26 613.315C1147.78 619.768 1149.54 623.435 1149.54 624.315C1149.54 625.048 1149.46 625.488 1149.32 625.635L1106.64 679.315L1144.92 676.675C1147.26 676.675 1148.44 681.882 1148.44 692.295C1148.44 696.255 1148.07 700.802 1147.34 705.935C1146.6 711.068 1145.36 713.635 1143.6 713.635H1073.2C1071 713.635 1068.36 709.968 1065.28 702.635C1062.2 695.302 1060.66 690.902 1060.66 689.435C1060.66 687.822 1060.8 686.868 1061.1 686.575L1103.12 637.515L1064.62 638.835Z" fill="url(#paint2_linear_17_2)"/>
<path d="M289.895 321.365C362.037 286.857 404.194 279.857 469.895 284.365C493.337 251.851 513.704 235.243 558.895 209.365C606.878 181.32 638.549 171.136 710.895 149.365C820.074 125.076 865.27 119.567 924.895 120.365C915.534 144.973 907.822 157.334 888.895 176.365C870.726 193.38 855.657 202.777 822.895 219.365C715.807 261.585 653.562 283.879 538.895 321.365C515.607 336.084 514.29 343.796 534.895 357.365L601.895 389.365C636.392 405.598 646.797 419.275 647.395 452.865C641.921 515.726 611.525 510.011 602.672 522.578C601.191 525.712 600.505 526.413 601.895 523.832C602.131 523.394 602.391 522.977 602.672 522.578C609.366 508.404 632.301 444.472 552.895 409.332C461.395 431.332 445.889 538.229 469.895 612.365C498.198 699.77 570.402 702.699 678.895 720.365C496.713 730.508 364.546 644.829 350.395 592.865C336.245 540.901 336.121 519.58 354.895 468.365C303.804 461.637 274.843 455.069 239.069 439.993C227.66 435.185 217.076 426.68 219.893 414.623C220.803 410.729 221.805 406.155 221.895 400.365C239.12 361.44 248.927 344.646 289.895 321.365Z" fill="#4377DF"/>
<path d="M620.248 402.365C602.54 400.979 581.291 398.096 555.895 400.365C326.772 420.837 324.936 714.673 672.471 719.329C664.891 718.116 657.493 716.968 650.281 715.848C557.668 701.473 495.632 691.843 469.895 612.365C445.889 538.229 468.395 434.851 559.895 412.851C639.476 448.068 616.264 512.205 609.627 526.19C609.352 526.571 583.107 537.472 582.895 537.865C581.519 540.42 608.178 529.244 609.627 526.19C612.196 522.636 591.47 530.025 597.943 526.19C615.989 515.497 643.353 499.283 647.395 452.865C646.92 426.184 640.257 415.179 620.248 402.365Z" fill="#51A7FC"/>
<path d="M611.395 491.865C616.981 491.865 616.955 493.616 610.676 497.308C613.803 499.203 617.519 500.865 617.519 500.865L584.145 542.365C526.145 553.365 480.895 633.865 480.895 633.865C480.895 633.865 470.895 552.865 537.519 527.865C577.562 512.839 601.216 502.87 610.676 497.308C606.525 494.792 603.411 491.865 611.395 491.865Z" fill="url(#paint3_linear_17_2)"/>
<path d="M300.903 459.505C375.199 396.207 420.706 377.915 492.395 374.865C490.485 372.612 488.1 371.027 485.757 369.469C481.952 366.94 478.259 364.485 476.895 359.365C474.151 349.058 481.145 341.365 487.895 334.365C494.645 327.365 563.051 262.984 668.895 212.365C749.014 175.137 804.833 155.023 921.895 120.365L921.818 120.329C863.69 119.763 818.188 125.496 710.895 149.365C638.549 171.136 606.878 181.32 558.895 209.365C513.704 235.243 493.337 251.851 469.895 284.365C404.194 279.857 362.037 286.857 289.895 321.365C254.474 341.494 235.618 356.026 220.029 384.751C214.912 394.18 211.774 407.024 214.121 417.492C216.829 429.573 227.656 435.183 239.066 439.991C260.074 448.845 278.733 454.764 300.903 459.505Z" fill="#51A7FC"/>
<path d="M636.024 412.192C608.676 380.856 554.816 390.562 485.511 417.277C485.511 417.277 575.94 420.575 596.895 453.365C614.516 480.937 584.158 542.365 584.158 542.365C662.33 505.946 663.372 443.528 636.024 412.192Z" fill="url(#paint4_linear_17_2)"/>
<path d="M354.895 329.239C330.731 327.163 318.04 330.594 296.895 344.723C296.895 344.723 321.695 357.382 335.895 352.058C347.9 347.556 354.895 329.239 354.895 329.239Z" fill="white"/>
<path d="M835.895 6.36499C676.29 47.0331 516.253 84.7413 470.895 254.365C555.519 82.9254 778.895 112.365 808.895 82.365C838.895 52.365 850.895 27.365 835.895 6.36499Z" fill="#51A7FC"/>
<path fill-rule="evenodd" clip-rule="evenodd" d="M474.656 247.045C527.151 138.726 605.57 92.9015 771.573 61.9816C803.291 56.0737 831.025 36.4677 836.087 6.63526C836.023 6.5451 835.96 6.45501 835.895 6.36499C832.911 7.12551 829.926 7.885 826.941 8.64434C670.345 48.4896 515.404 87.9134 470.895 254.365C472.12 251.883 473.374 249.444 474.656 247.045Z" fill="#4377DF"/>
<defs>
<filter id="filter0_i_17_2" x="548.94" y="467.491" width="243.048" height="250.144" filterUnits="userSpaceOnUse" color-interpolation-filters="sRGB">
<feFlood flood-opacity="0" result="BackgroundImageFix"/>
<feBlend mode="normal" in="SourceGraphic" in2="BackgroundImageFix" result="shape"/>
<feColorMatrix in="SourceAlpha" type="matrix" values="0 0 0 0 0 0 0 0 0 0 0 0 0 0 0 0 0 0 127 0" result="hardAlpha"/>
<feOffset dy="4"/>
<feGaussianBlur stdDeviation="2"/>
<feComposite in2="hardAlpha" operator="arithmetic" k2="-1" k3="1"/>
<feColorMatrix type="matrix" values="0 0 0 0 0 0 0 0 0 0 0 0 0 0 0 0 0 0 0.25 0"/>
<feBlend mode="normal" in2="shape" result="effect1_innerShadow_17_2"/>
</filter>
<linearGradient id="paint0_linear_17_2" x1="670.465" y1="467.491" x2="670.465" y2="713.635" gradientUnits="userSpaceOnUse">
<stop offset="0.532462" stop-color="#0359FF"/>
<stop offset="1" stop-color="#101F3C"/>
</linearGradient>
<linearGradient id="paint1_linear_17_2" x1="812.631" y1="475.478" x2="812.631" y2="701.359" gradientUnits="userSpaceOnUse">
<stop offset="0.295738" stop-color="#1EB9DB"/>
<stop offset="1" stop-color="#123BA6" stop-opacity="0.7"/>
</linearGradient>
<linearGradient id="paint2_linear_17_2" x1="973.131" y1="616.315" x2="973.131" y2="717.688" gradientUnits="userSpaceOnUse">
<stop stop-color="#6D83AF"/>
<stop offset="1" stop-color="#25ACD6"/>
</linearGradient>
<linearGradient id="paint3_linear_17_2" x1="538.895" y1="542.365" x2="490.895" y2="633.865" gradientUnits="userSpaceOnUse">
<stop stop-color="#2B64B3"/>
<stop offset="0.609375" stop-color="#51A7FC"/>
<stop offset="0.9999" stop-color="#3DEAF5"/>
</linearGradient>
<linearGradient id="paint4_linear_17_2" x1="611.895" y1="392.618" x2="610.895" y2="536.365" gradientUnits="userSpaceOnUse">
<stop stop-color="#2B64B3"/>
<stop offset="0.82143" stop-color="#3391DF"/>
</linearGradient>
</defs>
</svg>
