<svg width="422" height="541" viewBox="0 0 422 541" fill="none" xmlns="http://www.w3.org/2000/svg">
<path d="M316 320.107C277.204 341.014 244.762 382.815 243.25 391.357C241.738 399.899 248 401.607 252.25 398.357C256.5 395.107 300.375 350.357 300.375 350.357C323.125 334.607 340.125 353.607 334.375 374.107C303.875 429.857 234 493.107 219.5 497.857V478.607C266.5 445.607 313.625 376.732 315.25 374.107C316.75 366.607 310.625 363.732 304.375 368.482C303.079 369.467 264.245 416.383 250.25 422.107C236.255 427.831 216.5 419.232 224 391.357C231.5 363.482 279.375 315.607 307.875 304.357L316 320.107Z" fill="#3567A6"/>
<path d="M185.5 374.357V394.112L201.386 398.357L204.435 391.316C204.589 390.96 204.523 390.546 204.266 390.256L188.433 372.357H187.5C186.395 372.357 185.5 373.252 185.5 374.357Z" fill="#3567A6"/>
<path fill-rule="evenodd" clip-rule="evenodd" d="M188.913 489.651C121.223 433.158 71.5922 356.713 54.4697 304.308L72.5302 298.407C87.1151 343.045 128.272 408.745 185.5 461.396V390.857H204.5V502.659L188.913 489.651Z" fill="#3567A6"/>
<path d="M166.25 453.607C183.342 464.124 187.867 463.768 192.25 446.607" stroke="#3567A6" stroke-width="5"/>
<path d="M217.5 279.466V253.107H236.5V266.107L221.942 280.607L221.552 281.068C220.922 281.812 219.847 281.994 219.007 281.498L218.482 281.188C217.874 280.828 217.5 280.173 217.5 279.466Z" fill="#3567A6"/>
<path d="M274.331 205.317C272.701 197.683 271.166 194.479 266.63 191.88L280.459 195.195L274.331 205.317Z" fill="#3567A6"/>
<path d="M243.626 193.474C237.211 197.921 234.846 200.572 234.196 205.759L229.514 191.36L243.626 193.474Z" fill="#3567A6"/>
<path d="M302.125 156.732C307.138 156.851 308.556 159.23 309.125 166.732" stroke="#3567A6" stroke-width="5"/>
<path d="M227 165.107L239.5 156.607" stroke="#3567A6" stroke-width="5"/>
<path fill-rule="evenodd" clip-rule="evenodd" d="M217.5 142.795V150.357V186.911V260.357H236.5V196.411H275.047L258.289 214.377L272.182 227.337L337.947 156.837L349.455 144.5H348.688V140.857H331H227H219.079V142.795H217.5ZM236.5 177.411H292.771L309.146 159.857H236.5V177.411Z" fill="#3567A6"/>
<path fill-rule="evenodd" clip-rule="evenodd" d="M219.079 142.795V140.857C218.135 141.055 217.522 141.901 217.5 142.795H219.079Z" fill="#3567A6"/>
<path d="M348.688 145.323V140.859C350.093 141.154 350.765 142.886 349.847 144.069L348.688 145.323Z" fill="#3567A6"/>
<path d="M200.338 281.261L183.312 262.357L202.5 255.42L204.187 257.17V260.607V279.399C204.187 279.759 203.994 280.092 203.68 280.269L201.573 281.462C201.165 281.693 200.652 281.609 200.338 281.261Z" fill="#3567A6"/>
<path d="M117.75 156.857C116.466 156.717 112.945 163.045 113.75 165.107" stroke="#3567A6" stroke-width="5"/>
<path fill-rule="evenodd" clip-rule="evenodd" d="M75.502 145.373L86.0098 156.79L190.01 269.79L203.99 256.924L114.654 159.857H204V140.857H92.9999H75.502V145.373Z" fill="#3567A6"/>
<path d="M75.502 145.375V140.855C74.0968 141.153 73.4249 142.907 74.3429 144.105L75.502 145.375Z" fill="#3567A6"/>
<path fill-rule="evenodd" clip-rule="evenodd" d="M111.617 79.5088L111.672 79.5781C97.6177 91.1476 85.0752 98.3757 71.3001 101.975C54.0385 106.485 33.8672 105.547 4.9402 98.5332L2.82278 113.451L2.90725 113.471C-13.8499 291.611 61.8842 443.165 211.059 540.415L211.207 540.643L211.308 540.577L211.409 540.643L211.557 540.415C361.104 442.922 436.844 290.853 419.581 112.136L419.491 112.145L417.559 98.5332C388.632 105.547 368.461 106.485 351.2 101.975C336.575 98.1538 323.34 90.2426 308.211 77.3887L300.018 69.7383L299.822 69.9477L299.709 69.843L295.707 74.1827C264.906 104.737 230.53 113.631 199.905 110.429C171.53 107.463 146.234 94.097 129.826 77.4729L125.57 72.8569C124.816 71.9795 124.087 71.0953 123.383 70.2053L123.234 70.3233L122.791 69.843C119.835 72.5682 116.965 75.1179 114.16 77.4975L111.617 79.5088ZM386.544 119.152C372.124 120.431 359.386 119.617 347.408 116.488C330.518 112.075 315.786 103.223 300.38 90.403C267.807 119.735 231.397 128.803 198.345 125.348C168.044 122.18 140.688 108.5 121.835 90.6397C106.532 103.332 91.8772 112.102 75.092 116.488C63.0601 119.631 50.2618 120.438 35.7621 119.134C34.8612 119.503 33.8113 120.146 32.79 121.126L211.392 311.853L389.666 121.313C388.601 120.243 387.492 119.546 386.544 119.152ZM15.7192 171.579C18.7358 316.233 87.7917 438.881 211.308 522.57C334.706 438.961 403.748 316.467 406.888 171.994C405.907 170.763 404.863 169.822 403.83 169.113L211.406 374.777L18.6694 168.956C17.6787 169.603 16.6736 170.461 15.7192 171.579ZM4.64945 98.4625L4.64665 98.4698L4.64847 98.4623L4.64945 98.4625ZM417.85 98.4625L417.853 98.4698L417.851 98.4623L417.85 98.4625Z" fill="#3567A6"/>
<path d="M209.052 4.1922C210.211 2.37671 212.848 2.33761 214.061 4.11794L226.743 22.7448C227.224 23.4524 227.985 23.9204 228.834 24.0312L242.007 25.7506C244.466 26.0716 245.496 29.0685 243.754 30.8333L231.523 43.2197C230.877 43.8738 230.566 44.7878 230.681 45.6998L232.74 62.1752C233.05 64.6502 230.379 66.4 228.234 65.1281L212.98 56.0863C212.064 55.5427 210.927 55.5266 209.995 56.0438L194.285 64.7617C191.955 66.0548 189.221 63.8943 189.941 61.3283L193.537 48.5074C193.824 47.4847 193.549 46.3867 192.813 45.6203L178.655 30.8633C176.943 29.0793 178.003 26.1068 180.457 25.8083L195.095 24.0279C195.985 23.9197 196.779 23.4194 197.261 22.664L209.052 4.1922Z" fill="#ECB06A"/>
</svg>
