<svg width="1442" height="892" viewBox="0 0 1442 892" fill="none" xmlns="http://www.w3.org/2000/svg">
<rect x="1041.5" y="631.438" width="9" height="9" stroke="black"/>
<rect x="1041.5" y="641.438" width="9" height="9" stroke="black"/>
<rect x="1021.5" y="631.438" width="19" height="19" stroke="black"/>
<rect x="1021.5" y="651.438" width="29" height="29" stroke="black"/>
<rect x="1051.5" y="631.438" width="49" height="49" stroke="black"/>
<rect x="1021.5" y="551.438" width="79" height="79" stroke="black"/>
<rect x="891.5" y="551.438" width="129" height="129" stroke="black"/>
<rect x="891.5" y="681.438" width="209" height="209" stroke="black"/>
<rect x="1101.5" y="551.438" width="339" height="339" stroke="black"/>
<rect x="891.5" y="1.4375" width="549" height="549" stroke="black"/>
<rect x="1.5" y="1.4375" width="889" height="889" stroke="black"/>
<circle cx="1046" cy="635.938" r="4.5" stroke="black"/>
<circle cx="1046" cy="645.938" r="4.5" stroke="black"/>
<circle cx="1031" cy="640.938" r="9.5" stroke="black"/>
<circle cx="1036" cy="665.938" r="14.5" stroke="black"/>
<circle cx="1076" cy="655.938" r="24.5" stroke="black"/>
<circle cx="1061" cy="590.938" r="39.5" stroke="black"/>
<circle cx="956" cy="615.938" r="64.5" stroke="black"/>
<circle cx="996" cy="785.938" r="104.5" stroke="black"/>
<circle cx="1271" cy="720.938" r="169.5" stroke="black"/>
<circle cx="1166" cy="275.938" r="274.5" stroke="black"/>
<circle cx="446" cy="445.938" r="444.5" stroke="black"/>
<path fill-rule="evenodd" clip-rule="evenodd" d="M891 1.4375C399.743 1.4375 1.5 399.68 1.5 890.938H0.5C0.5 399.128 399.19 0.4375 891 0.4375C1195.03 0.4375 1441.5 246.905 1441.5 550.938C1441.5 738.99 1289.05 891.438 1101 891.438C984.744 891.438 890.5 797.193 890.5 680.938C890.5 608.864 948.927 550.438 1021 550.438C1065.46 550.438 1101.5 586.479 1101.5 630.938C1101.5 658.828 1078.89 681.438 1051 681.438C1034.16 681.438 1020.5 667.782 1020.5 650.938C1020.5 639.616 1029.68 630.438 1041 630.438C1046.8 630.438 1051.5 635.138 1051.5 640.938C1051.5 646.737 1046.8 651.438 1041 651.438V650.438C1046.25 650.438 1050.5 646.184 1050.5 640.938C1050.5 635.691 1046.25 631.438 1041 631.438C1030.23 631.438 1021.5 640.168 1021.5 650.938C1021.5 667.23 1034.71 680.438 1051 680.438C1078.34 680.438 1100.5 658.276 1100.5 630.938C1100.5 587.031 1064.91 551.438 1021 551.438C949.479 551.438 891.5 609.417 891.5 680.938C891.5 796.641 985.296 890.438 1101 890.438C1288.5 890.438 1440.5 738.438 1440.5 550.938C1440.5 247.457 1194.48 1.4375 891 1.4375Z" fill="#DC0C0C"/>
</svg>
