<svg width="464" height="464" viewBox="0 0 464 464" fill="none" xmlns="http://www.w3.org/2000/svg">
<path fill-rule="evenodd" clip-rule="evenodd" d="M221.925 99.1407C252.183 75.4959 295.53 73.4166 328.387 96.8502L338.157 103.818L318.821 130.93C356.937 135.607 389.058 164.787 395.722 204.591L397.703 216.426L364.859 221.925C388.504 252.183 390.583 295.53 367.15 328.387L360.182 338.157L333.07 318.821C328.393 356.937 299.213 389.058 259.409 395.722L247.574 397.703L242.075 364.859C211.817 388.504 168.47 390.583 135.613 367.15L125.843 360.182L145.179 333.07C107.063 328.393 74.9421 299.213 68.2784 259.409L66.2971 247.574L99.1407 242.075C75.4959 211.817 73.4166 168.47 96.8503 135.613L103.818 125.843L130.93 145.179C135.607 107.063 164.787 74.9421 204.591 68.2784L216.426 66.2971L221.925 99.1407ZM201.398 121.881L196.901 95.0207C168.079 105.554 149.928 135.427 155.178 166.789C159.539 192.835 178.824 212.653 202.811 218.951C183.647 190.413 182.21 152.287 201.398 121.881ZM218.951 261.189C190.413 280.353 152.287 281.789 121.881 262.602L95.0207 267.099C105.554 295.921 135.427 314.072 166.789 308.822C192.835 304.461 212.653 285.176 218.951 261.189ZM261.189 245.049C280.353 273.587 281.789 311.713 262.602 342.119L267.099 368.979C295.921 358.446 314.072 328.573 308.822 297.211C304.461 271.165 285.176 251.347 261.189 245.049ZM245.049 202.811C273.587 183.647 311.713 182.21 342.119 201.398L368.979 196.901C358.446 168.079 328.573 149.928 297.211 155.178C271.165 159.539 251.347 178.824 245.049 202.811Z" fill="#2A27B8"/>
<path fill-rule="evenodd" clip-rule="evenodd" d="M146.653 129.682C157.559 92.862 191.642 66 232 66H244V99.3007C277.747 80.9765 320.842 86.083 349.38 114.62L357.865 123.106L334.318 146.653C371.138 157.559 398 191.642 398 232V244H364.699C383.023 277.747 377.917 320.842 349.38 349.38L340.894 357.865L317.347 334.318C306.441 371.138 272.358 398 232 398H220V364.699C186.253 383.023 143.158 377.917 114.62 349.38L106.135 340.894L129.682 317.347C92.8621 306.441 66 272.358 66 232V220H99.3007C80.9765 186.253 86.083 143.157 114.62 114.62L123.106 106.135L146.653 129.682ZM143.145 160.115L123.887 140.858C106.538 166.169 109.106 201.03 131.591 223.515C150.264 242.188 177.472 247.125 200.658 238.325C168.486 226.217 145.179 196.012 143.145 160.115ZM238.325 263.342C226.217 295.514 196.012 318.821 160.115 320.855L140.858 340.113C166.169 357.462 201.03 354.894 223.515 332.409C242.188 313.736 247.125 286.528 238.325 263.342ZM263.342 225.675C295.514 237.783 318.821 267.988 320.855 303.885L340.113 323.142C357.462 297.831 354.894 262.97 332.409 240.485C313.736 221.812 286.528 216.875 263.342 225.675ZM225.675 200.658C237.783 168.486 267.988 145.179 303.885 143.145L323.142 123.887C297.831 106.538 262.97 109.106 240.485 131.591C221.812 150.264 216.875 177.472 225.675 200.658Z" fill="#5C6BC0"/>
<circle cx="232" cy="232" r="25.5" fill="#8AE9DD" fill-opacity="0.4"/>
</svg>
