<svg width="1268" height="1016" viewBox="0 0 1268 1016" fill="none" xmlns="http://www.w3.org/2000/svg">
<rect width="1268" height="1016" fill="white"/>
<path d="M619.789 118C619.789 101.431 606.357 88 589.789 88H537.617C501.319 50.9728 450.736 28 394.789 28C338.841 28 288.258 50.9728 251.96 88H199.789C183.22 88 169.789 101.431 169.789 118H130.789C116.429 118 104.789 129.641 104.789 144V169.11C104.789 191.261 92.9714 211.729 73.7886 222.804L64.7886 228L73.7886 233.196C92.9714 244.271 104.789 264.739 104.789 286.89V312C104.789 326.359 116.429 338 130.789 338H169.789C169.789 354.569 183.22 368 199.789 368H251.96C288.258 405.027 338.841 428 394.789 428C450.736 428 501.319 405.027 537.617 368H589.789C606.357 368 619.789 354.569 619.789 338H658.789C673.148 338 684.789 326.359 684.789 312V286.89C684.789 264.739 696.606 244.271 715.789 233.196L724.789 228L715.789 222.804C696.606 211.729 684.789 191.261 684.789 169.11V144C684.789 129.641 673.148 118 658.789 118H619.789Z" fill="#222222" stroke="#FDFDFD" stroke-width="8"/>
<path d="M199.789 80C181.546 80 166.306 92.8547 162.632 110H130.789C112.011 110 96.7886 125.222 96.7886 144V169.11C96.7886 188.403 86.4962 206.229 69.7886 215.876L60.7886 221.072L48.7886 228L60.7886 234.928L69.7886 240.124C86.4962 249.771 96.7886 267.597 96.7886 286.89V312C96.7886 330.778 112.011 346 130.789 346H162.632C166.306 363.145 181.546 376 199.789 376H248.638C286.195 413.09 337.823 436 394.789 436C451.754 436 503.383 413.09 540.939 376H589.789C608.031 376 623.271 363.145 626.945 346H658.789C677.566 346 692.789 330.778 692.789 312V286.89C692.789 267.597 703.081 249.771 719.789 240.124L728.789 234.928L740.789 228L728.789 221.072L719.789 215.876C703.081 206.229 692.789 188.403 692.789 169.11V144C692.789 125.222 677.566 110 658.789 110H626.945C623.271 92.8547 608.031 80 589.789 80H540.939C503.383 42.9101 451.754 20 394.789 20C337.823 20 286.195 42.9101 248.638 80H199.789Z" stroke="#222222" stroke-width="16"/>
<path d="M330 553.597L119.144 614.465V633H89.0795L85.1001 643.17C71.7868 677.193 64.7886 707.842 64.7886 739C64.7886 770.158 71.7868 800.807 85.1001 834.83L89.0795 845H119.144V863.535L330 924.403L540.856 863.535V845H570.92L574.9 834.83C588.213 800.807 595.211 770.158 595.211 739C595.211 707.842 588.213 677.193 574.9 643.17L570.92 633H540.856V614.465L330 553.597Z" fill="#222222" stroke="#FDFDFD" stroke-width="6"/>
<path d="M332.219 545.911L330 545.27L327.781 545.911L116.926 606.779L111.144 608.448V614.465V625H89.0795H83.6193L81.6296 630.085L77.6502 640.254C64.084 674.923 56.7886 706.58 56.7886 739C56.7886 771.42 64.084 803.076 77.6502 837.746L81.6296 847.915L83.6193 853H89.0795H111.144V863.535V869.552L116.926 871.221L327.781 932.089L330 932.73L332.219 932.089L543.075 871.221L548.856 869.552V863.535V853H570.92H576.381L578.37 847.915L582.35 837.746C595.916 803.076 603.211 771.42 603.211 739C603.211 706.58 595.916 674.924 582.35 640.254L578.37 630.085L576.381 625H570.92H548.856V614.465V608.448L543.075 606.779L332.219 545.911Z" stroke="#222222" stroke-width="16"/>
<path d="M905.411 382.053L907.616 383.688L909.44 381.636L927.7 361.091C952.761 332.895 996.816 332.895 1021.88 361.091L1040.14 381.636L1041.96 383.688L1044.17 382.053L1046.02 380.678C1065 366.61 1091.62 381.977 1088.92 405.447L1088.66 407.742L1088.35 410.469L1091.04 411.023L1117.96 416.564C1154.91 424.17 1176.94 462.322 1165.05 498.124L1156.39 524.21L1155.52 526.815L1158.04 527.908L1160.16 528.827C1181.83 538.23 1181.83 568.964 1160.16 578.366L1158.04 579.286L1155.52 580.378L1156.39 582.983L1165.05 609.069C1176.94 644.871 1154.91 683.024 1117.96 690.629L1091.04 696.171L1088.35 696.724L1088.66 699.451L1088.92 701.746C1091.62 725.216 1065 740.583 1046.02 726.516L1044.17 725.14L1041.96 723.506L1040.14 725.557L1021.88 746.102C996.816 774.298 952.761 774.298 927.7 746.102L909.44 725.557L907.616 723.506L905.411 725.14L903.555 726.516C884.576 740.583 857.96 725.216 860.653 701.746L860.916 699.451L861.229 696.724L858.541 696.171L831.618 690.629C794.669 683.024 772.642 644.871 784.53 609.07L793.192 582.983L794.057 580.378L791.539 579.286L789.419 578.366C767.747 568.964 767.747 538.23 789.419 528.827L791.539 527.908L794.057 526.815L793.192 524.21L784.53 498.124C772.642 462.322 794.669 424.17 831.618 416.564L858.541 411.023L861.229 410.469L860.916 407.742L860.653 405.447C857.96 381.977 884.576 366.61 903.555 380.678L905.411 382.053Z" fill="#222222" stroke="#FDFDFD" stroke-width="6"/>
<path d="M919.478 353.784L905.872 369.092C881.057 355.122 849.771 373.186 849.461 401.661L829.401 405.79C786 414.724 760.127 459.538 774.09 501.59L780.544 521.027C756.039 535.533 756.039 571.66 780.544 586.166L774.09 605.603C760.127 647.656 786 692.47 829.401 701.403L849.461 705.532C849.771 734.008 881.057 752.071 905.872 738.102L919.478 753.41C948.915 786.529 1000.66 786.529 1030.1 753.41L1043.7 738.102C1068.52 752.071 1099.81 734.008 1100.12 705.532L1120.18 701.403C1163.58 692.47 1189.45 647.656 1175.49 605.603L1169.03 586.166C1193.54 571.66 1193.54 535.533 1169.03 521.027L1175.49 501.59C1189.45 459.538 1163.58 414.724 1120.18 405.79L1100.12 401.661C1099.81 373.186 1068.52 355.122 1043.7 369.092L1030.1 353.784C1000.66 320.665 948.915 320.665 919.478 353.784Z" stroke="#222222" stroke-width="16"/>
</svg>
