<svg width="1100" height="946" viewBox="0 0 1100 946" fill="none" xmlns="http://www.w3.org/2000/svg">
<rect width="1100" height="946" fill="#1E1E1E"/>
<rect width="1100" height="946" fill="#414141"/>
<path d="M787.886 434.169L776.659 401.5H741.259L718.437 467.638L753.856 450.569L758.859 434.5L762.481 446.412L787.886 434.169Z" fill="white"/>
<path d="M621.267 514.467V401.5H588.467V530.274L621.267 514.467Z" fill="white"/>
<path d="M463.914 457.1C464.082 456.554 464.258 456.015 464.442 455.482L428.316 472.892C428.386 481.883 430.052 490.619 433.314 499.1C436.647 507.633 441.381 515.367 447.514 522.3C453.781 529.1 461.181 534.567 469.714 538.7C478.381 542.7 488.047 544.7 498.714 544.7C508.981 544.7 518.381 542.767 526.914 538.9C535.581 534.9 543.114 529.567 549.514 522.9C555.914 516.1 560.847 508.433 564.314 499.9C567.781 491.367 569.514 482.367 569.514 472.9C569.514 463.967 567.847 455.233 564.514 446.7C561.181 438.033 556.381 430.233 550.114 423.3C548.179 421.112 546.117 419.07 543.93 417.175L512.493 432.325C513.248 432.622 513.988 432.947 514.714 433.3C519.381 435.567 523.314 438.767 526.514 442.9C529.714 446.9 532.114 451.433 533.714 456.5C535.314 461.567 536.114 466.833 536.114 472.3C536.114 477.633 535.314 482.9 533.714 488.1C532.247 493.167 529.981 497.767 526.914 501.9C523.847 506.033 519.981 509.367 515.314 511.9C510.647 514.3 505.181 515.5 498.914 515.5C492.914 515.5 487.581 514.3 482.914 511.9C478.247 509.5 474.314 506.3 471.114 502.3C468.047 498.3 465.714 493.767 464.114 488.7C462.514 483.5 461.714 478.167 461.714 472.7C461.714 467.367 462.447 462.167 463.914 457.1Z" fill="white"/>
<path d="M409.3 482.056L376.5 497.864V543.5H409.3V482.056Z" fill="white"/>
<path d="M287.1 540.948L319.9 525.141V543.5H287.1V540.948Z" fill="white"/>
<path d="M735.427 488.654L734.821 490.6H736.859H770.459H772.483L771.894 488.664L761.351 453.983L784.307 442.919L818.358 542H787.928L777.277 511.21L776.928 510.2H775.859H731.659H730.585L730.239 511.218L719.785 542H689.364L711.435 478.039L743.551 462.561L735.427 488.654ZM584.967 542V538.987L632.25 516.2H683.567V542H584.967Z" stroke="#FF932F" stroke-width="3"/>
<path d="M523.914 412.961C527.381 414.561 530.644 416.396 533.706 418.465L497.271 436.024C496.496 435.982 495.711 435.961 494.914 435.961C488.647 435.961 483.181 437.161 478.514 439.561C473.981 441.961 470.114 445.228 466.914 449.361C466.42 450.005 465.946 450.665 465.49 451.34L424.671 471.012C425.342 464.207 426.956 457.657 429.514 451.361C433.114 442.828 438.047 435.228 444.314 428.561C450.714 421.761 458.247 416.428 466.914 412.561C475.581 408.695 485.047 406.761 495.314 406.761C505.847 406.761 515.381 408.828 523.914 412.961Z" fill="#FF932F"/>
<path d="M405.3 407.561V480.347L372.5 496.154V491.361H315.9V523.432L283.1 539.239V407.561H315.9V462.561H372.5V407.561H405.3Z" fill="#FF932F"/>
</svg>
