<svg width="24" height="24" viewBox="0 0 24 24" fill="none" xmlns="http://www.w3.org/2000/svg">
<g clip-path="url(#clip0_76_79)">
<rect width="24" height="24" fill="white"/>
<path d="M12.05 23.95V15.05H14.95V23.95H12.05ZM11.95 15.05V23.95H9.05V15.05H11.95ZM14.8793 14.95H12.05V12.1207L14.8793 14.95ZM14.95 14.8793L12.1207 12.05H14.95V14.8793ZM15.05 14.95V12.05H23.95V14.95H15.05ZM23.95 11.95H15.05V9.05H23.95V11.95ZM15.1207 15.05H23.95V23.8793L15.1207 15.05ZM15.05 15.1207L23.8793 23.95H15.05V15.1207ZM8.95 15.1207V23.95H6H0.120709L8.95 15.1207ZM8.87929 15.05L0.05 23.8793V18V15.05H8.87929ZM8.95 14.95H0.05V12.05H8.95V14.95ZM8.95 11.95H0.05V9.05H8.95V11.95ZM8.87929 8.95H0.05V6V0.120711L8.87929 8.95ZM8.95 8.87929L0.120711 0.05H8.95V8.87929ZM9.05 8.95V0.05H11.95V8.95H9.05ZM12.05 8.95V0.05H14.95V8.95H12.05ZM15.05 8.87929V0.05H18H23.8793L15.05 8.87929ZM15.1207 8.95L23.95 0.120709V8.95H15.1207ZM14.95 9.12071V11.95H12.1207L14.95 9.12071ZM14.8793 9.05L12.05 11.8793V9.05H14.8793ZM9.12071 9.05H11.95V11.8793L9.12071 9.05ZM9.05 9.12071L11.8793 11.95H9.05V9.12071ZM9.05 14.8793V12.05H11.8793L9.05 14.8793ZM11.95 12.1207V14.95H9.12071L11.95 12.1207Z" stroke="black" stroke-opacity="0.25" stroke-width="0.1"/>
<rect x="3.05" y="3.05" width="17.9" height="17.9" rx="0.95" stroke="black" stroke-opacity="0.25" stroke-width="0.1"/>
<rect x="2.05" y="4.05" width="19.9" height="15.9" rx="0.95" stroke="black" stroke-opacity="0.25" stroke-width="0.1"/>
<rect x="4.05" y="2.05" width="15.9" height="19.9" rx="0.95" stroke="black" stroke-opacity="0.25" stroke-width="0.1"/>
<circle cx="12" cy="12" r="9.95" stroke="black" stroke-opacity="0.25" stroke-width="0.1"/>
<path fill-rule="evenodd" clip-rule="evenodd" d="M14 9.5C14 11.9853 11.9853 14 9.5 14C7.01472 14 5 11.9853 5 9.5C5 7.01472 7.01472 5 9.5 5C11.9853 5 14 7.01472 14 9.5ZM13.4796 14.6397C12.3799 15.4924 10.9992 16 9.5 16C5.91015 16 3 13.0899 3 9.5C3 5.91015 5.91015 3 9.5 3C13.0899 3 16 5.91015 16 9.5C16 10.8687 15.5769 12.1387 14.8544 13.1862L21.2665 19.5982L19.8523 21.0124L13.4796 14.6397Z" fill="black"/>
</g>
<defs>
<clipPath id="clip0_76_79">
<rect width="24" height="24" fill="white"/>
</clipPath>
</defs>
</svg>
