<svg width="472" height="500" viewBox="0 0 472 500" fill="none" xmlns="http://www.w3.org/2000/svg">
<g clip-path="url(#clip0_12_152)">
<rect width="472" height="500" fill="white"/>
<path d="M-0.349365 -25L21.3013 -12.5M-0.349365 -25L-22 -12.5M-0.349365 -25V25M21.3013 -12.5V12.5M21.3013 -12.5L-22 12.5M21.3013 12.5L-0.349365 25M21.3013 12.5L-22 -12.5M21.3013 12.5L-0.349365 0M21.3013 12.5V37.5M21.3013 12.5L-22 37.5M-0.349365 25L-22 12.5M-0.349365 25L21.3013 37.5M-0.349365 25L-22 37.5M-0.349365 25V75M-22 12.5V-12.5M-22 12.5V37.5M-22 12.5L-0.349365 0M-22 12.5L21.3013 37.5M42.6506 -25L64.3013 -12.5M42.6506 -25L21 -12.5M42.6506 -25V25M64.3013 -12.5V12.5M64.3013 -12.5L21 12.5M64.3013 12.5L42.6506 25M64.3013 12.5L21 -12.5M64.3013 12.5L42.6506 0M64.3013 12.5V37.5M64.3013 12.5L21 37.5M42.6506 25L21 12.5M42.6506 25L64.3013 37.5M42.6506 25L21 37.5M42.6506 25V75M21 12.5V-12.5M21 12.5V37.5M21 12.5L42.6506 0M21 12.5L64.3013 37.5M85.6506 -25L107.301 -12.5M85.6506 -25L64 -12.5M85.6506 -25V25M107.301 -12.5V12.5M107.301 -12.5L64 12.5M107.301 12.5L85.6506 25M107.301 12.5L64 -12.5M107.301 12.5L85.6506 0M107.301 12.5V37.5M107.301 12.5L64 37.5M85.6506 25L64 12.5M85.6506 25L107.301 37.5M85.6506 25L64 37.5M85.6506 25V75M64 12.5V-12.5M64 12.5V37.5M64 12.5L85.6506 0M64 12.5L107.301 37.5M128.651 -25L150.301 -12.5M128.651 -25L107 -12.5M128.651 -25V25M150.301 -12.5V12.5M150.301 -12.5L107 12.5M150.301 12.5L128.651 25M150.301 12.5L107 -12.5M150.301 12.5L128.651 0M150.301 12.5V37.5M150.301 12.5L107 37.5M128.651 25L107 12.5M128.651 25L150.301 37.5M128.651 25L107 37.5M128.651 25V75M107 12.5V-12.5M107 12.5V37.5M107 12.5L128.651 0M107 12.5L150.301 37.5M171.651 -25L193.301 -12.5M171.651 -25L150 -12.5M171.651 -25V25M193.301 -12.5V12.5M193.301 -12.5L150 12.5M193.301 12.5L171.651 25M193.301 12.5L150 -12.5M193.301 12.5L171.651 0M193.301 12.5V37.5M193.301 12.5L150 37.5M171.651 25L150 12.5M171.651 25L193.301 37.5M171.651 25L150 37.5M171.651 25V75M150 12.5V-12.5M150 12.5V37.5M150 12.5L171.651 0M150 12.5L193.301 37.5M214.651 -25L236.301 -12.5M214.651 -25L193 -12.5M214.651 -25V25M236.301 -12.5V12.5M236.301 -12.5L193 12.5M236.301 12.5L214.651 25M236.301 12.5L193 -12.5M236.301 12.5L214.651 0M236.301 12.5V37.5M236.301 12.5L193 37.5M214.651 25L193 12.5M214.651 25L236.301 37.5M214.651 25L193 37.5M214.651 25V75M193 12.5V-12.5M193 12.5V37.5M193 12.5L214.651 0M193 12.5L236.301 37.5M257.651 -25L279.301 -12.5M257.651 -25L236 -12.5M257.651 -25V25M279.301 -12.5V12.5M279.301 -12.5L236 12.5M279.301 12.5L257.651 25M279.301 12.5L236 -12.5M279.301 12.5L257.651 0M279.301 12.5V37.5M279.301 12.5L236 37.5M257.651 25L236 12.5M257.651 25L279.301 37.5M257.651 25L236 37.5M257.651 25V75M236 12.5V-12.5M236 12.5V37.5M236 12.5L257.651 0M236 12.5L279.301 37.5M300.651 -25L322.301 -12.5M300.651 -25L279 -12.5M300.651 -25V25M322.301 -12.5V12.5M322.301 -12.5L279 12.5M322.301 12.5L300.651 25M322.301 12.5L279 -12.5M322.301 12.5L300.651 0M322.301 12.5V37.5M322.301 12.5L279 37.5M300.651 25L279 12.5M300.651 25L322.301 37.5M300.651 25L279 37.5M300.651 25V75M279 12.5V-12.5M279 12.5V37.5M279 12.5L300.651 0M279 12.5L322.301 37.5M343.651 -25L365.301 -12.5M343.651 -25L322 -12.5M343.651 -25V25M365.301 -12.5V12.5M365.301 -12.5L322 12.5M365.301 12.5L343.651 25M365.301 12.5L322 -12.5M365.301 12.5L343.651 0M365.301 12.5V37.5M365.301 12.5L322 37.5M343.651 25L322 12.5M343.651 25L365.301 37.5M343.651 25L322 37.5M343.651 25V75M322 12.5V-12.5M322 12.5V37.5M322 12.5L343.651 0M322 12.5L365.301 37.5M386.651 -25L408.301 -12.5M386.651 -25L365 -12.5M386.651 -25V25M408.301 -12.5V12.5M408.301 -12.5L365 12.5M408.301 12.5L386.651 25M408.301 12.5L365 -12.5M408.301 12.5L386.651 0M408.301 12.5V37.5M408.301 12.5L365 37.5M386.651 25L365 12.5M386.651 25L408.301 37.5M386.651 25L365 37.5M386.651 25V75M365 12.5V-12.5M365 12.5V37.5M365 12.5L386.651 0M365 12.5L408.301 37.5M429.651 -25L451.301 -12.5M429.651 -25L408 -12.5M429.651 -25V25M451.301 -12.5V12.5M451.301 -12.5L408 12.5M451.301 12.5L429.651 25M451.301 12.5L408 -12.5M451.301 12.5L429.651 0M451.301 12.5V37.5M451.301 12.5L408 37.5M429.651 25L408 12.5M429.651 25L451.301 37.5M429.651 25L408 37.5M429.651 25V75M408 12.5V-12.5M408 12.5V37.5M408 12.5L429.651 0M408 12.5L451.301 37.5M472.651 25L451 12.5M472.651 25V-25L451 -12.5V12.5M472.651 25L451 37.5M472.651 25V75M451 12.5V37.5M451 12.5L472.651 0V50M-0.349365 0V50M21.3013 37.5L-0.349365 50M21.3013 37.5V62.5M21.3013 37.5L-22 62.5M-0.349365 50L-22 37.5M-0.349365 50L21.3013 62.5M-0.349365 50L-22 62.5M-0.349365 50V100M-22 37.5V62.5M-22 37.5L21.3013 62.5M42.6506 0V50M64.3013 37.5L42.6506 50M64.3013 37.5V62.5M64.3013 37.5L21 62.5M42.6506 50L21 37.5M42.6506 50L64.3013 62.5M42.6506 50L21 62.5M42.6506 50V100M21 37.5V62.5M21 37.5L64.3013 62.5M85.6506 0V50M107.301 37.5L85.6506 50M107.301 37.5V62.5M107.301 37.5L64 62.5M85.6506 50L64 37.5M85.6506 50L107.301 62.5M85.6506 50L64 62.5M85.6506 50V100M64 37.5V62.5M64 37.5L107.301 62.5M128.651 0V50M150.301 37.5L128.651 50M150.301 37.5V62.5M150.301 37.5L107 62.5M128.651 50L107 37.5M128.651 50L150.301 62.5M128.651 50L107 62.5M128.651 50V100M107 37.5V62.5M107 37.5L150.301 62.5M171.651 0V50M193.301 37.5L171.651 50M193.301 37.5V62.5M193.301 37.5L150 62.5M171.651 50L150 37.5M171.651 50L193.301 62.5M171.651 50L150 62.5M171.651 50V100M150 37.5V62.5M150 37.5L193.301 62.5M214.651 0V50M236.301 37.5L214.651 50M236.301 37.5V62.5M236.301 37.5L193 62.5M214.651 50L193 37.5M214.651 50L236.301 62.5M214.651 50L193 62.5M214.651 50V100M193 37.5V62.5M193 37.5L236.301 62.5M257.651 0V50M279.301 37.5L257.651 50M279.301 37.5V62.5M279.301 37.5L236 62.5M257.651 50L236 37.5M257.651 50L279.301 62.5M257.651 50L236 62.5M257.651 50V100M236 37.5V62.5M236 37.5L279.301 62.5M300.651 0V50M322.301 37.5L300.651 50M322.301 37.5V62.5M322.301 37.5L279 62.5M300.651 50L279 37.5M300.651 50L322.301 62.5M300.651 50L279 62.5M300.651 50V100M279 37.5V62.5M279 37.5L322.301 62.5M343.651 0V50M365.301 37.5L343.651 50M365.301 37.5V62.5M365.301 37.5L322 62.5M343.651 50L322 37.5M343.651 50L365.301 62.5M343.651 50L322 62.5M343.651 50V100M322 37.5V62.5M322 37.5L365.301 62.5M386.651 0V50M408.301 37.5L386.651 50M408.301 37.5V62.5M408.301 37.5L365 62.5M386.651 50L365 37.5M386.651 50L408.301 62.5M386.651 50L365 62.5M386.651 50V100M365 37.5V62.5M365 37.5L408.301 62.5M429.651 0V50M451.301 37.5L429.651 50M451.301 37.5V62.5M451.301 37.5L408 62.5M429.651 50L408 37.5M429.651 50L451.301 62.5M429.651 50L408 62.5M429.651 50V100M408 37.5V62.5M408 37.5L451.301 62.5M472.651 50L451 37.5M472.651 50L451 62.5M472.651 50V100M451 37.5V62.5M21.3013 62.5L-0.349365 75M21.3013 62.5V87.5M21.3013 62.5L-22 87.5M-0.349365 75L-22 62.5M-0.349365 75L21.3013 87.5M-0.349365 75L-22 87.5M-0.349365 75V125M-22 62.5V87.5M-22 62.5L21.3013 87.5M64.3013 62.5L42.6506 75M64.3013 62.5V87.5M64.3013 62.5L21 87.5M42.6506 75L21 62.5M42.6506 75L64.3013 87.5M42.6506 75L21 87.5M42.6506 75V125M21 62.5V87.5M21 62.5L64.3013 87.5M107.301 62.5L85.6506 75M107.301 62.5V87.5M107.301 62.5L64 87.5M85.6506 75L64 62.5M85.6506 75L107.301 87.5M85.6506 75L64 87.5M85.6506 75V125M64 62.5V87.5M64 62.5L107.301 87.5M150.301 62.5L128.651 75M150.301 62.5V87.5M150.301 62.5L107 87.5M128.651 75L107 62.5M128.651 75L150.301 87.5M128.651 75L107 87.5M128.651 75V125M107 62.5V87.5M107 62.5L150.301 87.5M193.301 62.5L171.651 75M193.301 62.5V87.5M193.301 62.5L150 87.5M171.651 75L150 62.5M171.651 75L193.301 87.5M171.651 75L150 87.5M171.651 75V125M150 62.5V87.5M150 62.5L193.301 87.5M236.301 62.5L214.651 75M236.301 62.5V87.5M236.301 62.5L193 87.5M214.651 75L193 62.5M214.651 75L236.301 87.5M214.651 75L193 87.5M214.651 75V125M193 62.5V87.5M193 62.5L236.301 87.5M279.301 62.5L257.651 75M279.301 62.5V87.5M279.301 62.5L236 87.5M257.651 75L236 62.5M257.651 75L279.301 87.5M257.651 75L236 87.5M257.651 75V125M236 62.5V87.5M236 62.5L279.301 87.5M322.301 62.5L300.651 75M322.301 62.5V87.5M322.301 62.5L279 87.5M300.651 75L279 62.5M300.651 75L322.301 87.5M300.651 75L279 87.5M300.651 75V125M279 62.5V87.5M279 62.5L322.301 87.5M365.301 62.5L343.651 75M365.301 62.5V87.5M365.301 62.5L322 87.5M343.651 75L322 62.5M343.651 75L365.301 87.5M343.651 75L322 87.5M343.651 75V125M322 62.5V87.5M322 62.5L365.301 87.5M408.301 62.5L386.651 75M408.301 62.5V87.5M408.301 62.5L365 87.5M386.651 75L365 62.5M386.651 75L408.301 87.5M386.651 75L365 87.5M386.651 75V125M365 62.5V87.5M365 62.5L408.301 87.5M451.301 62.5L429.651 75M451.301 62.5V87.5M451.301 62.5L408 87.5M429.651 75L408 62.5M429.651 75L451.301 87.5M429.651 75L408 87.5M429.651 75V125M408 62.5V87.5M408 62.5L451.301 87.5M472.651 75L451 62.5M472.651 75L451 87.5M472.651 75V125M451 62.5V87.5M21.3013 87.5L-0.349365 100M21.3013 87.5V112.5M21.3013 87.5L-22 112.5M-0.349365 100L-22 87.5M-0.349365 100L21.3013 112.5M-0.349365 100L-22 112.5M-0.349365 100V150M-22 87.5V112.5M-22 87.5L21.3013 112.5M64.3013 87.5L42.6506 100M64.3013 87.5V112.5M64.3013 87.5L21 112.5M42.6506 100L21 87.5M42.6506 100L64.3013 112.5M42.6506 100L21 112.5M42.6506 100V150M21 87.5V112.5M21 87.5L64.3013 112.5M107.301 87.5L85.6506 100M107.301 87.5V112.5M107.301 87.5L64 112.5M85.6506 100L64 87.5M85.6506 100L107.301 112.5M85.6506 100L64 112.5M85.6506 100V150M64 87.5V112.5M64 87.5L107.301 112.5M150.301 87.5L128.651 100M150.301 87.5V112.5M150.301 87.5L107 112.5M128.651 100L107 87.5M128.651 100L150.301 112.5M128.651 100L107 112.5M128.651 100V150M107 87.5V112.5M107 87.5L150.301 112.5M193.301 87.5L171.651 100M193.301 87.5V112.5M193.301 87.5L150 112.5M171.651 100L150 87.5M171.651 100L193.301 112.5M171.651 100L150 112.5M171.651 100V150M150 87.5V112.5M150 87.5L193.301 112.5M236.301 87.5L214.651 100M236.301 87.5V112.5M236.301 87.5L193 112.5M214.651 100L193 87.5M214.651 100L236.301 112.5M214.651 100L193 112.5M214.651 100V150M193 87.5V112.5M193 87.5L236.301 112.5M279.301 87.5L257.651 100M279.301 87.5V112.5M279.301 87.5L236 112.5M257.651 100L236 87.5M257.651 100L279.301 112.5M257.651 100L236 112.5M257.651 100V150M236 87.5V112.5M236 87.5L279.301 112.5M322.301 87.5L300.651 100M322.301 87.5V112.5M322.301 87.5L279 112.5M300.651 100L279 87.5M300.651 100L322.301 112.5M300.651 100L279 112.5M300.651 100V150M279 87.5V112.5M279 87.5L322.301 112.5M365.301 87.5L343.651 100M365.301 87.5V112.5M365.301 87.5L322 112.5M343.651 100L322 87.5M343.651 100L365.301 112.5M343.651 100L322 112.5M343.651 100V150M322 87.5V112.5M322 87.5L365.301 112.5M408.301 87.5L386.651 100M408.301 87.5V112.5M408.301 87.5L365 112.5M386.651 100L365 87.5M386.651 100L408.301 112.5M386.651 100L365 112.5M386.651 100V150M365 87.5V112.5M365 87.5L408.301 112.5M451.301 87.5L429.651 100M451.301 87.5V112.5M451.301 87.5L408 112.5M429.651 100L408 87.5M429.651 100L451.301 112.5M429.651 100L408 112.5M429.651 100V150M408 87.5V112.5M408 87.5L451.301 112.5M472.651 100L451 87.5M472.651 100L451 112.5M472.651 100V150M451 87.5V112.5M21.3013 112.5L-0.349365 125M21.3013 112.5V137.5M21.3013 112.5L-22 137.5M-0.349365 125L-22 112.5M-0.349365 125L21.3013 137.5M-0.349365 125L-22 137.5M-0.349365 125V175M-22 112.5V137.5M-22 112.5L21.3013 137.5M64.3013 112.5L42.6506 125M64.3013 112.5V137.5M64.3013 112.5L21 137.5M42.6506 125L21 112.5M42.6506 125L64.3013 137.5M42.6506 125L21 137.5M42.6506 125V175M21 112.5V137.5M21 112.5L64.3013 137.5M107.301 112.5L85.6506 125M107.301 112.5V137.5M107.301 112.5L64 137.5M85.6506 125L64 112.5M85.6506 125L107.301 137.5M85.6506 125L64 137.5M85.6506 125V175M64 112.5V137.5M64 112.5L107.301 137.5M150.301 112.5L128.651 125M150.301 112.5V137.5M150.301 112.5L107 137.5M128.651 125L107 112.5M128.651 125L150.301 137.5M128.651 125L107 137.5M128.651 125V175M107 112.5V137.5M107 112.5L150.301 137.5M193.301 112.5L171.651 125M193.301 112.5V137.5M193.301 112.5L150 137.5M171.651 125L150 112.5M171.651 125L193.301 137.5M171.651 125L150 137.5M171.651 125V175M150 112.5V137.5M150 112.5L193.301 137.5M236.301 112.5L214.651 125M236.301 112.5V137.5M236.301 112.5L193 137.5M214.651 125L193 112.5M214.651 125L236.301 137.5M214.651 125L193 137.5M214.651 125V175M193 112.5V137.5M193 112.5L236.301 137.5M279.301 112.5L257.651 125M279.301 112.5V137.5M279.301 112.5L236 137.5M257.651 125L236 112.5M257.651 125L279.301 137.5M257.651 125L236 137.5M257.651 125V175M236 112.5V137.5M236 112.5L279.301 137.5M322.301 112.5L300.651 125M322.301 112.5V137.5M322.301 112.5L279 137.5M300.651 125L279 112.5M300.651 125L322.301 137.5M300.651 125L279 137.5M300.651 125V175M279 112.5V137.5M279 112.5L322.301 137.5M365.301 112.5L343.651 125M365.301 112.5V137.5M365.301 112.5L322 137.5M343.651 125L322 112.5M343.651 125L365.301 137.5M343.651 125L322 137.5M343.651 125V175M322 112.5V137.5M322 112.5L365.301 137.5M408.301 112.5L386.651 125M408.301 112.5V137.5M408.301 112.5L365 137.5M386.651 125L365 112.5M386.651 125L408.301 137.5M386.651 125L365 137.5M386.651 125V175M365 112.5V137.5M365 112.5L408.301 137.5M451.301 112.5L429.651 125M451.301 112.5V137.5M451.301 112.5L408 137.5M429.651 125L408 112.5M429.651 125L451.301 137.5M429.651 125L408 137.5M429.651 125V175M408 112.5V137.5M408 112.5L451.301 137.5M472.651 125L451 112.5M472.651 125L451 137.5M472.651 125V175M451 112.5V137.5M21.3013 137.5L-0.349365 150M21.3013 137.5V162.5M21.3013 137.5L-22 162.5M-0.349365 150L-22 137.5M-0.349365 150L21.3013 162.5M-0.349365 150L-22 162.5M-0.349365 150V200M-22 137.5V162.5M-22 137.5L21.3013 162.5M64.3013 137.5L42.6506 150M64.3013 137.5V162.5M64.3013 137.5L21 162.5M42.6506 150L21 137.5M42.6506 150L64.3013 162.5M42.6506 150L21 162.5M42.6506 150V200M21 137.5V162.5M21 137.5L64.3013 162.5M107.301 137.5L85.6506 150M107.301 137.5V162.5M107.301 137.5L64 162.5M85.6506 150L64 137.5M85.6506 150L107.301 162.5M85.6506 150L64 162.5M85.6506 150V200M64 137.5V162.5M64 137.5L107.301 162.5M150.301 137.5L128.651 150M150.301 137.5V162.5M150.301 137.5L107 162.5M128.651 150L107 137.5M128.651 150L150.301 162.5M128.651 150L107 162.5M128.651 150V200M107 137.5V162.5M107 137.5L150.301 162.5M193.301 137.5L171.651 150M193.301 137.5V162.5M193.301 137.5L150 162.5M171.651 150L150 137.5M171.651 150L193.301 162.5M171.651 150L150 162.5M171.651 150V200M150 137.5V162.5M150 137.5L193.301 162.5M236.301 137.5L214.651 150M236.301 137.5V162.5M236.301 137.5L193 162.5M214.651 150L193 137.5M214.651 150L236.301 162.5M214.651 150L193 162.5M214.651 150V200M193 137.5V162.5M193 137.5L236.301 162.5M279.301 137.5L257.651 150M279.301 137.5V162.5M279.301 137.5L236 162.5M257.651 150L236 137.5M257.651 150L279.301 162.5M257.651 150L236 162.5M257.651 150V200M236 137.5V162.5M236 137.5L279.301 162.5M322.301 137.5L300.651 150M322.301 137.5V162.5M322.301 137.5L279 162.5M300.651 150L279 137.5M300.651 150L322.301 162.5M300.651 150L279 162.5M300.651 150V200M279 137.5V162.5M279 137.5L322.301 162.5M365.301 137.5L343.651 150M365.301 137.5V162.5M365.301 137.5L322 162.5M343.651 150L322 137.5M343.651 150L365.301 162.5M343.651 150L322 162.5M343.651 150V200M322 137.5V162.5M322 137.5L365.301 162.5M408.301 137.5L386.651 150M408.301 137.5V162.5M408.301 137.5L365 162.5M386.651 150L365 137.5M386.651 150L408.301 162.5M386.651 150L365 162.5M386.651 150V200M365 137.5V162.5M365 137.5L408.301 162.5M451.301 137.5L429.651 150M451.301 137.5V162.5M451.301 137.5L408 162.5M429.651 150L408 137.5M429.651 150L451.301 162.5M429.651 150L408 162.5M429.651 150V200M408 137.5V162.5M408 137.5L451.301 162.5M472.651 150L451 137.5M472.651 150L451 162.5M472.651 150V200M451 137.5V162.5M21.3013 162.5L-0.349365 175M21.3013 162.5V187.5M21.3013 162.5L-22 187.5M-0.349365 175L-22 162.5M-0.349365 175L21.3013 187.5M-0.349365 175L-22 187.5M-0.349365 175V225M-22 162.5V187.5M-22 162.5L21.3013 187.5M64.3013 162.5L42.6506 175M64.3013 162.5V187.5M64.3013 162.5L21 187.5M42.6506 175L21 162.5M42.6506 175L64.3013 187.5M42.6506 175L21 187.5M42.6506 175V225M21 162.5V187.5M21 162.5L64.3013 187.5M107.301 162.5L85.6506 175M107.301 162.5V187.5M107.301 162.5L64 187.5M85.6506 175L64 162.5M85.6506 175L107.301 187.5M85.6506 175L64 187.5M85.6506 175V225M64 162.5V187.5M64 162.5L107.301 187.5M150.301 162.5L128.651 175M150.301 162.5V187.5M150.301 162.5L107 187.5M128.651 175L107 162.5M128.651 175L150.301 187.5M128.651 175L107 187.5M128.651 175V225M107 162.5V187.5M107 162.5L150.301 187.5M193.301 162.5L171.651 175M193.301 162.5V187.5M193.301 162.5L150 187.5M171.651 175L150 162.5M171.651 175L193.301 187.5M171.651 175L150 187.5M171.651 175V225M150 162.5V187.5M150 162.5L193.301 187.5M236.301 162.5L214.651 175M236.301 162.5V187.5M236.301 162.5L193 187.5M214.651 175L193 162.5M214.651 175L236.301 187.5M214.651 175L193 187.5M214.651 175V225M193 162.5V187.5M193 162.5L236.301 187.5M279.301 162.5L257.651 175M279.301 162.5V187.5M279.301 162.5L236 187.5M257.651 175L236 162.5M257.651 175L279.301 187.5M257.651 175L236 187.5M257.651 175V225M236 162.5V187.5M236 162.5L279.301 187.5M322.301 162.5L300.651 175M322.301 162.5V187.5M322.301 162.5L279 187.5M300.651 175L279 162.5M300.651 175L322.301 187.5M300.651 175L279 187.5M300.651 175V225M279 162.5V187.5M279 162.5L322.301 187.5M365.301 162.5L343.651 175M365.301 162.5V187.5M365.301 162.5L322 187.5M343.651 175L322 162.5M343.651 175L365.301 187.5M343.651 175L322 187.5M343.651 175V225M322 162.5V187.5M322 162.5L365.301 187.5M408.301 162.5L386.651 175M408.301 162.5V187.5M408.301 162.5L365 187.5M386.651 175L365 162.5M386.651 175L408.301 187.5M386.651 175L365 187.5M386.651 175V225M365 162.5V187.5M365 162.5L408.301 187.5M451.301 162.5L429.651 175M451.301 162.5V187.5M451.301 162.5L408 187.5M429.651 175L408 162.5M429.651 175L451.301 187.5M429.651 175L408 187.5M429.651 175V225M408 162.5V187.5M408 162.5L451.301 187.5M472.651 175L451 162.5M472.651 175L451 187.5M472.651 175V225M451 162.5V187.5M21.3013 187.5L-0.349365 200M21.3013 187.5V212.5M21.3013 187.5L-22 212.5M-0.349365 200L-22 187.5M-0.349365 200L21.3013 212.5M-0.349365 200L-22 212.5M-0.349365 200V250M-22 187.5V212.5M-22 187.5L21.3013 212.5M64.3013 187.5L42.6506 200M64.3013 187.5V212.5M64.3013 187.5L21 212.5M42.6506 200L21 187.5M42.6506 200L64.3013 212.5M42.6506 200L21 212.5M42.6506 200V250M21 187.5V212.5M21 187.5L64.3013 212.5M107.301 187.5L85.6506 200M107.301 187.5V212.5M107.301 187.5L64 212.5M85.6506 200L64 187.5M85.6506 200L107.301 212.5M85.6506 200L64 212.5M85.6506 200V250M64 187.5V212.5M64 187.5L107.301 212.5M150.301 187.5L128.651 200M150.301 187.5V212.5M150.301 187.5L107 212.5M128.651 200L107 187.5M128.651 200L150.301 212.5M128.651 200L107 212.5M128.651 200V250M107 187.5V212.5M107 187.5L150.301 212.5M193.301 187.5L171.651 200M193.301 187.5V212.5M193.301 187.5L150 212.5M171.651 200L150 187.5M171.651 200L193.301 212.5M171.651 200L150 212.5M171.651 200V250M150 187.5V212.5M150 187.5L193.301 212.5M236.301 187.5L214.651 200M236.301 187.5V212.5M236.301 187.5L193 212.5M214.651 200L193 187.5M214.651 200L236.301 212.5M214.651 200L193 212.5M214.651 200V250M193 187.5V212.5M193 187.5L236.301 212.5M279.301 187.5L257.651 200M279.301 187.5V212.5M279.301 187.5L236 212.5M257.651 200L236 187.5M257.651 200L279.301 212.5M257.651 200L236 212.5M257.651 200V250M236 187.5V212.5M236 187.5L279.301 212.5M322.301 187.5L300.651 200M322.301 187.5V212.5M322.301 187.5L279 212.5M300.651 200L279 187.5M300.651 200L322.301 212.5M300.651 200L279 212.5M300.651 200V250M279 187.5V212.5M279 187.5L322.301 212.5M365.301 187.5L343.651 200M365.301 187.5V212.5M365.301 187.5L322 212.5M343.651 200L322 187.5M343.651 200L365.301 212.5M343.651 200L322 212.5M343.651 200V250M322 187.5V212.5M322 187.5L365.301 212.5M408.301 187.5L386.651 200M408.301 187.5V212.5M408.301 187.5L365 212.5M386.651 200L365 187.5M386.651 200L408.301 212.5M386.651 200L365 212.5M386.651 200V250M365 187.5V212.5M365 187.5L408.301 212.5M451.301 187.5L429.651 200M451.301 187.5V212.5M451.301 187.5L408 212.5M429.651 200L408 187.5M429.651 200L451.301 212.5M429.651 200L408 212.5M429.651 200V250M408 187.5V212.5M408 187.5L451.301 212.5M472.651 200L451 187.5M472.651 200L451 212.5M472.651 200V250M451 187.5V212.5M21.3013 212.5L-0.349365 225M21.3013 212.5V237.5M21.3013 212.5L-22 237.5M-0.349365 225L-22 212.5M-0.349365 225L21.3013 237.5M-0.349365 225L-22 237.5M-0.349365 225V275M-22 212.5V237.5M-22 212.5L21.3013 237.5M64.3013 212.5L42.6506 225M64.3013 212.5V237.5M64.3013 212.5L21 237.5M42.6506 225L21 212.5M42.6506 225L64.3013 237.5M42.6506 225L21 237.5M42.6506 225V275M21 212.5V237.5M21 212.5L64.3013 237.5M107.301 212.5L85.6506 225M107.301 212.5V237.5M107.301 212.5L64 237.5M85.6506 225L64 212.5M85.6506 225L107.301 237.5M85.6506 225L64 237.5M85.6506 225V275M64 212.5V237.5M64 212.5L107.301 237.5M150.301 212.5L128.651 225M150.301 212.5V237.5M150.301 212.5L107 237.5M128.651 225L107 212.5M128.651 225L150.301 237.5M128.651 225L107 237.5M128.651 225V275M107 212.5V237.5M107 212.5L150.301 237.5M193.301 212.5L171.651 225M193.301 212.5V237.5M193.301 212.5L150 237.5M171.651 225L150 212.5M171.651 225L193.301 237.5M171.651 225L150 237.5M171.651 225V275M150 212.5V237.5M150 212.5L193.301 237.5M236.301 212.5L214.651 225M236.301 212.5V237.5M236.301 212.5L193 237.5M214.651 225L193 212.5M214.651 225L236.301 237.5M214.651 225L193 237.5M214.651 225V275M193 212.5V237.5M193 212.5L236.301 237.5M279.301 212.5L257.651 225M279.301 212.5V237.5M279.301 212.5L236 237.5M257.651 225L236 212.5M257.651 225L279.301 237.5M257.651 225L236 237.5M257.651 225V275M236 212.5V237.5M236 212.5L279.301 237.5M322.301 212.5L300.651 225M322.301 212.5V237.5M322.301 212.5L279 237.5M300.651 225L279 212.5M300.651 225L322.301 237.5M300.651 225L279 237.5M300.651 225V275M279 212.5V237.5M279 212.5L322.301 237.5M365.301 212.5L343.651 225M365.301 212.5V237.5M365.301 212.5L322 237.5M343.651 225L322 212.5M343.651 225L365.301 237.5M343.651 225L322 237.5M343.651 225V275M322 212.5V237.5M322 212.5L365.301 237.5M408.301 212.5L386.651 225M408.301 212.5V237.5M408.301 212.5L365 237.5M386.651 225L365 212.5M386.651 225L408.301 237.5M386.651 225L365 237.5M386.651 225V275M365 212.5V237.5M365 212.5L408.301 237.5M451.301 212.5L429.651 225M451.301 212.5V237.5M451.301 212.5L408 237.5M429.651 225L408 212.5M429.651 225L451.301 237.5M429.651 225L408 237.5M429.651 225V275M408 212.5V237.5M408 212.5L451.301 237.5M472.651 225L451 212.5M472.651 225L451 237.5M472.651 225V275M451 212.5V237.5M21.3013 237.5L-0.349365 250M21.3013 237.5V262.5M21.3013 237.5L-22 262.5M-0.349365 250L-22 237.5M-0.349365 250L21.3013 262.5M-0.349365 250L-22 262.5M-0.349365 250V300M-22 237.5V262.5M-22 237.5L21.3013 262.5M64.3013 237.5L42.6506 250M64.3013 237.5V262.5M64.3013 237.5L21 262.5M42.6506 250L21 237.5M42.6506 250L64.3013 262.5M42.6506 250L21 262.5M42.6506 250V300M21 237.5V262.5M21 237.5L64.3013 262.5M107.301 237.5L85.6506 250M107.301 237.5V262.5M107.301 237.5L64 262.5M85.6506 250L64 237.5M85.6506 250L107.301 262.5M85.6506 250L64 262.5M85.6506 250V300M64 237.5V262.5M64 237.5L107.301 262.5M150.301 237.5L128.651 250M150.301 237.5V262.5M150.301 237.5L107 262.5M128.651 250L107 237.5M128.651 250L150.301 262.5M128.651 250L107 262.5M128.651 250V300M107 237.5V262.5M107 237.5L150.301 262.5M193.301 237.5L171.651 250M193.301 237.5V262.5M193.301 237.5L150 262.5M171.651 250L150 237.5M171.651 250L193.301 262.5M171.651 250L150 262.5M171.651 250V300M150 237.5V262.5M150 237.5L193.301 262.5M236.301 237.5L214.651 250M236.301 237.5V262.5M236.301 237.5L193 262.5M214.651 250L193 237.5M214.651 250L236.301 262.5M214.651 250L193 262.5M214.651 250V300M193 237.5V262.5M193 237.5L236.301 262.5M279.301 237.5L257.651 250M279.301 237.5V262.5M279.301 237.5L236 262.5M257.651 250L236 237.5M257.651 250L279.301 262.5M257.651 250L236 262.5M257.651 250V300M236 237.5V262.5M236 237.5L279.301 262.5M322.301 237.5L300.651 250M322.301 237.5V262.5M322.301 237.5L279 262.5M300.651 250L279 237.5M300.651 250L322.301 262.5M300.651 250L279 262.5M300.651 250V300M279 237.5V262.5M279 237.5L322.301 262.5M365.301 237.5L343.651 250M365.301 237.5V262.5M365.301 237.5L322 262.5M343.651 250L322 237.5M343.651 250L365.301 262.5M343.651 250L322 262.5M343.651 250V300M322 237.5V262.5M322 237.5L365.301 262.5M408.301 237.5L386.651 250M408.301 237.5V262.5M408.301 237.5L365 262.5M386.651 250L365 237.5M386.651 250L408.301 262.5M386.651 250L365 262.5M386.651 250V300M365 237.5V262.5M365 237.5L408.301 262.5M451.301 237.5L429.651 250M451.301 237.5V262.5M451.301 237.5L408 262.5M429.651 250L408 237.5M429.651 250L451.301 262.5M429.651 250L408 262.5M429.651 250V300M408 237.5V262.5M408 237.5L451.301 262.5M472.651 250L451 237.5M472.651 250L451 262.5M472.651 250V300M451 237.5V262.5M21.3013 262.5L-0.349365 275M21.3013 262.5V287.5M21.3013 262.5L-22 287.5M-0.349365 275L-22 262.5M-0.349365 275L21.3013 287.5M-0.349365 275L-22 287.5M-0.349365 275V325M-22 262.5V287.5M-22 262.5L21.3013 287.5M64.3013 262.5L42.6506 275M64.3013 262.5V287.5M64.3013 262.5L21 287.5M42.6506 275L21 262.5M42.6506 275L64.3013 287.5M42.6506 275L21 287.5M42.6506 275V325M21 262.5V287.5M21 262.5L64.3013 287.5M107.301 262.5L85.6506 275M107.301 262.5V287.5M107.301 262.5L64 287.5M85.6506 275L64 262.5M85.6506 275L107.301 287.5M85.6506 275L64 287.5M85.6506 275V325M64 262.5V287.5M64 262.5L107.301 287.5M150.301 262.5L128.651 275M150.301 262.5V287.5M150.301 262.5L107 287.5M128.651 275L107 262.5M128.651 275L150.301 287.5M128.651 275L107 287.5M128.651 275V325M107 262.5V287.5M107 262.5L150.301 287.5M193.301 262.5L171.651 275M193.301 262.5V287.5M193.301 262.5L150 287.5M171.651 275L150 262.5M171.651 275L193.301 287.5M171.651 275L150 287.5M171.651 275V325M150 262.5V287.5M150 262.5L193.301 287.5M236.301 262.5L214.651 275M236.301 262.5V287.5M236.301 262.5L193 287.5M214.651 275L193 262.5M214.651 275L236.301 287.5M214.651 275L193 287.5M214.651 275V325M193 262.5V287.5M193 262.5L236.301 287.5M279.301 262.5L257.651 275M279.301 262.5V287.5M279.301 262.5L236 287.5M257.651 275L236 262.5M257.651 275L279.301 287.5M257.651 275L236 287.5M257.651 275V325M236 262.5V287.5M236 262.5L279.301 287.5M322.301 262.5L300.651 275M322.301 262.5V287.5M322.301 262.5L279 287.5M300.651 275L279 262.5M300.651 275L322.301 287.5M300.651 275L279 287.5M300.651 275V325M279 262.5V287.5M279 262.5L322.301 287.5M365.301 262.5L343.651 275M365.301 262.5V287.5M365.301 262.5L322 287.5M343.651 275L322 262.5M343.651 275L365.301 287.5M343.651 275L322 287.5M343.651 275V325M322 262.5V287.5M322 262.5L365.301 287.5M408.301 262.5L386.651 275M408.301 262.5V287.5M408.301 262.5L365 287.5M386.651 275L365 262.5M386.651 275L408.301 287.5M386.651 275L365 287.5M386.651 275V325M365 262.5V287.5M365 262.5L408.301 287.5M451.301 262.5L429.651 275M451.301 262.5V287.5M451.301 262.5L408 287.5M429.651 275L408 262.5M429.651 275L451.301 287.5M429.651 275L408 287.5M429.651 275V325M408 262.5V287.5M408 262.5L451.301 287.5M472.651 275L451 262.5M472.651 275L451 287.5M472.651 275V325M451 262.5V287.5M21.3013 287.5L-0.349365 300M21.3013 287.5V312.5M21.3013 287.5L-22 312.5M-0.349365 300L-22 287.5M-0.349365 300L21.3013 312.5M-0.349365 300L-22 312.5M-0.349365 300V350M-22 287.5V312.5M-22 287.5L21.3013 312.5M64.3013 287.5L42.6506 300M64.3013 287.5V312.5M64.3013 287.5L21 312.5M42.6506 300L21 287.5M42.6506 300L64.3013 312.5M42.6506 300L21 312.5M42.6506 300V350M21 287.5V312.5M21 287.5L64.3013 312.5M107.301 287.5L85.6506 300M107.301 287.5V312.5M107.301 287.5L64 312.5M85.6506 300L64 287.5M85.6506 300L107.301 312.5M85.6506 300L64 312.5M85.6506 300V350M64 287.5V312.5M64 287.5L107.301 312.5M150.301 287.5L128.651 300M150.301 287.5V312.5M150.301 287.5L107 312.5M128.651 300L107 287.5M128.651 300L150.301 312.5M128.651 300L107 312.5M128.651 300V350M107 287.5V312.5M107 287.5L150.301 312.5M193.301 287.5L171.651 300M193.301 287.5V312.5M193.301 287.5L150 312.5M171.651 300L150 287.5M171.651 300L193.301 312.5M171.651 300L150 312.5M171.651 300V350M150 287.5V312.5M150 287.5L193.301 312.5M236.301 287.5L214.651 300M236.301 287.5V312.5M236.301 287.5L193 312.5M214.651 300L193 287.5M214.651 300L236.301 312.5M214.651 300L193 312.5M214.651 300V350M193 287.5V312.5M193 287.5L236.301 312.5M279.301 287.5L257.651 300M279.301 287.5V312.5M279.301 287.5L236 312.5M257.651 300L236 287.5M257.651 300L279.301 312.5M257.651 300L236 312.5M257.651 300V350M236 287.5V312.5M236 287.5L279.301 312.5M322.301 287.5L300.651 300M322.301 287.5V312.5M322.301 287.5L279 312.5M300.651 300L279 287.5M300.651 300L322.301 312.5M300.651 300L279 312.5M300.651 300V350M279 287.5V312.5M279 287.5L322.301 312.5M365.301 287.5L343.651 300M365.301 287.5V312.5M365.301 287.5L322 312.5M343.651 300L322 287.5M343.651 300L365.301 312.5M343.651 300L322 312.5M343.651 300V350M322 287.5V312.5M322 287.5L365.301 312.5M408.301 287.5L386.651 300M408.301 287.5V312.5M408.301 287.5L365 312.5M386.651 300L365 287.5M386.651 300L408.301 312.5M386.651 300L365 312.5M386.651 300V350M365 287.5V312.5M365 287.5L408.301 312.5M451.301 287.5L429.651 300M451.301 287.5V312.5M451.301 287.5L408 312.5M429.651 300L408 287.5M429.651 300L451.301 312.5M429.651 300L408 312.5M429.651 300V350M408 287.5V312.5M408 287.5L451.301 312.5M472.651 300L451 287.5M472.651 300L451 312.5M472.651 300V350M451 287.5V312.5M21.3013 312.5L-0.349365 325M21.3013 312.5V337.5M21.3013 312.5L-22 337.5M-0.349365 325L-22 312.5M-0.349365 325L21.3013 337.5M-0.349365 325L-22 337.5M-0.349365 325V375M-22 312.5V337.5M-22 312.5L21.3013 337.5M64.3013 312.5L42.6506 325M64.3013 312.5V337.5M64.3013 312.5L21 337.5M42.6506 325L21 312.5M42.6506 325L64.3013 337.5M42.6506 325L21 337.5M42.6506 325V375M21 312.5V337.5M21 312.5L64.3013 337.5M107.301 312.5L85.6506 325M107.301 312.5V337.5M107.301 312.5L64 337.5M85.6506 325L64 312.5M85.6506 325L107.301 337.5M85.6506 325L64 337.5M85.6506 325V375M64 312.5V337.5M64 312.5L107.301 337.5M150.301 312.5L128.651 325M150.301 312.5V337.5M150.301 312.5L107 337.5M128.651 325L107 312.5M128.651 325L150.301 337.5M128.651 325L107 337.5M128.651 325V375M107 312.5V337.5M107 312.5L150.301 337.5M193.301 312.5L171.651 325M193.301 312.5V337.5M193.301 312.5L150 337.5M171.651 325L150 312.5M171.651 325L193.301 337.5M171.651 325L150 337.5M171.651 325V375M150 312.5V337.5M150 312.5L193.301 337.5M236.301 312.5L214.651 325M236.301 312.5V337.5M236.301 312.5L193 337.5M214.651 325L193 312.5M214.651 325L236.301 337.5M214.651 325L193 337.5M214.651 325V375M193 312.5V337.5M193 312.5L236.301 337.5M279.301 312.5L257.651 325M279.301 312.5V337.5M279.301 312.5L236 337.5M257.651 325L236 312.5M257.651 325L279.301 337.5M257.651 325L236 337.5M257.651 325V375M236 312.5V337.5M236 312.5L279.301 337.5M322.301 312.5L300.651 325M322.301 312.5V337.5M322.301 312.5L279 337.5M300.651 325L279 312.5M300.651 325L322.301 337.5M300.651 325L279 337.5M300.651 325V375M279 312.5V337.5M279 312.5L322.301 337.5M365.301 312.5L343.651 325M365.301 312.5V337.5M365.301 312.5L322 337.5M343.651 325L322 312.5M343.651 325L365.301 337.5M343.651 325L322 337.5M343.651 325V375M322 312.5V337.5M322 312.5L365.301 337.5M408.301 312.5L386.651 325M408.301 312.5V337.5M408.301 312.5L365 337.5M386.651 325L365 312.5M386.651 325L408.301 337.5M386.651 325L365 337.5M386.651 325V375M365 312.5V337.5M365 312.5L408.301 337.5M451.301 312.5L429.651 325M451.301 312.5V337.5M451.301 312.5L408 337.5M429.651 325L408 312.5M429.651 325L451.301 337.5M429.651 325L408 337.5M429.651 325V375M408 312.5V337.5M408 312.5L451.301 337.5M472.651 325L451 312.5M472.651 325L451 337.5M472.651 325V375M451 312.5V337.5M21.3013 337.5L-0.349365 350M21.3013 337.5V362.5M21.3013 337.5L-22 362.5M-0.349365 350L-22 337.5M-0.349365 350L21.3013 362.5M-0.349365 350L-22 362.5M-0.349365 350V400M-22 337.5V362.5M-22 337.5L21.3013 362.5M64.3013 337.5L42.6506 350M64.3013 337.5V362.5M64.3013 337.5L21 362.5M42.6506 350L21 337.5M42.6506 350L64.3013 362.5M42.6506 350L21 362.5M42.6506 350V400M21 337.5V362.5M21 337.5L64.3013 362.5M107.301 337.5L85.6506 350M107.301 337.5V362.5M107.301 337.5L64 362.5M85.6506 350L64 337.5M85.6506 350L107.301 362.5M85.6506 350L64 362.5M85.6506 350V400M64 337.5V362.5M64 337.5L107.301 362.5M150.301 337.5L128.651 350M150.301 337.5V362.5M150.301 337.5L107 362.5M128.651 350L107 337.5M128.651 350L150.301 362.5M128.651 350L107 362.5M128.651 350V400M107 337.5V362.5M107 337.5L150.301 362.5M193.301 337.5L171.651 350M193.301 337.5V362.5M193.301 337.5L150 362.5M171.651 350L150 337.5M171.651 350L193.301 362.5M171.651 350L150 362.5M171.651 350V400M150 337.5V362.5M150 337.5L193.301 362.5M236.301 337.5L214.651 350M236.301 337.5V362.5M236.301 337.5L193 362.5M214.651 350L193 337.5M214.651 350L236.301 362.5M214.651 350L193 362.5M214.651 350V400M193 337.5V362.5M193 337.5L236.301 362.5M279.301 337.5L257.651 350M279.301 337.5V362.5M279.301 337.5L236 362.5M257.651 350L236 337.5M257.651 350L279.301 362.5M257.651 350L236 362.5M257.651 350V400M236 337.5V362.5M236 337.5L279.301 362.5M322.301 337.5L300.651 350M322.301 337.5V362.5M322.301 337.5L279 362.5M300.651 350L279 337.5M300.651 350L322.301 362.5M300.651 350L279 362.5M300.651 350V400M279 337.5V362.5M279 337.5L322.301 362.5M365.301 337.5L343.651 350M365.301 337.5V362.5M365.301 337.5L322 362.5M343.651 350L322 337.5M343.651 350L365.301 362.5M343.651 350L322 362.5M343.651 350V400M322 337.5V362.5M322 337.5L365.301 362.5M408.301 337.5L386.651 350M408.301 337.5V362.5M408.301 337.5L365 362.5M386.651 350L365 337.5M386.651 350L408.301 362.5M386.651 350L365 362.5M386.651 350V400M365 337.5V362.5M365 337.5L408.301 362.5M451.301 337.5L429.651 350M451.301 337.5V362.5M451.301 337.5L408 362.5M429.651 350L408 337.5M429.651 350L451.301 362.5M429.651 350L408 362.5M429.651 350V400M408 337.5V362.5M408 337.5L451.301 362.5M472.651 350L451 337.5M472.651 350L451 362.5M472.651 350V400M451 337.5V362.5M21.3013 362.5L-0.349365 375M21.3013 362.5V387.5M21.3013 362.5L-22 387.5M-0.349365 375L-22 362.5M-0.349365 375L21.3013 387.5M-0.349365 375L-22 387.5M-0.349365 375V425M-22 362.5V387.5M-22 362.5L21.3013 387.5M64.3013 362.5L42.6506 375M64.3013 362.5V387.5M64.3013 362.5L21 387.5M42.6506 375L21 362.5M42.6506 375L64.3013 387.5M42.6506 375L21 387.5M42.6506 375V425M21 362.5V387.5M21 362.5L64.3013 387.5M107.301 362.5L85.6506 375M107.301 362.5V387.5M107.301 362.5L64 387.5M85.6506 375L64 362.5M85.6506 375L107.301 387.5M85.6506 375L64 387.5M85.6506 375V425M64 362.5V387.5M64 362.5L107.301 387.5M150.301 362.5L128.651 375M150.301 362.5V387.5M150.301 362.5L107 387.5M128.651 375L107 362.5M128.651 375L150.301 387.5M128.651 375L107 387.5M128.651 375V425M107 362.5V387.5M107 362.5L150.301 387.5M193.301 362.5L171.651 375M193.301 362.5V387.5M193.301 362.5L150 387.5M171.651 375L150 362.5M171.651 375L193.301 387.5M171.651 375L150 387.5M171.651 375V425M150 362.5V387.5M150 362.5L193.301 387.5M236.301 362.5L214.651 375M236.301 362.5V387.5M236.301 362.5L193 387.5M214.651 375L193 362.5M214.651 375L236.301 387.5M214.651 375L193 387.5M214.651 375V425M193 362.5V387.5M193 362.5L236.301 387.5M279.301 362.5L257.651 375M279.301 362.5V387.5M279.301 362.5L236 387.5M257.651 375L236 362.5M257.651 375L279.301 387.5M257.651 375L236 387.5M257.651 375V425M236 362.5V387.5M236 362.5L279.301 387.5M322.301 362.5L300.651 375M322.301 362.5V387.5M322.301 362.5L279 387.5M300.651 375L279 362.5M300.651 375L322.301 387.5M300.651 375L279 387.5M300.651 375V425M279 362.5V387.5M279 362.5L322.301 387.5M365.301 362.5L343.651 375M365.301 362.5V387.5M365.301 362.5L322 387.5M343.651 375L322 362.5M343.651 375L365.301 387.5M343.651 375L322 387.5M343.651 375V425M322 362.5V387.5M322 362.5L365.301 387.5M408.301 362.5L386.651 375M408.301 362.5V387.5M408.301 362.5L365 387.5M386.651 375L365 362.5M386.651 375L408.301 387.5M386.651 375L365 387.5M386.651 375V425M365 362.5V387.5M365 362.5L408.301 387.5M451.301 362.5L429.651 375M451.301 362.5V387.5M451.301 362.5L408 387.5M429.651 375L408 362.5M429.651 375L451.301 387.5M429.651 375L408 387.5M429.651 375V425M408 362.5V387.5M408 362.5L451.301 387.5M472.651 375L451 362.5M472.651 375L451 387.5M472.651 375V425M451 362.5V387.5M21.3013 387.5L-0.349365 400M21.3013 387.5V412.5M21.3013 387.5L-22 412.5M-0.349365 400L-22 387.5M-0.349365 400L21.3013 412.5M-0.349365 400L-22 412.5M-0.349365 400V450M-22 387.5V412.5M-22 387.5L21.3013 412.5M64.3013 387.5L42.6506 400M64.3013 387.5V412.5M64.3013 387.5L21 412.5M42.6506 400L21 387.5M42.6506 400L64.3013 412.5M42.6506 400L21 412.5M42.6506 400V450M21 387.5V412.5M21 387.5L64.3013 412.5M107.301 387.5L85.6506 400M107.301 387.5V412.5M107.301 387.5L64 412.5M85.6506 400L64 387.5M85.6506 400L107.301 412.5M85.6506 400L64 412.5M85.6506 400V450M64 387.5V412.5M64 387.5L107.301 412.5M150.301 387.5L128.651 400M150.301 387.5V412.5M150.301 387.5L107 412.5M128.651 400L107 387.5M128.651 400L150.301 412.5M128.651 400L107 412.5M128.651 400V450M107 387.5V412.5M107 387.5L150.301 412.5M193.301 387.5L171.651 400M193.301 387.5V412.5M193.301 387.5L150 412.5M171.651 400L150 387.5M171.651 400L193.301 412.5M171.651 400L150 412.5M171.651 400V450M150 387.5V412.5M150 387.5L193.301 412.5M236.301 387.5L214.651 400M236.301 387.5V412.5M236.301 387.5L193 412.5M214.651 400L193 387.5M214.651 400L236.301 412.5M214.651 400L193 412.5M214.651 400V450M193 387.5V412.5M193 387.5L236.301 412.5M279.301 387.5L257.651 400M279.301 387.5V412.5M279.301 387.5L236 412.5M257.651 400L236 387.5M257.651 400L279.301 412.5M257.651 400L236 412.5M257.651 400V450M236 387.5V412.5M236 387.5L279.301 412.5M322.301 387.5L300.651 400M322.301 387.5V412.5M322.301 387.5L279 412.5M300.651 400L279 387.5M300.651 400L322.301 412.5M300.651 400L279 412.5M300.651 400V450M279 387.5V412.5M279 387.5L322.301 412.5M365.301 387.5L343.651 400M365.301 387.5V412.5M365.301 387.5L322 412.5M343.651 400L322 387.5M343.651 400L365.301 412.5M343.651 400L322 412.5M343.651 400V450M322 387.5V412.5M322 387.5L365.301 412.5M408.301 387.5L386.651 400M408.301 387.5V412.5M408.301 387.5L365 412.5M386.651 400L365 387.5M386.651 400L408.301 412.5M386.651 400L365 412.5M386.651 400V450M365 387.5V412.5M365 387.5L408.301 412.5M451.301 387.5L429.651 400M451.301 387.5V412.5M451.301 387.5L408 412.5M429.651 400L408 387.5M429.651 400L451.301 412.5M429.651 400L408 412.5M429.651 400V450M408 387.5V412.5M408 387.5L451.301 412.5M472.651 400L451 387.5M472.651 400L451 412.5M472.651 400V450M451 387.5V412.5M21.3013 412.5L-0.349365 425M21.3013 412.5V437.5M21.3013 412.5L-22 437.5M-0.349365 425L-22 412.5M-0.349365 425L21.3013 437.5M-0.349365 425L-22 437.5M-0.349365 425V475M-22 412.5V437.5M-22 412.5L21.3013 437.5M64.3013 412.5L42.6506 425M64.3013 412.5V437.5M64.3013 412.5L21 437.5M42.6506 425L21 412.5M42.6506 425L64.3013 437.5M42.6506 425L21 437.5M42.6506 425V475M21 412.5V437.5M21 412.5L64.3013 437.5M107.301 412.5L85.6506 425M107.301 412.5V437.5M107.301 412.5L64 437.5M85.6506 425L64 412.5M85.6506 425L107.301 437.5M85.6506 425L64 437.5M85.6506 425V475M64 412.5V437.5M64 412.5L107.301 437.5M150.301 412.5L128.651 425M150.301 412.5V437.5M150.301 412.5L107 437.5M128.651 425L107 412.5M128.651 425L150.301 437.5M128.651 425L107 437.5M128.651 425V475M107 412.5V437.5M107 412.5L150.301 437.5M193.301 412.5L171.651 425M193.301 412.5V437.5M193.301 412.5L150 437.5M171.651 425L150 412.5M171.651 425L193.301 437.5M171.651 425L150 437.5M171.651 425V475M150 412.5V437.5M150 412.5L193.301 437.5M236.301 412.5L214.651 425M236.301 412.5V437.5M236.301 412.5L193 437.5M214.651 425L193 412.5M214.651 425L236.301 437.5M214.651 425L193 437.5M214.651 425V475M193 412.5V437.5M193 412.5L236.301 437.5M279.301 412.5L257.651 425M279.301 412.5V437.5M279.301 412.5L236 437.5M257.651 425L236 412.5M257.651 425L279.301 437.5M257.651 425L236 437.5M257.651 425V475M236 412.5V437.5M236 412.5L279.301 437.5M322.301 412.5L300.651 425M322.301 412.5V437.5M322.301 412.5L279 437.5M300.651 425L279 412.5M300.651 425L322.301 437.5M300.651 425L279 437.5M300.651 425V475M279 412.5V437.5M279 412.5L322.301 437.5M365.301 412.5L343.651 425M365.301 412.5V437.5M365.301 412.5L322 437.5M343.651 425L322 412.5M343.651 425L365.301 437.5M343.651 425L322 437.5M343.651 425V475M322 412.5V437.5M322 412.5L365.301 437.5M408.301 412.5L386.651 425M408.301 412.5V437.5M408.301 412.5L365 437.5M386.651 425L365 412.5M386.651 425L408.301 437.5M386.651 425L365 437.5M386.651 425V475M365 412.5V437.5M365 412.5L408.301 437.5M451.301 412.5L429.651 425M451.301 412.5V437.5M451.301 412.5L408 437.5M429.651 425L408 412.5M429.651 425L451.301 437.5M429.651 425L408 437.5M429.651 425V475M408 412.5V437.5M408 412.5L451.301 437.5M472.651 425L451 412.5M472.651 425L451 437.5M472.651 425V475M451 412.5V437.5M21.3013 437.5L-0.349365 450M21.3013 437.5V462.5M21.3013 437.5L-22 462.5M-0.349365 450L-22 437.5M-0.349365 450L21.3013 462.5M-0.349365 450L-22 462.5M-0.349365 450V500M-22 437.5V462.5M-22 437.5L21.3013 462.5M64.3013 437.5L42.6506 450M64.3013 437.5V462.5M64.3013 437.5L21 462.5M42.6506 450L21 437.5M42.6506 450L64.3013 462.5M42.6506 450L21 462.5M42.6506 450V500M21 437.5V462.5M21 437.5L64.3013 462.5M107.301 437.5L85.6506 450M107.301 437.5V462.5M107.301 437.5L64 462.5M85.6506 450L64 437.5M85.6506 450L107.301 462.5M85.6506 450L64 462.5M85.6506 450V500M64 437.5V462.5M64 437.5L107.301 462.5M150.301 437.5L128.651 450M150.301 437.5V462.5M150.301 437.5L107 462.5M128.651 450L107 437.5M128.651 450L150.301 462.5M128.651 450L107 462.5M128.651 450V500M107 437.5V462.5M107 437.5L150.301 462.5M193.301 437.5L171.651 450M193.301 437.5V462.5M193.301 437.5L150 462.5M171.651 450L150 437.5M171.651 450L193.301 462.5M171.651 450L150 462.5M171.651 450V500M150 437.5V462.5M150 437.5L193.301 462.5M236.301 437.5L214.651 450M236.301 437.5V462.5M236.301 437.5L193 462.5M214.651 450L193 437.5M214.651 450L236.301 462.5M214.651 450L193 462.5M214.651 450V500M193 437.5V462.5M193 437.5L236.301 462.5M279.301 437.5L257.651 450M279.301 437.5V462.5M279.301 437.5L236 462.5M257.651 450L236 437.5M257.651 450L279.301 462.5M257.651 450L236 462.5M257.651 450V500M236 437.5V462.5M236 437.5L279.301 462.5M322.301 437.5L300.651 450M322.301 437.5V462.5M322.301 437.5L279 462.5M300.651 450L279 437.5M300.651 450L322.301 462.5M300.651 450L279 462.5M300.651 450V500M279 437.5V462.5M279 437.5L322.301 462.5M365.301 437.5L343.651 450M365.301 437.5V462.5M365.301 437.5L322 462.5M343.651 450L322 437.5M343.651 450L365.301 462.5M343.651 450L322 462.5M343.651 450V500M322 437.5V462.5M322 437.5L365.301 462.5M408.301 437.5L386.651 450M408.301 437.5V462.5M408.301 437.5L365 462.5M386.651 450L365 437.5M386.651 450L408.301 462.5M386.651 450L365 462.5M386.651 450V500M365 437.5V462.5M365 437.5L408.301 462.5M451.301 437.5L429.651 450M451.301 437.5V462.5M451.301 437.5L408 462.5M429.651 450L408 437.5M429.651 450L451.301 462.5M429.651 450L408 462.5M429.651 450V500M408 437.5V462.5M408 437.5L451.301 462.5M472.651 450L451 437.5M472.651 450L451 462.5M472.651 450V500L451 487.5M451 437.5V462.5M21.3013 462.5L-0.349365 475M21.3013 462.5V487.5M21.3013 462.5L-22 487.5M-0.349365 475L-22 462.5M-0.349365 475L21.3013 487.5M-0.349365 475L-22 487.5M-0.349365 475V525M-22 462.5V487.5M-22 462.5L21.3013 487.5M64.3013 462.5L42.6506 475M64.3013 462.5V487.5M64.3013 462.5L21 487.5M42.6506 475L21 462.5M42.6506 475L64.3013 487.5M42.6506 475L21 487.5M42.6506 475V525M21 462.5V487.5M21 462.5L64.3013 487.5M107.301 462.5L85.6506 475M107.301 462.5V487.5M107.301 462.5L64 487.5M85.6506 475L64 462.5M85.6506 475L107.301 487.5M85.6506 475L64 487.5M85.6506 475V525M64 462.5V487.5M64 462.5L107.301 487.5M150.301 462.5L128.651 475M150.301 462.5V487.5M150.301 462.5L107 487.5M128.651 475L107 462.5M128.651 475L150.301 487.5M128.651 475L107 487.5M128.651 475V525M107 462.5V487.5M107 462.5L150.301 487.5M193.301 462.5L171.651 475M193.301 462.5V487.5M193.301 462.5L150 487.5M171.651 475L150 462.5M171.651 475L193.301 487.5M171.651 475L150 487.5M171.651 475V525M150 462.5V487.5M150 462.5L193.301 487.5M236.301 462.5L214.651 475M236.301 462.5V487.5M236.301 462.5L193 487.5M214.651 475L193 462.5M214.651 475L236.301 487.5M214.651 475L193 487.5M214.651 475V525M193 462.5V487.5M193 462.5L236.301 487.5M279.301 462.5L257.651 475M279.301 462.5V487.5M279.301 462.5L236 487.5M257.651 475L236 462.5M257.651 475L279.301 487.5M257.651 475L236 487.5M257.651 475V525M236 462.5V487.5M236 462.5L279.301 487.5M322.301 462.5L300.651 475M322.301 462.5V487.5M322.301 462.5L279 487.5M300.651 475L279 462.5M300.651 475L322.301 487.5M300.651 475L279 487.5M300.651 475V525M279 462.5V487.5M279 462.5L322.301 487.5M365.301 462.5L343.651 475M365.301 462.5V487.5M365.301 462.5L322 487.5M343.651 475L322 462.5M343.651 475L365.301 487.5M343.651 475L322 487.5M343.651 475V525M322 462.5V487.5M322 462.5L365.301 487.5M408.301 462.5L386.651 475M408.301 462.5V487.5M408.301 462.5L365 487.5M386.651 475L365 462.5M386.651 475L408.301 487.5M386.651 475L365 487.5M386.651 475V525M365 462.5V487.5M365 462.5L408.301 487.5M451.301 462.5L429.651 475M451.301 462.5V487.5M451.301 462.5L408 487.5M429.651 475L408 462.5M429.651 475L451.301 487.5M429.651 475L408 487.5M429.651 475V525M408 462.5V487.5M408 462.5L451.301 487.5M472.651 475L451 462.5M472.651 475L451 487.5M472.651 475V525L451 512.5V487.5M451 462.5V487.5M21.3013 487.5L-0.349365 500M21.3013 487.5V512.5M21.3013 487.5L-22 512.5M-0.349365 500L-22 487.5M-22 487.5V512.5M-22 487.5L21.3013 512.5M64.3013 487.5L42.6506 500M64.3013 487.5V512.5M64.3013 487.5L21 512.5M42.6506 500L21 487.5M21 487.5V512.5M21 487.5L64.3013 512.5M107.301 487.5L85.6506 500M107.301 487.5V512.5M107.301 487.5L64 512.5M85.6506 500L64 487.5M64 487.5V512.5M64 487.5L107.301 512.5M150.301 487.5L128.651 500M150.301 487.5V512.5M150.301 487.5L107 512.5M128.651 500L107 487.5M107 487.5V512.5M107 487.5L150.301 512.5M193.301 487.5L171.651 500M193.301 487.5V512.5M193.301 487.5L150 512.5M171.651 500L150 487.5M150 487.5V512.5M150 487.5L193.301 512.5M236.301 487.5L214.651 500M236.301 487.5V512.5M236.301 487.5L193 512.5M214.651 500L193 487.5M193 487.5V512.5M193 487.5L236.301 512.5M279.301 487.5L257.651 500M279.301 487.5V512.5M279.301 487.5L236 512.5M257.651 500L236 487.5M236 487.5V512.5M236 487.5L279.301 512.5M322.301 487.5L300.651 500M322.301 487.5V512.5M322.301 487.5L279 512.5M300.651 500L279 487.5M279 487.5V512.5M279 487.5L322.301 512.5M365.301 487.5L343.651 500M365.301 487.5V512.5M365.301 487.5L322 512.5M343.651 500L322 487.5M322 487.5V512.5M322 487.5L365.301 512.5M408.301 487.5L386.651 500M408.301 487.5V512.5M408.301 487.5L365 512.5M386.651 500L365 487.5M365 487.5V512.5M365 487.5L408.301 512.5M451.301 487.5L429.651 500M451.301 487.5V512.5M451.301 487.5L408 512.5M429.651 500L408 487.5M408 487.5V512.5M408 487.5L451.301 512.5M21.3013 512.5L-0.349365 525M-0.349365 525L-22 512.5M64.3013 512.5L42.6506 525M42.6506 525L21 512.5M107.301 512.5L85.6506 525M85.6506 525L64 512.5M150.301 512.5L128.651 525M128.651 525L107 512.5M193.301 512.5L171.651 525M171.651 525L150 512.5M236.301 512.5L214.651 525M214.651 525L193 512.5M279.301 512.5L257.651 525M257.651 525L236 512.5M322.301 512.5L300.651 525M300.651 525L279 512.5M365.301 512.5L343.651 525M343.651 525L322 512.5M408.301 512.5L386.651 525M386.651 525L365 512.5M451.301 512.5L429.651 525M429.651 525L408 512.5" stroke="black" stroke-opacity="0.3"/>
<path d="M236 87.5L193 112.5L236 137.5L279 112.5L236 87.5Z" stroke="black"/>
<path d="M258 225V350.433M258 225L214.002 250.403M258 225L171.002 174.929L129 200M129 200L128 325.2L171.25 350.45M129 200L171.501 225.201M214.002 250.403L214.499 375.549M214.002 250.403L171.501 225.201M214.499 375.549L214.5 375.7L171.25 350.45M214.499 375.549L258 350.433M258 350.433V351M171.501 225.201L171.25 350.45" stroke="black"/>
<path d="M159 287.804L159.138 267L165 271.188L164.965 292L159 287.804Z" stroke="black"/>
<path d="M178 299.804L178.138 279L184 283.188L183.965 304L178 299.804Z" stroke="black"/>
</g>
<defs>
<clipPath id="clip0_12_152">
<rect width="472" height="500" fill="white"/>
</clipPath>
</defs>
</svg>
