<svg width="412" height="378" viewBox="0 0 412 378" fill="none" xmlns="http://www.w3.org/2000/svg">
<g style="mix-blend-mode:hard-light">
<path d="M246 240.857C246 324.173 215 378 206 378C196 378 166 324.173 166 240.857C166 157.541 183.909 90 206 90C228.091 90 246 157.541 246 240.857Z" fill="url(#paint0_linear_23_603)"/>
</g>
<g style="mix-blend-mode:hard-light">
<ellipse cx="272" cy="186" rx="27" ry="140" fill="url(#paint1_linear_23_603)"/>
</g>
<g style="mix-blend-mode:hard-light">
<ellipse cx="323.5" cy="140" rx="24.5" ry="140" fill="url(#paint2_linear_23_603)"/>
</g>
<g style="mix-blend-mode:hard-light">
<ellipse cx="403.5" cy="138.5" rx="8" ry="43.5" fill="url(#paint3_linear_23_603)"/>
</g>
<g style="mix-blend-mode:hard-light">
<ellipse cx="369.5" cy="138.5" rx="21.5" ry="100.5" fill="url(#paint4_linear_23_603)"/>
</g>
<g style="mix-blend-mode:hard-light">
<ellipse cx="27" cy="140" rx="27" ry="140" transform="matrix(-1 0 0 1 167 46)" fill="url(#paint5_linear_23_603)"/>
</g>
<g style="mix-blend-mode:hard-light">
<ellipse cx="24.5" cy="140" rx="24.5" ry="140" transform="matrix(-1 0 0 1 113 0)" fill="url(#paint6_linear_23_603)"/>
</g>
<g style="mix-blend-mode:hard-light">
<ellipse cx="8" cy="43.5" rx="8" ry="43.5" transform="matrix(-1 0 0 1 16.5 95)" fill="url(#paint7_linear_23_603)"/>
</g>
<g style="mix-blend-mode:hard-light">
<ellipse cx="21.5" cy="100.5" rx="21.5" ry="100.5" transform="matrix(-1 0 0 1 64 38)" fill="url(#paint8_linear_23_603)"/>
</g>
<defs>
<linearGradient id="paint0_linear_23_603" x1="206" y1="90" x2="206" y2="378" gradientUnits="userSpaceOnUse">
<stop stop-color="#164CD7"/>
<stop offset="1" stop-color="#164CD7" stop-opacity="0"/>
</linearGradient>
<linearGradient id="paint1_linear_23_603" x1="272" y1="46" x2="272" y2="326" gradientUnits="userSpaceOnUse">
<stop stop-color="#164CD7"/>
<stop offset="1" stop-color="#164CD7" stop-opacity="0"/>
</linearGradient>
<linearGradient id="paint2_linear_23_603" x1="323.5" y1="0" x2="323.5" y2="280" gradientUnits="userSpaceOnUse">
<stop stop-color="#164CD7"/>
<stop offset="1" stop-color="#164CD7" stop-opacity="0"/>
</linearGradient>
<linearGradient id="paint3_linear_23_603" x1="403.5" y1="95" x2="403.5" y2="182" gradientUnits="userSpaceOnUse">
<stop stop-color="#164CD7"/>
<stop offset="1" stop-color="#164CD7" stop-opacity="0"/>
</linearGradient>
<linearGradient id="paint4_linear_23_603" x1="369.5" y1="38" x2="369.5" y2="239" gradientUnits="userSpaceOnUse">
<stop stop-color="#164CD7"/>
<stop offset="1" stop-color="#164CD7" stop-opacity="0"/>
</linearGradient>
<linearGradient id="paint5_linear_23_603" x1="27" y1="0" x2="27" y2="280" gradientUnits="userSpaceOnUse">
<stop stop-color="#164CD7"/>
<stop offset="1" stop-color="#164CD7" stop-opacity="0"/>
</linearGradient>
<linearGradient id="paint6_linear_23_603" x1="24.5" y1="0" x2="24.5" y2="280" gradientUnits="userSpaceOnUse">
<stop stop-color="#164CD7"/>
<stop offset="1" stop-color="#164CD7" stop-opacity="0"/>
</linearGradient>
<linearGradient id="paint7_linear_23_603" x1="8" y1="0" x2="8" y2="87" gradientUnits="userSpaceOnUse">
<stop stop-color="#164CD7"/>
<stop offset="1" stop-color="#164CD7" stop-opacity="0"/>
</linearGradient>
<linearGradient id="paint8_linear_23_603" x1="21.5" y1="0" x2="21.5" y2="201" gradientUnits="userSpaceOnUse">
<stop stop-color="#164CD7"/>
<stop offset="1" stop-color="#164CD7" stop-opacity="0"/>
</linearGradient>
</defs>
</svg>
