<svg width="221" height="314" viewBox="0 0 221 314" fill="none" xmlns="http://www.w3.org/2000/svg">
<path d="M2.84863 181.282C16.3433 189.358 32.1296 194 49 194C57.946 194 66.5872 192.695 74.7434 190.264C57.1536 170.448 45.5281 145.218 42.681 117.388C22.6881 133.065 8.25926 155.514 2.84863 181.282Z" fill="#00B4D8"/>
<path d="M172 194C188.87 194 204.657 189.358 218.151 181.282C212.741 155.514 198.312 133.065 178.319 117.388C175.472 145.218 163.846 170.448 146.257 190.264C154.413 192.695 163.054 194 172 194Z" fill="#00B4D8"/>
<path d="M82.2192 97.6695C91.2433 95.2756 100.723 94 110.5 94C120.277 94 129.757 95.2756 138.781 97.6695C137.156 74.287 126.6 53.3644 110.5 38.29C94.4003 53.3644 83.8439 74.287 82.2192 97.6695Z" fill="#00B4D8"/>
<path d="M128.369 194.005C122.007 190.915 116.021 187.17 110.5 182.858C104.979 187.17 98.9934 190.915 92.6309 194.005C89.3417 195.602 85.9517 197.025 82.4731 198.26C72.0077 201.977 60.7401 204 49 204C31.6723 204 15.3739 199.593 1.16468 191.838C0.725456 195.832 0.5 199.89 0.5 204C0.5 207.368 0.651382 210.701 0.947716 213.992C1.29787 217.881 1.85043 221.711 2.59476 225.473C12.5821 275.945 57.0969 314 110.5 314C163.903 314 208.418 275.945 218.405 225.473C219.15 221.711 219.702 217.881 220.052 213.992C220.349 210.701 220.5 207.368 220.5 204C220.5 199.89 220.275 195.832 219.835 191.838C205.626 199.593 189.328 204 172 204C160.26 204 148.992 201.977 138.527 198.26C135.048 197.025 131.658 195.602 128.369 194.005Z" fill="#6C757D"/>
<path d="M128.369 13.995C122.842 9.11715 116.862 4.74049 110.5 0.936157C104.138 4.74049 98.1582 9.11715 92.6309 13.995C89.9467 16.3639 87.3692 18.8509 84.9067 21.4481C64.5114 42.9582 52 72.018 52 104C52 106.253 52.0621 108.491 52.1846 110.713C53.8015 140.038 65.9479 166.557 84.9067 186.552C91.2827 183.775 97.2746 180.281 102.78 176.171C83.8097 157.971 72 132.365 72 104C72 102.966 72.0157 101.935 72.0469 100.908C72.8708 73.7774 84.5015 49.3648 102.78 31.8289C105.237 29.4723 107.813 27.2398 110.5 25.1416C113.187 27.2398 115.763 29.4723 118.22 31.8289C136.499 49.3648 148.129 73.7774 148.953 100.908C148.984 101.935 149 102.966 149 104C149 132.365 137.19 157.971 118.22 176.171C123.725 180.281 129.717 183.775 136.093 186.552C155.052 166.557 167.198 140.038 168.815 110.713C168.938 108.491 169 106.253 169 104C169 72.018 156.489 42.9582 136.093 21.4481C133.631 18.8509 131.053 16.3639 128.369 13.995Z" fill="#00B4D8"/>
</svg>
