<svg width="420" height="297" viewBox="0 0 420 297" fill="none" xmlns="http://www.w3.org/2000/svg">
<rect width="420" height="297" fill="white"/>
<path fill-rule="evenodd" clip-rule="evenodd" d="M60 110.276C60 92.5884 74.3384 78.25 92.0256 78.25H130V98.25H92.0256C85.3841 98.25 80 103.634 80 110.276C80 113.089 80.9863 115.813 82.7873 117.974L122.577 165.722C127.373 171.478 130 178.732 130 186.224C130 203.912 115.662 218.25 97.9744 218.25H60V198.25H97.9744C104.616 198.25 110 192.866 110 186.224C110 183.411 109.014 180.687 107.213 178.526L67.4229 130.778C62.6266 125.022 60 117.768 60 110.276Z" fill="#A7970B"/>
<path d="M150 212.843V83.6565C150 81.7997 152.31 80.9451 153.519 82.3549L210 148.25L153.519 214.145C152.31 215.555 150 214.7 150 212.843Z" fill="#45E2E4"/>
<path d="M210 78.25L-nan -nanL210 78.25C221.046 78.25 230 87.2043 230 98.25V218.25L-nan -nanL230 218.25C218.954 218.25 210 209.296 210 198.25V78.25Z" fill="#A7970B"/>
<path d="M250 78.25H270V218.25H250V78.25Z" fill="#A7970B"/>
<path fill-rule="evenodd" clip-rule="evenodd" d="M290 113.25C290 93.92 305.67 78.25 325 78.25C344.33 78.25 360 93.92 360 113.25V118.25C360 140.341 342.091 158.25 320 158.25H310V218.75H290V113.25ZM310 138.25H320C331.046 138.25 340 129.296 340 118.25V113.25C340 104.966 333.284 98.25 325 98.25C316.716 98.25 310 104.966 310 113.25V138.25Z" fill="#A7970B"/>
</svg>
