<svg width="743" height="902" viewBox="0 0 743 902" fill="none" xmlns="http://www.w3.org/2000/svg">
<circle cx="350.665" cy="551.661" r="350" fill="url(#paint0_linear_15_38)"/>
<path fill-rule="evenodd" clip-rule="evenodd" d="M586.665 76.3395C586.665 76.3395 586.086 77.1528 585.007 78.5995C586.059 77.1362 586.665 76.3395 586.665 76.3395ZM576.689 255.419L680.665 178.166C680.665 178.166 581.932 216.132 556.665 178.166C536.93 148.513 576.293 90.7138 585.007 78.5995C574.923 92.114 521.118 160.907 486.665 138.479C461.571 122.144 482.53 87.1818 500.279 57.5749C506.166 47.7549 511.699 38.5241 515.082 30.7575C518.542 22.816 517.225 24.9242 512.588 32.354C499.015 54.0973 456.994 121.417 422.952 115.801C373.832 107.698 336.665 0.339478 336.665 0.339478C336.665 0.339478 308.794 115.801 270.665 115.801C226.726 115.801 208.665 30.7575 208.665 30.7575C208.665 30.7575 222.392 116.472 194.665 138.479C162.377 164.106 137.75 120.338 116.24 82.109C112.562 75.5716 108.975 69.1962 105.456 63.3575C104.612 61.9566 103.897 60.7602 103.301 59.7568C113.844 78.6527 154.585 156.747 129.552 178.166C103.476 200.478 11.9082 138.479 11.9082 138.479L105.456 270.297H108.151C171.057 209.831 256.52 172.661 350.665 172.661C436.822 172.661 515.709 203.792 576.689 255.419Z" fill="url(#paint1_linear_15_38)"/>
<circle cx="350.665" cy="551.661" r="304.17" fill="black"/>
<path d="M284.552 793.102C239.401 780.738 198.621 755.961 166.843 721.585C135.066 687.209 113.565 644.611 104.781 598.629C95.9977 552.646 100.284 505.122 117.154 461.454C134.023 417.785 162.799 379.722 200.215 351.587C237.63 323.451 282.186 306.371 328.821 302.286C375.456 298.201 422.302 307.275 464.039 328.477C505.777 349.679 540.732 382.159 564.937 422.23C589.142 462.301 601.625 508.356 600.97 555.165L440.279 552.915C440.513 536.157 436.044 519.668 427.378 505.322C418.713 490.976 406.198 479.347 391.255 471.757C376.312 464.166 359.541 460.917 342.844 462.38C326.148 463.842 310.196 469.957 296.801 480.03C283.406 490.103 273.103 503.731 267.064 519.365C261.024 534.999 259.489 552.013 262.634 568.476C265.779 584.939 273.476 600.189 284.853 612.497C296.23 624.804 310.83 633.675 326.995 638.101L284.552 793.102Z" fill="url(#paint2_linear_15_38)"/>
<path d="M588.665 295.839L568.665 280.66C615.632 237.663 701.191 176.855 708.883 171.408C709.282 171.126 709.697 171.043 710.181 171.109C715.018 171.774 741.913 176.191 742.33 192.32C742.341 192.72 742.223 193.098 741.999 193.43C729.281 212.266 713.106 277.836 713.826 280.575C714.264 280.751 714.306 280.856 713.877 280.66C713.855 280.65 713.838 280.622 713.826 280.575C712.911 280.208 710.267 279.531 706.602 280.66C701.215 282.32 702.278 243.424 717.42 215.32C717.579 215.025 717.666 214.689 717.653 214.355C717.243 203.79 703.929 203.046 701.571 202.997C701.338 202.993 701.142 203.058 700.964 203.21C696.467 207.058 632.758 261.517 588.665 295.839Z" fill="url(#paint3_linear_15_38)"/>
<path d="M419.653 563.719C414.822 590.962 386.791 611.862 352.935 611.862C315.681 611.862 285.481 586.557 285.481 555.341C285.481 524.125 315.681 498.819 352.935 498.819C377.648 498.819 399.257 509.955 411.005 526.566C453.144 401.34 484.243 376.312 590.165 296.089C590.165 296.089 601.777 307.147 608.915 314.839C616.269 322.766 626.665 336.089 626.665 336.089C540.283 369.172 490.283 400.019 419.653 563.719Z" fill="url(#paint4_linear_15_38)"/>
<path d="M419.653 563.719C414.822 590.962 386.791 611.862 352.935 611.862C315.681 611.862 285.481 586.557 285.481 555.341C285.481 524.125 315.681 498.819 352.935 498.819C377.648 498.819 399.257 509.955 411.005 526.566C453.144 401.34 484.243 376.312 590.165 296.089C590.165 296.089 601.777 307.147 608.915 314.839C616.269 322.766 626.665 336.089 626.665 336.089C540.283 369.172 490.283 400.019 419.653 563.719Z" fill="url(#paint5_linear_15_38)"/>
<path d="M419.653 563.719C414.822 590.962 386.791 611.862 352.935 611.862C315.681 611.862 285.481 586.557 285.481 555.341C285.481 524.125 315.681 498.819 352.935 498.819C377.648 498.819 399.257 509.955 411.005 526.566C453.144 401.34 484.243 376.312 590.165 296.089C590.165 296.089 601.777 307.147 608.915 314.839C616.269 322.766 626.665 336.089 626.665 336.089C540.283 369.172 490.283 400.019 419.653 563.719Z" fill="url(#paint6_linear_15_38)"/>
<defs>
<linearGradient id="paint0_linear_15_38" x1="350.665" y1="201.661" x2="350.665" y2="901.661" gradientUnits="userSpaceOnUse">
<stop stop-color="#AA8500"/>
<stop offset="1" stop-color="#CFA600" stop-opacity="0.7"/>
</linearGradient>
<linearGradient id="paint1_linear_15_38" x1="346.286" y1="0.339479" x2="358.263" y2="206.651" gradientUnits="userSpaceOnUse">
<stop offset="0.390625" stop-color="#D0AC2A" stop-opacity="0.97"/>
<stop offset="0.549669" stop-color="#FFCD00"/>
<stop offset="0.828125" stop-color="#D9B121"/>
</linearGradient>
<linearGradient id="paint2_linear_15_38" x1="260.665" y1="342.339" x2="268.665" y2="882.339" gradientUnits="userSpaceOnUse">
<stop stop-color="#B89A2F"/>
<stop offset="1" stop-color="#EABC1A"/>
</linearGradient>
<linearGradient id="paint3_linear_15_38" x1="571.469" y1="297.108" x2="737.157" y2="170.68" gradientUnits="userSpaceOnUse">
<stop offset="0.171403" stop-color="#B89A2F"/>
<stop offset="0.59375" stop-color="#F1C116"/>
<stop offset="0.984375" stop-color="#CDA826"/>
</linearGradient>
<linearGradient id="paint4_linear_15_38" x1="713.847" y1="295.84" x2="383.258" y2="671.297" gradientUnits="userSpaceOnUse">
<stop offset="0.300418" stop-color="white"/>
<stop offset="0.90625" stop-color="#FFECEC" stop-opacity="0.15"/>
<stop offset="1" stop-color="#D9D9D9" stop-opacity="0"/>
</linearGradient>
<linearGradient id="paint5_linear_15_38" x1="266.916" y1="663.871" x2="383.258" y2="671.297" gradientUnits="userSpaceOnUse">
<stop stop-color="#858282" stop-opacity="0.8"/>
<stop offset="0.622665" stop-color="#D9D9D9" stop-opacity="0"/>
<stop offset="1" stop-color="#D9D9D9" stop-opacity="0"/>
</linearGradient>
<linearGradient id="paint6_linear_15_38" x1="400.586" y1="661.396" x2="311.472" y2="510.399" gradientUnits="userSpaceOnUse">
<stop stop-color="white"/>
<stop offset="0.622665" stop-color="white"/>
<stop offset="1" stop-color="#D9D9D9" stop-opacity="0.18"/>
</linearGradient>
</defs>
</svg>
