<svg width="1644" height="1627" viewBox="0 0 1644 1627" fill="none" xmlns="http://www.w3.org/2000/svg">
<path fill-rule="evenodd" clip-rule="evenodd" d="M743.511 51.9607L812.101 120.55L773.917 158.734L705.327 90.1445C657.293 42.11 579.414 42.11 531.379 90.1445C483.345 138.179 483.345 216.058 531.379 264.093L609.161 341.874L665.729 398.443L812.101 544.814L773.917 582.998L627.546 436.627L570.977 380.058L493.195 302.277C424.073 233.154 424.073 121.083 493.195 51.9607C562.318 -17.1621 674.388 -17.1621 743.511 51.9607ZM674.922 370.866L636.738 332.682L783.109 186.311L839.678 129.742L917.459 51.9607C986.582 -17.1621 1098.65 -17.1621 1167.78 51.9607C1236.9 121.083 1236.9 233.154 1167.78 302.277L1099.19 370.866L1061 332.682L1129.59 264.093C1177.63 216.058 1177.63 138.179 1129.59 90.1445C1081.56 42.11 1003.68 42.11 955.643 90.1445L877.861 167.926L821.293 224.495L674.922 370.866ZM848.87 233.687L887.054 195.503L1033.42 341.874L1089.99 398.443L1236.36 544.814L1198.18 582.998L1051.81 436.627L995.241 380.058L848.87 233.687ZM1099.19 795.13L1061 756.946L1207.37 610.575L1263.94 554.007L1341.72 476.225C1410.85 407.102 1522.92 407.102 1592.04 476.225C1661.16 545.348 1661.16 657.418 1592.04 726.541L1523.45 795.13L1485.27 756.946L1553.86 688.357C1601.89 640.322 1601.89 562.443 1553.86 514.409C1505.82 466.374 1427.94 466.374 1379.91 514.409L1302.13 592.19L1245.56 648.759L1099.19 795.13ZM1273.13 657.951L1311.32 619.767L1457.69 766.139L1514.26 822.707L1592.04 900.489C1661.16 969.612 1661.16 1081.68 1592.04 1150.8C1522.92 1219.93 1410.85 1219.93 1341.72 1150.8L1273.13 1082.22L1311.32 1044.03L1379.91 1112.62C1427.94 1160.66 1505.82 1160.66 1553.86 1112.62C1601.89 1064.59 1601.89 986.707 1553.86 938.673L1476.07 860.891L1419.51 804.322L1273.13 657.951ZM1410.31 831.899L1448.5 870.083L1302.13 1016.45L1245.56 1073.02L1099.19 1219.39L1061 1181.21L1207.37 1034.84L1263.94 978.271L1410.31 831.899ZM848.87 1082.22L887.054 1044.03L1033.42 1190.4L1089.99 1246.97L1167.78 1324.75C1236.9 1393.88 1236.9 1505.95 1167.78 1575.07C1098.65 1644.19 986.582 1644.19 917.459 1575.07L848.87 1506.48L887.054 1468.3L955.643 1536.88C1003.68 1584.92 1081.56 1584.92 1129.59 1536.88C1177.63 1488.85 1177.63 1410.97 1129.59 1362.94L1051.81 1285.15L995.241 1228.59L848.87 1082.22ZM986.049 1256.16L1024.23 1294.35L877.861 1440.72L821.293 1497.29L743.511 1575.07C674.388 1644.19 562.318 1644.19 493.195 1575.07C424.073 1505.95 424.073 1393.88 493.195 1324.75L561.785 1256.16L599.968 1294.35L531.379 1362.94C483.345 1410.97 483.345 1488.85 531.379 1536.88C579.414 1584.92 657.293 1584.92 705.327 1536.88L783.109 1459.1L839.678 1402.53L986.049 1256.16ZM812.101 1393.34L773.917 1431.53L627.546 1285.15L570.977 1228.59L424.606 1082.22L462.79 1044.03L609.161 1190.4L665.729 1246.97L812.101 1393.34ZM453.597 1016.45L599.968 870.083L561.785 831.899L415.414 978.271L358.845 1034.84L264.093 1129.59C216.058 1177.63 138.179 1177.63 90.1445 1129.59C42.11 1081.56 42.11 1003.68 90.1445 955.643L175.704 870.083L137.521 831.899L51.9607 917.459C-17.1621 986.582 -17.1621 1098.65 51.9607 1167.78C121.084 1236.9 233.154 1236.9 302.277 1167.78L397.029 1073.02L453.597 1016.45ZM241.465 822.707L387.836 969.078L349.653 1007.26L203.282 860.891L146.713 804.322L68.9313 726.541C-0.191467 657.418 -0.191494 545.348 68.9313 476.225C138.054 407.102 250.124 407.102 319.247 476.225L387.836 544.814L349.653 582.998L281.063 514.409C233.029 466.374 155.15 466.374 107.115 514.409C59.0806 562.443 59.0806 640.322 107.115 688.357L184.897 766.139L241.465 822.707ZM250.658 795.13L212.474 756.946L358.845 610.575L415.414 554.007L561.785 407.635L599.968 445.819L453.597 592.19L397.029 648.759L250.658 795.13ZM674.922 795.13L636.738 756.946L783.109 610.575L839.678 554.007L986.049 407.635L1024.23 445.819L877.861 592.19L821.293 648.759L674.922 795.13ZM995.241 804.322L848.87 657.951L887.054 619.767L1033.42 766.139L1089.99 822.707L1236.36 969.078L1198.18 1007.26L1051.81 860.891L995.241 804.322ZM839.678 978.271L986.049 831.899L1024.23 870.083L877.861 1016.45L821.293 1073.02L674.922 1219.39L636.738 1181.21L783.109 1034.84L839.678 978.271ZM665.729 822.707L812.101 969.078L773.917 1007.26L627.546 860.891L570.977 804.322L424.606 657.951L462.79 619.767L609.161 766.139L665.729 822.707Z" fill="#F5A13D"/>
</svg>
