<svg width="1166" height="1501" viewBox="0 0 1166 1501" fill="none" xmlns="http://www.w3.org/2000/svg">
<path d="M66.8686 1062.36C40.565 1248.28 169.964 1420.33 355.89 1446.63C449.817 1459.92 541.555 1448.64 624.606 1417.69C490.238 1340 379.475 1228.74 302.092 1096.91C299.207 1091.99 296.367 1087.05 293.575 1082.08C288.856 1076.64 285.316 1070.21 283.28 1063.22C254.33 1008.63 230.956 950.861 213.801 890.775C146.559 911.229 92.1636 964.837 72.5677 1035.09C70.1028 1043.93 68.1886 1053.03 66.8686 1062.36Z" fill="url(#paint0_linear_41_186)"/>
<path d="M210.418 429.114C210.04 431.789 209.148 434.265 207.858 436.457C199.347 464.051 192.903 492.677 188.729 522.183C188.525 523.627 188.324 525.07 188.127 526.513C170.93 652.432 180.989 775.848 213.801 890.775C230.956 950.861 254.33 1008.63 283.28 1063.22C286.637 1069.55 290.069 1075.83 293.575 1082.08C296.367 1087.05 299.206 1091.99 302.092 1096.91C379.475 1228.74 490.238 1340 624.606 1417.69C807.489 1349.52 948.248 1185.93 977.51 979.098C983.441 937.178 986.347 895.527 986.396 854.367C986.496 770.418 974.708 688.507 952.438 610.506C889.224 389.093 741.558 199.188 541.633 83.5937C446.91 118.9 363.487 179.805 301.004 259.059C261.837 308.738 230.898 365.626 210.561 427.939C210.521 428.33 210.473 428.722 210.418 429.114Z" fill="url(#paint1_linear_41_186)"/>
<path d="M1099.37 438.924C1125.67 252.998 996.275 80.9529 810.35 54.6494C716.422 41.3611 624.685 52.638 541.634 83.5936C741.558 199.188 889.224 389.094 952.438 610.506C1028.14 587.479 1087.56 522.433 1099.37 438.924Z" fill="#D9D9D9"/>
<path d="M1099.37 438.924C1125.67 252.998 996.275 80.9529 810.35 54.6494C716.422 41.3611 624.685 52.638 541.634 83.5936C741.558 199.188 889.224 389.094 952.438 610.506C1028.14 587.479 1087.56 522.433 1099.37 438.924Z" fill="url(#paint2_linear_41_186)"/>
<defs>
<linearGradient id="paint0_linear_41_186" x1="90.3739" y1="997.56" x2="518.213" y2="1426.67" gradientUnits="userSpaceOnUse">
<stop stop-color="#0985AC"/>
<stop offset="1" stop-color="#F7E011" stop-opacity="0.85"/>
</linearGradient>
<linearGradient id="paint1_linear_41_186" x1="237.999" y1="351.672" x2="1045.03" y2="857.364" gradientUnits="userSpaceOnUse">
<stop stop-color="#0985AC"/>
<stop offset="1" stop-color="#F7E011" stop-opacity="0.85"/>
</linearGradient>
<linearGradient id="paint2_linear_41_186" x1="542.05" y1="129.769" x2="969.889" y2="558.882" gradientUnits="userSpaceOnUse">
<stop stop-color="#0985AC"/>
<stop offset="1" stop-color="#F7E011" stop-opacity="0.85"/>
</linearGradient>
</defs>
</svg>
