<svg width="2004" height="1159" viewBox="0 0 2004 1159" fill="none" xmlns="http://www.w3.org/2000/svg">
<path d="M898 620.132V795.468L751.029 707.285L748 705.468V709V799V885.468L602 797.868V619V617.868L601.029 617.285L452 527.868V439V352.532L598.971 440.715L602 442.532V439V262.532L748 350.132V439V529V530.132L748.971 530.715L898 620.132ZM598 622.532V797.868L452 885.468V799V710.132L598 622.532ZM448 885.468L302 797.868V622.532L448 710.132V799V885.468ZM596.113 619L450 706.668L303.887 619L450 531.332L596.113 619ZM448 439V527.868L298.971 617.285L298 617.868V619V797.868L152 885.468V799V709V705.468L148.971 707.285L2 795.468V620.132L151.029 530.715L152 530.132V529V439V350.132L298 262.532V439V442.532L301.029 440.715L448 352.532V439ZM300 801.332L448.971 890.715L450 891.332L451.029 890.715L600 801.332L746.113 889L598.971 977.285L596.113 979L598.971 980.715L746.113 1069L600 1156.67L451.029 1067.29L450 1066.67L448.971 1067.29L300 1156.67L153.887 1069L301.029 980.715L303.887 979L301.029 977.285L153.887 889L300 801.332ZM148 799V885.468L3.88727 799L148 712.532V799ZM302 435.468V262.532L446.113 349L302 435.468ZM453.887 349L598 262.532V435.468L453.887 349ZM152 979V892.532L296.113 979L152 1065.47V979ZM748 979V1065.47L603.887 979L748 892.532V979ZM896.113 799L752 885.468V799V712.532L896.113 799Z" stroke="black" stroke-width="4"/>
<path d="M2004 799V619L1854 529V439V349L1704 259V439L1554 349V439V529L1704 619V799L1854 889V799V709L2004 799Z" fill="#D8F3DC"/>
<path d="M1404 619V799L1554 889V799V709L1404 619Z" fill="#D8F3DC"/>
<path d="M1104 619V799L1254 709V799V889L1404 799V619L1554 529V439V349L1404 439V259L1254 349V439V529L1104 619Z" fill="#74C69D"/>
<path d="M1404 979L1254 889V979V1069L1404 979Z" fill="#52B788"/>
<path d="M1854 889L1704 979L1854 1069V979V889Z" fill="#52B788"/>
<path d="M1704 799V619L1554 709V799V889L1704 799Z" fill="#52B788"/>
<path d="M1704 259L1554 349L1704 439V259Z" fill="#52B788"/>
<path d="M1704 979L1854 889L1704 799L1554 889L1404 799L1254 889L1404 979L1254 1069L1404 1159L1554 1069L1704 1159L1854 1069L1704 979Z" fill="#2D6A4F"/>
<path d="M1104 799L1254 889V799V709L1104 799Z" fill="#2D6A4F"/>
<path d="M1854 889L2004 799L1854 709V799V889Z" fill="#2D6A4F"/>
<path d="M1704 619L1554 529L1404 619L1554 709L1704 619Z" fill="#2D6A4F"/>
<path d="M1554 349L1404 259V439L1554 349Z" fill="#2D6A4F"/>
<rect x="873" width="100" height="100" fill="#74C69D"/>
<rect x="715" width="100" height="100" fill="#D8F3DC"/>
<rect x="1031" width="100" height="100" fill="#52B788"/>
<rect x="1189" width="100" height="100" fill="#2D6A4F"/>
</svg>
