<svg width="1134" height="561" viewBox="0 0 1134 561" fill="none" xmlns="http://www.w3.org/2000/svg">
<path d="M286 256C286 322.274 339.726 376 406 376H526V256C526 189.726 472.274 136 406 136H394V124C394 57.7258 340.274 4 274 4C207.726 4 154 57.7258 154 124V136H142C75.7258 136 22 189.726 22 256V376H142C208.274 376 262 322.274 262 256M394 256C394 262.627 399.373 268 406 268H418V256C418 249.373 412.627 244 406 244H286V124C286 117.373 280.627 112 274 112C267.373 112 262 117.373 262 124V244H142C135.373 244 130 249.373 130 256V268H142C148.627 268 154 262.627 154 256M313 256C313 307.362 354.638 349 406 349H499V256C499 204.638 457.362 163 406 163H367V124C367 72.6375 325.362 31 274 31C222.638 31 181 72.6375 181 124V163H142C90.6375 163 49 204.638 49 256V349H142C193.362 349 235 307.362 235 256M340 256C340 292.451 369.549 322 406 322H472V256C472 219.549 442.451 190 406 190H340V124C340 87.5492 310.451 58 274 58C237.549 58 208 87.5492 208 124V190H142C105.549 190 76 219.549 76 256V322H142C178.451 322 208 292.451 208 256M367 256C367 277.539 384.461 295 406 295H445V256C445 234.461 427.539 217 406 217H313V124C313 102.461 295.539 85 274 85C252.461 85 235 102.461 235 124V217H142C120.461 217 103 234.461 103 256V295H142C163.539 295 181 277.539 181 256" stroke="black" stroke-width="8"/>
<path d="M12.8706 468C13.3279 468 13.7526 467.543 14.1446 466.628C14.6019 465.713 14.8306 464.211 14.8306 462.12V415.08C14.8306 412.989 14.6019 411.519 14.1446 410.67C13.6872 409.755 13.2299 409.265 12.7726 409.2H44.9166C50.9926 409.2 55.7292 409.951 59.1266 411.454C62.5239 412.891 64.9086 414.982 66.2806 417.726C67.7179 420.405 68.4366 423.671 68.4366 427.526C68.4366 429.943 67.9139 432.328 66.8686 434.68C65.8232 437.032 64.1246 439.057 61.7726 440.756C59.4859 442.455 56.3826 443.565 52.4626 444.088V444.382C56.8399 445.558 60.5966 447.714 63.7326 450.85C66.9339 453.986 69.6779 457.416 71.9646 461.14C73.4672 463.557 74.8392 465.289 76.0806 466.334C77.3219 467.379 78.2692 467.935 78.9226 468H58.3426C59.1266 467.935 59.7472 467.51 60.2046 466.726C60.7272 465.877 60.5639 464.505 59.7146 462.61C58.3426 459.474 56.3826 456.697 53.8346 454.28C51.3519 451.797 48.2159 449.87 44.4266 448.498C40.6372 447.061 36.1292 446.342 30.9026 446.342H29.8246C27.7992 446.342 26.6232 446.505 26.2966 446.832C25.9699 447.159 25.8066 447.975 25.8066 449.282V462.12C25.8066 464.211 26.0352 465.713 26.4926 466.628C26.9499 467.543 27.4072 468 27.8646 468H12.8706ZM29.8246 438.502H41.8786C47.1052 438.502 51.0252 437.587 53.6386 435.758C56.2519 433.863 57.5586 431.119 57.5586 427.526C57.5586 425.109 57.0359 423.149 55.9906 421.646C55.0106 420.078 53.4426 418.935 51.2866 418.216C49.1306 417.497 46.3212 417.138 42.8586 417.138H29.8246C27.7992 417.138 26.6232 417.236 26.2966 417.432C25.9699 417.628 25.8066 418.379 25.8066 419.686V435.856C25.8066 437.163 25.9699 437.947 26.2966 438.208C26.6232 438.404 27.7992 438.502 29.8246 438.502ZM80.2195 468C80.4809 468 80.9382 467.543 81.5915 466.628C82.2449 465.713 83.0942 464.178 84.1395 462.022C84.5969 461.042 85.3809 459.376 86.4915 457.024C87.6022 454.672 88.9089 451.895 90.4115 448.694C91.9142 445.493 93.4822 442.161 95.1155 438.698C96.7489 435.17 98.2842 431.805 99.7215 428.604C101.224 425.403 102.531 422.593 103.642 420.176C104.752 417.759 105.536 416.06 105.994 415.08C106.908 412.989 107.398 411.487 107.464 410.572C107.529 409.657 107.398 409.2 107.072 409.2H124.222C123.96 409.2 123.862 409.657 123.928 410.572C123.993 411.487 124.45 412.989 125.3 415.08C125.757 416.06 126.508 417.759 127.554 420.176C128.599 422.528 129.84 425.305 131.278 428.506C132.78 431.707 134.316 435.039 135.884 438.502C137.452 441.899 138.987 445.199 140.49 448.4C141.992 451.601 143.299 454.411 144.41 456.828C145.52 459.245 146.337 460.977 146.86 462.022C147.905 464.178 148.852 465.713 149.702 466.628C150.616 467.543 151.302 468 151.76 468H133.63C134.283 467.869 134.806 467.347 135.198 466.432C135.655 465.517 135.59 464.047 135.002 462.022C134.871 461.499 134.642 460.748 134.316 459.768C133.989 458.788 133.695 458.069 133.434 457.612C133.042 456.697 132.65 456.044 132.258 455.652C131.866 455.26 131.343 454.999 130.69 454.868C130.102 454.737 129.252 454.672 128.142 454.672H103.054C101.812 454.672 100.832 454.737 100.114 454.868C99.3949 454.933 98.8395 455.162 98.4475 455.554C98.1209 455.946 97.7942 456.599 97.4675 457.514C97.2062 458.298 96.9449 459.082 96.6835 459.866C96.4222 460.65 96.2262 461.369 96.0955 462.022C95.5075 464.178 95.3442 465.713 95.6055 466.628C95.8669 467.543 96.2262 468 96.6835 468H80.2195ZM105.602 446.832H125.3C127.194 446.832 128.24 446.669 128.436 446.342C128.632 446.015 128.534 445.297 128.142 444.186C127.292 442.095 126.312 439.841 125.202 437.424C124.091 434.941 122.948 432.491 121.772 430.074C120.661 427.591 119.55 425.239 118.44 423.018C117.394 420.731 116.48 418.739 115.696 417.04H115.5C114.128 419.915 112.723 422.92 111.286 426.056C109.848 429.127 108.476 432.034 107.17 434.778C105.928 437.457 104.916 439.645 104.132 441.344C103.348 443.043 102.956 443.892 102.956 443.892C102.498 444.937 102.335 445.689 102.466 446.146C102.662 446.603 103.707 446.832 105.602 446.832ZM158.05 468C158.507 468 158.965 467.543 159.422 466.628C159.879 465.713 160.108 464.211 160.108 462.12V415.08C160.108 412.989 159.879 411.519 159.422 410.67C158.965 409.755 158.507 409.265 158.05 409.2H188.822C194.637 409.2 199.471 409.755 203.326 410.866C207.246 411.977 210.382 413.512 212.734 415.472C215.151 417.432 216.981 419.686 218.222 422.234C219.463 424.717 220.28 427.363 220.672 430.172C221.129 432.981 221.358 435.823 221.358 438.698C221.358 441.311 221.129 444.023 220.672 446.832C220.28 449.576 219.431 452.222 218.124 454.77C216.883 457.253 215.053 459.507 212.636 461.532C210.284 463.492 207.148 465.06 203.228 466.236C199.373 467.412 194.571 468 188.822 468H158.05ZM175.004 460.062H187.058C192.677 460.062 197.185 459.343 200.582 457.906C203.979 456.469 206.462 454.247 208.03 451.242C209.598 448.171 210.382 444.219 210.382 439.384V437.62C210.382 432.524 209.663 428.506 208.226 425.566C206.789 422.561 204.371 420.437 200.974 419.196C197.577 417.889 192.938 417.236 187.058 417.236H175.004C173.109 417.236 171.966 417.367 171.574 417.628C171.247 417.824 171.084 418.608 171.084 419.98V457.122C171.084 458.559 171.247 459.409 171.574 459.67C171.966 459.931 173.109 460.062 175.004 460.062ZM231.646 468C232.103 468 232.56 467.543 233.018 466.628C233.475 465.713 233.704 464.211 233.704 462.12V415.08C233.704 412.989 233.475 411.519 233.018 410.67C232.56 409.755 232.103 409.265 231.646 409.2H246.738C246.28 409.2 245.823 409.657 245.366 410.572C244.908 411.487 244.68 413.022 244.68 415.178V462.12C244.68 464.211 244.908 465.713 245.366 466.628C245.823 467.543 246.28 468 246.738 468H231.646ZM289.31 468.98C282.189 468.98 275.884 468.653 270.396 468C264.908 467.347 260.956 466.693 258.538 466.04V464.08L256.578 453.594C257.493 454.639 259.224 455.75 261.772 456.926C264.386 458.102 267.848 459.115 272.16 459.964C276.472 460.748 281.601 461.14 287.546 461.14C292.904 461.14 296.954 460.781 299.698 460.062C302.508 459.278 304.402 458.233 305.382 456.926C306.428 455.554 306.95 453.986 306.95 452.222C306.95 450.131 306.101 448.465 304.402 447.224C302.704 445.983 300.156 445.003 296.758 444.284C293.426 443.5 289.278 442.814 284.312 442.226C277.844 441.377 272.65 440.266 268.73 438.894C264.81 437.457 261.968 435.562 260.204 433.21C258.44 430.858 257.558 427.885 257.558 424.292C257.558 421.221 258.473 418.477 260.302 416.06C262.197 413.643 265.039 411.748 268.828 410.376C272.618 408.939 277.452 408.22 283.332 408.22C290.127 408.22 296.04 408.547 301.07 409.2C306.101 409.853 309.662 410.507 311.752 411.16V413.12L314.692 421.94C313.32 421.091 311.197 420.209 308.322 419.294C305.513 418.379 302.116 417.628 298.13 417.04C294.145 416.387 289.702 416.06 284.802 416.06C280.752 416.06 277.518 416.354 275.1 416.942C272.748 417.53 271.05 418.412 270.004 419.588C269.024 420.699 268.534 422.071 268.534 423.704C268.534 425.86 269.318 427.591 270.886 428.898C272.52 430.205 274.872 431.217 277.942 431.936C281.078 432.655 284.868 433.275 289.31 433.798C296.366 434.582 301.985 435.693 306.166 437.13C310.348 438.567 313.353 440.495 315.182 442.912C317.012 445.329 317.926 448.465 317.926 452.32C317.926 454.868 317.306 457.187 316.064 459.278C314.888 461.303 313.092 463.067 310.674 464.57C308.257 466.007 305.252 467.118 301.658 467.902C298.13 468.621 294.014 468.98 289.31 468.98ZM358.504 468.98C351.382 468.98 345.078 468.653 339.59 468C334.102 467.347 330.149 466.693 327.732 466.04V464.08L325.772 453.594C326.686 454.639 328.418 455.75 330.966 456.926C333.579 458.102 337.042 459.115 341.354 459.964C345.666 460.748 350.794 461.14 356.74 461.14C362.097 461.14 366.148 460.781 368.892 460.062C371.701 459.278 373.596 458.233 374.576 456.926C375.621 455.554 376.144 453.986 376.144 452.222C376.144 450.131 375.294 448.465 373.596 447.224C371.897 445.983 369.349 445.003 365.952 444.284C362.62 443.5 358.471 442.814 353.506 442.226C347.038 441.377 341.844 440.266 337.924 438.894C334.004 437.457 331.162 435.562 329.398 433.21C327.634 430.858 326.752 427.885 326.752 424.292C326.752 421.221 327.666 418.477 329.496 416.06C331.39 413.643 334.232 411.748 338.022 410.376C341.811 408.939 346.646 408.22 352.526 408.22C359.32 408.22 365.233 408.547 370.264 409.2C375.294 409.853 378.855 410.507 380.946 411.16V413.12L383.886 421.94C382.514 421.091 380.39 420.209 377.516 419.294C374.706 418.379 371.309 417.628 367.324 417.04C363.338 416.387 358.896 416.06 353.996 416.06C349.945 416.06 346.711 416.354 344.294 416.942C341.942 417.53 340.243 418.412 339.198 419.588C338.218 420.699 337.728 422.071 337.728 423.704C337.728 425.86 338.512 427.591 340.08 428.898C341.713 430.205 344.065 431.217 347.136 431.936C350.272 432.655 354.061 433.275 358.504 433.798C365.56 434.582 371.178 435.693 375.36 437.13C379.541 438.567 382.546 440.495 384.376 442.912C386.205 445.329 387.12 448.465 387.12 452.32C387.12 454.868 386.499 457.187 385.258 459.278C384.082 461.303 382.285 463.067 379.868 464.57C377.45 466.007 374.445 467.118 370.852 467.902C367.324 468.621 363.208 468.98 358.504 468.98ZM427.305 468.98C416.068 468.98 407.934 466.301 402.903 460.944C397.938 455.521 395.455 447.975 395.455 438.306C395.455 432.099 396.533 426.775 398.689 422.332C400.91 417.824 404.34 414.361 408.979 411.944C413.683 409.461 419.792 408.22 427.305 408.22H430.343C437.726 408.22 443.704 409.429 448.277 411.846C452.916 414.263 456.313 417.726 458.469 422.234C460.625 426.742 461.703 432.099 461.703 438.306C461.703 447.975 459.22 455.521 454.255 460.944C449.29 466.301 441.319 468.98 430.343 468.98H427.305ZM428.285 461.042H429.363C434.263 461.042 438.281 460.323 441.417 458.886C444.553 457.449 446.872 455.097 448.375 451.83C449.943 448.498 450.727 443.99 450.727 438.306C450.727 432.753 449.943 428.375 448.375 425.174C446.807 421.907 444.455 419.588 441.319 418.216C438.183 416.779 434.198 416.06 429.363 416.06H428.285C423.385 416.06 419.302 416.779 416.035 418.216C412.834 419.653 410.416 422.005 408.783 425.272C407.215 428.539 406.431 432.883 406.431 438.306C406.431 443.925 407.215 448.4 408.783 451.732C410.416 455.064 412.866 457.449 416.133 458.886C419.4 460.323 423.45 461.042 428.285 461.042ZM471.956 468C472.414 468 472.871 467.543 473.328 466.628C473.786 465.713 474.014 464.211 474.014 462.12V415.08C474.014 412.989 473.786 411.519 473.328 410.67C472.871 409.755 472.414 409.265 471.956 409.2H487.146C487.081 409.396 487.31 409.984 487.832 410.964C488.42 411.944 489.466 413.381 490.968 415.276C491.426 415.864 492.373 417.04 493.81 418.804C495.313 420.568 497.175 422.757 499.396 425.37C501.618 427.918 504.002 430.727 506.55 433.798C509.164 436.803 511.777 439.874 514.39 443.01C517.069 446.081 519.617 449.021 522.034 451.83H522.23V415.08C522.23 412.989 522.002 411.519 521.544 410.67C521.087 409.755 520.63 409.265 520.172 409.2H535.264C534.807 409.2 534.35 409.657 533.892 410.572C533.435 411.487 533.206 413.022 533.206 415.178V462.12C533.206 464.211 533.435 465.713 533.892 466.628C534.35 467.543 534.807 468 535.264 468H522.426C522.492 467.804 522.23 467.216 521.642 466.236C521.054 465.191 520.009 463.753 518.506 461.924C517.526 460.683 516.089 458.951 514.194 456.73C512.365 454.443 510.274 451.863 507.922 448.988C505.57 446.048 503.055 442.977 500.376 439.776C497.763 436.575 495.15 433.373 492.536 430.172C489.988 426.971 487.571 423.998 485.284 421.254H484.99V462.12C484.99 464.211 485.219 465.713 485.676 466.628C486.134 467.543 486.591 468 487.048 468H471.956Z" fill="black"/>
<path d="M212.045 488.44L207.405 489.4C206.392 489.667 205.885 490.28 205.885 491.24V525.32C205.885 526.333 206.392 526.947 207.405 527.16L212.045 528.04V531H193.885V528.04L197.805 527.16C198.872 526.893 199.405 526.28 199.405 525.32V509.56H177.965V525.4C177.965 526.36 178.472 526.947 179.485 527.16L183.725 528.04V531H165.325V528.04L169.965 527.16C170.978 527 171.485 526.387 171.485 525.32V491.24C171.485 490.173 170.978 489.56 169.965 489.4L165.325 488.44V485.48H183.725V488.44L179.405 489.4C178.445 489.667 177.965 490.28 177.965 491.24V505.8H199.405V491.24C199.405 490.28 198.898 489.667 197.885 489.4L193.805 488.44V485.48H212.045V488.44ZM237.185 531.64C230.892 531.64 226.145 529.613 222.945 525.56C219.798 521.507 218.225 515.987 218.225 509C218.225 503.773 219.078 499.373 220.785 495.8C222.492 492.173 224.865 489.427 227.905 487.56C230.998 485.693 234.598 484.76 238.705 484.76C244.998 484.76 249.718 486.813 252.865 490.92C256.012 494.973 257.585 500.493 257.585 507.48C257.585 512.6 256.758 516.973 255.105 520.6C253.452 524.173 251.078 526.92 247.985 528.84C244.945 530.707 241.345 531.64 237.185 531.64ZM237.985 488.2C233.985 488.2 230.892 489.853 228.705 493.16C226.518 496.467 225.425 501.507 225.425 508.28C225.425 514.84 226.438 519.8 228.465 523.16C230.545 526.52 233.665 528.2 237.825 528.2C241.772 528.2 244.838 526.547 247.025 523.24C249.265 519.933 250.385 514.867 250.385 508.04C250.385 501.533 249.345 496.6 247.265 493.24C245.238 489.88 242.145 488.2 237.985 488.2ZM270.877 531V528.04L277.757 527C278.824 526.84 279.357 526.253 279.357 525.24V488.76H275.917C274.584 488.76 273.384 488.813 272.317 488.92C271.25 489.027 270.45 489.16 269.917 489.32C269.01 489.64 268.477 490.253 268.317 491.16L266.397 499.32H262.957C262.744 496.867 262.664 494.52 262.717 492.28C262.77 490.04 262.93 487.773 263.197 485.48H301.917C302.13 487.773 302.237 490.04 302.237 492.28C302.29 494.52 302.21 496.867 301.997 499.32H298.557L296.637 491.08C296.584 490.6 296.424 490.227 296.157 489.96C295.89 489.693 295.57 489.48 295.197 489.32C293.917 488.947 291.944 488.76 289.277 488.76H285.757V525.24C285.757 526.253 286.29 526.84 287.357 527L294.157 528.04V531H270.877ZM337.41 496.68L336.13 491.08C335.863 490.28 335.303 489.72 334.45 489.4C333.757 489.187 332.877 489.027 331.81 488.92C330.743 488.813 329.597 488.76 328.37 488.76H321.09V505.88L335.25 505.4V509.8L321.09 509.48V527.48H329.97C331.25 527.48 332.477 527.427 333.65 527.32C334.823 527.213 335.73 527.027 336.37 526.76C336.85 526.6 337.197 526.387 337.41 526.12C337.677 525.853 337.89 525.48 338.05 525L340.21 518.76L343.41 519.16C343.41 521.08 343.303 523.027 343.09 525C342.877 526.973 342.583 528.973 342.21 531H308.45V528.04L313.09 527.16C314.103 527 314.61 526.413 314.61 525.4V491.24C314.61 490.173 314.103 489.56 313.09 489.4L308.45 488.44V485.48H340.77C340.877 487.293 340.93 489.107 340.93 490.92C340.93 492.733 340.85 494.653 340.69 496.68H337.41ZM380.829 517.16L384.109 517.56C384.056 519.64 383.949 521.88 383.789 524.28C383.629 526.627 383.309 528.867 382.829 531H349.309V528.04L353.949 527.24C354.963 527.08 355.469 526.467 355.469 525.4V491.16C355.469 490.093 354.963 489.48 353.949 489.32L349.309 488.44V485.48H369.549V488.44L363.469 489.4C362.456 489.613 361.949 490.227 361.949 491.24V527.48H370.189C371.576 527.48 372.803 527.427 373.869 527.32C374.989 527.213 375.896 527.027 376.589 526.76C377.443 526.44 378.003 525.853 378.269 525L380.829 517.16Z" fill="black"/>
<path d="M872 256C872 322.274 925.726 376 992 376H1112V256C1112 189.726 1058.27 136 992 136H980V124C980 57.7258 926.274 4 860 4C793.726 4 740 57.7258 740 124V136H728C661.726 136 608 189.726 608 256V376H728C794.274 376 848 322.274 848 256M980 256C980 262.627 985.373 268 992 268H1004V256C1004 249.373 998.627 244 992 244H872V124C872 117.373 866.627 112 860 112C853.373 112 848 117.373 848 124V244H728C721.373 244 716 249.373 716 256V268H728C734.627 268 740 262.627 740 256M899 256C899 307.362 940.638 349 992 349H1085V256C1085 204.638 1043.36 163 992 163H953V124C953 72.6375 911.362 31 860 31C808.638 31 767 72.6375 767 124V163H728C676.638 163 635 204.638 635 256V349H728C779.362 349 821 307.362 821 256M926 256C926 292.451 955.549 322 992 322H1058V256C1058 219.549 1028.45 190 992 190H926V124C926 87.5492 896.451 58 860 58C823.549 58 794 87.5492 794 124V190H728C691.549 190 662 219.549 662 256V322H728C764.451 322 794 292.451 794 256M953 256C953 277.539 970.461 295 992 295H1031V256C1031 234.461 1013.54 217 992 217H899V124C899 102.461 881.539 85 860 85C838.461 85 821 102.461 821 124V217H728C706.461 217 689 234.461 689 256V295H728C749.539 295 767 277.539 767 256" stroke="url(#paint0_linear_19_102)" stroke-width="8"/>
<path d="M598.871 468C599.328 468 599.753 467.543 600.145 466.628C600.602 465.713 600.831 464.211 600.831 462.12V415.08C600.831 412.989 600.602 411.519 600.145 410.67C599.687 409.755 599.23 409.265 598.773 409.2H630.917C636.993 409.2 641.729 409.951 645.127 411.454C648.524 412.891 650.909 414.982 652.281 417.726C653.718 420.405 654.437 423.671 654.437 427.526C654.437 429.943 653.914 432.328 652.869 434.68C651.823 437.032 650.125 439.057 647.773 440.756C645.486 442.455 642.383 443.565 638.463 444.088V444.382C642.84 445.558 646.597 447.714 649.733 450.85C652.934 453.986 655.678 457.416 657.965 461.14C659.467 463.557 660.839 465.289 662.081 466.334C663.322 467.379 664.269 467.935 664.923 468H644.343C645.127 467.935 645.747 467.51 646.205 466.726C646.727 465.877 646.564 464.505 645.715 462.61C644.343 459.474 642.383 456.697 639.835 454.28C637.352 451.797 634.216 449.87 630.427 448.498C626.637 447.061 622.129 446.342 616.903 446.342H615.825C613.799 446.342 612.623 446.505 612.297 446.832C611.97 447.159 611.807 447.975 611.807 449.282V462.12C611.807 464.211 612.035 465.713 612.493 466.628C612.95 467.543 613.407 468 613.865 468H598.871ZM615.825 438.502H627.879C633.105 438.502 637.025 437.587 639.639 435.758C642.252 433.863 643.559 431.119 643.559 427.526C643.559 425.109 643.036 423.149 641.991 421.646C641.011 420.078 639.443 418.935 637.287 418.216C635.131 417.497 632.321 417.138 628.859 417.138H615.825C613.799 417.138 612.623 417.236 612.297 417.432C611.97 417.628 611.807 418.379 611.807 419.686V435.856C611.807 437.163 611.97 437.947 612.297 438.208C612.623 438.404 613.799 438.502 615.825 438.502ZM666.22 468C666.481 468 666.938 467.543 667.592 466.628C668.245 465.713 669.094 464.178 670.14 462.022C670.597 461.042 671.381 459.376 672.492 457.024C673.602 454.672 674.909 451.895 676.412 448.694C677.914 445.493 679.482 442.161 681.116 438.698C682.749 435.17 684.284 431.805 685.722 428.604C687.224 425.403 688.531 422.593 689.642 420.176C690.752 417.759 691.536 416.06 691.994 415.08C692.908 412.989 693.398 411.487 693.464 410.572C693.529 409.657 693.398 409.2 693.072 409.2H710.222C709.96 409.2 709.862 409.657 709.928 410.572C709.993 411.487 710.45 412.989 711.3 415.08C711.757 416.06 712.508 417.759 713.554 420.176C714.599 422.528 715.84 425.305 717.278 428.506C718.78 431.707 720.316 435.039 721.884 438.502C723.452 441.899 724.987 445.199 726.49 448.4C727.992 451.601 729.299 454.411 730.41 456.828C731.52 459.245 732.337 460.977 732.86 462.022C733.905 464.178 734.852 465.713 735.702 466.628C736.616 467.543 737.302 468 737.76 468H719.63C720.283 467.869 720.806 467.347 721.198 466.432C721.655 465.517 721.59 464.047 721.002 462.022C720.871 461.499 720.642 460.748 720.316 459.768C719.989 458.788 719.695 458.069 719.434 457.612C719.042 456.697 718.65 456.044 718.258 455.652C717.866 455.26 717.343 454.999 716.69 454.868C716.102 454.737 715.252 454.672 714.142 454.672H689.054C687.812 454.672 686.832 454.737 686.114 454.868C685.395 454.933 684.84 455.162 684.448 455.554C684.121 455.946 683.794 456.599 683.468 457.514C683.206 458.298 682.945 459.082 682.684 459.866C682.422 460.65 682.226 461.369 682.096 462.022C681.508 464.178 681.344 465.713 681.606 466.628C681.867 467.543 682.226 468 682.684 468H666.22ZM691.602 446.832H711.3C713.194 446.832 714.24 446.669 714.436 446.342C714.632 446.015 714.534 445.297 714.142 444.186C713.292 442.095 712.312 439.841 711.202 437.424C710.091 434.941 708.948 432.491 707.772 430.074C706.661 427.591 705.55 425.239 704.44 423.018C703.394 420.731 702.48 418.739 701.696 417.04H701.5C700.128 419.915 698.723 422.92 697.286 426.056C695.848 429.127 694.476 432.034 693.17 434.778C691.928 437.457 690.916 439.645 690.132 441.344C689.348 443.043 688.956 443.892 688.956 443.892C688.498 444.937 688.335 445.689 688.466 446.146C688.662 446.603 689.707 446.832 691.602 446.832ZM744.05 468C744.507 468 744.965 467.543 745.422 466.628C745.879 465.713 746.108 464.211 746.108 462.12V415.08C746.108 412.989 745.879 411.519 745.422 410.67C744.965 409.755 744.507 409.265 744.05 409.2H774.822C780.637 409.2 785.471 409.755 789.326 410.866C793.246 411.977 796.382 413.512 798.734 415.472C801.151 417.432 802.981 419.686 804.222 422.234C805.463 424.717 806.28 427.363 806.672 430.172C807.129 432.981 807.358 435.823 807.358 438.698C807.358 441.311 807.129 444.023 806.672 446.832C806.28 449.576 805.431 452.222 804.124 454.77C802.883 457.253 801.053 459.507 798.636 461.532C796.284 463.492 793.148 465.06 789.228 466.236C785.373 467.412 780.571 468 774.822 468H744.05ZM761.004 460.062H773.058C778.677 460.062 783.185 459.343 786.582 457.906C789.979 456.469 792.462 454.247 794.03 451.242C795.598 448.171 796.382 444.219 796.382 439.384V437.62C796.382 432.524 795.663 428.506 794.226 425.566C792.789 422.561 790.371 420.437 786.974 419.196C783.577 417.889 778.938 417.236 773.058 417.236H761.004C759.109 417.236 757.966 417.367 757.574 417.628C757.247 417.824 757.084 418.608 757.084 419.98V457.122C757.084 458.559 757.247 459.409 757.574 459.67C757.966 459.931 759.109 460.062 761.004 460.062ZM817.646 468C818.103 468 818.56 467.543 819.018 466.628C819.475 465.713 819.704 464.211 819.704 462.12V415.08C819.704 412.989 819.475 411.519 819.018 410.67C818.56 409.755 818.103 409.265 817.646 409.2H832.738C832.28 409.2 831.823 409.657 831.366 410.572C830.908 411.487 830.68 413.022 830.68 415.178V462.12C830.68 464.211 830.908 465.713 831.366 466.628C831.823 467.543 832.28 468 832.738 468H817.646ZM875.31 468.98C868.189 468.98 861.884 468.653 856.396 468C850.908 467.347 846.956 466.693 844.538 466.04V464.08L842.578 453.594C843.493 454.639 845.224 455.75 847.772 456.926C850.386 458.102 853.848 459.115 858.16 459.964C862.472 460.748 867.601 461.14 873.546 461.14C878.904 461.14 882.954 460.781 885.698 460.062C888.508 459.278 890.402 458.233 891.382 456.926C892.428 455.554 892.95 453.986 892.95 452.222C892.95 450.131 892.101 448.465 890.402 447.224C888.704 445.983 886.156 445.003 882.758 444.284C879.426 443.5 875.278 442.814 870.312 442.226C863.844 441.377 858.65 440.266 854.73 438.894C850.81 437.457 847.968 435.562 846.204 433.21C844.44 430.858 843.558 427.885 843.558 424.292C843.558 421.221 844.473 418.477 846.302 416.06C848.197 413.643 851.039 411.748 854.828 410.376C858.618 408.939 863.452 408.22 869.332 408.22C876.127 408.22 882.04 408.547 887.07 409.2C892.101 409.853 895.662 410.507 897.752 411.16V413.12L900.692 421.94C899.32 421.091 897.197 420.209 894.322 419.294C891.513 418.379 888.116 417.628 884.13 417.04C880.145 416.387 875.702 416.06 870.802 416.06C866.752 416.06 863.518 416.354 861.1 416.942C858.748 417.53 857.05 418.412 856.004 419.588C855.024 420.699 854.534 422.071 854.534 423.704C854.534 425.86 855.318 427.591 856.886 428.898C858.52 430.205 860.872 431.217 863.942 431.936C867.078 432.655 870.868 433.275 875.31 433.798C882.366 434.582 887.985 435.693 892.166 437.13C896.348 438.567 899.353 440.495 901.182 442.912C903.012 445.329 903.926 448.465 903.926 452.32C903.926 454.868 903.306 457.187 902.064 459.278C900.888 461.303 899.092 463.067 896.674 464.57C894.257 466.007 891.252 467.118 887.658 467.902C884.13 468.621 880.014 468.98 875.31 468.98ZM944.504 468.98C937.382 468.98 931.078 468.653 925.59 468C920.102 467.347 916.149 466.693 913.732 466.04V464.08L911.772 453.594C912.686 454.639 914.418 455.75 916.966 456.926C919.579 458.102 923.042 459.115 927.354 459.964C931.666 460.748 936.794 461.14 942.74 461.14C948.097 461.14 952.148 460.781 954.892 460.062C957.701 459.278 959.596 458.233 960.576 456.926C961.621 455.554 962.144 453.986 962.144 452.222C962.144 450.131 961.294 448.465 959.596 447.224C957.897 445.983 955.349 445.003 951.952 444.284C948.62 443.5 944.471 442.814 939.506 442.226C933.038 441.377 927.844 440.266 923.924 438.894C920.004 437.457 917.162 435.562 915.398 433.21C913.634 430.858 912.752 427.885 912.752 424.292C912.752 421.221 913.666 418.477 915.496 416.06C917.39 413.643 920.232 411.748 924.022 410.376C927.811 408.939 932.646 408.22 938.526 408.22C945.32 408.22 951.233 408.547 956.264 409.2C961.294 409.853 964.855 410.507 966.946 411.16V413.12L969.886 421.94C968.514 421.091 966.39 420.209 963.516 419.294C960.706 418.379 957.309 417.628 953.324 417.04C949.338 416.387 944.896 416.06 939.996 416.06C935.945 416.06 932.711 416.354 930.294 416.942C927.942 417.53 926.243 418.412 925.198 419.588C924.218 420.699 923.728 422.071 923.728 423.704C923.728 425.86 924.512 427.591 926.08 428.898C927.713 430.205 930.065 431.217 933.136 431.936C936.272 432.655 940.061 433.275 944.504 433.798C951.56 434.582 957.178 435.693 961.36 437.13C965.541 438.567 968.546 440.495 970.376 442.912C972.205 445.329 973.12 448.465 973.12 452.32C973.12 454.868 972.499 457.187 971.258 459.278C970.082 461.303 968.285 463.067 965.868 464.57C963.45 466.007 960.445 467.118 956.852 467.902C953.324 468.621 949.208 468.98 944.504 468.98ZM1013.3 468.98C1002.07 468.98 993.934 466.301 988.903 460.944C983.938 455.521 981.455 447.975 981.455 438.306C981.455 432.099 982.533 426.775 984.689 422.332C986.91 417.824 990.34 414.361 994.979 411.944C999.683 409.461 1005.79 408.22 1013.3 408.22H1016.34C1023.73 408.22 1029.7 409.429 1034.28 411.846C1038.92 414.263 1042.31 417.726 1044.47 422.234C1046.62 426.742 1047.7 432.099 1047.7 438.306C1047.7 447.975 1045.22 455.521 1040.25 460.944C1035.29 466.301 1027.32 468.98 1016.34 468.98H1013.3ZM1014.28 461.042H1015.36C1020.26 461.042 1024.28 460.323 1027.42 458.886C1030.55 457.449 1032.87 455.097 1034.37 451.83C1035.94 448.498 1036.73 443.99 1036.73 438.306C1036.73 432.753 1035.94 428.375 1034.37 425.174C1032.81 421.907 1030.45 419.588 1027.32 418.216C1024.18 416.779 1020.2 416.06 1015.36 416.06H1014.28C1009.38 416.06 1005.3 416.779 1002.03 418.216C998.834 419.653 996.416 422.005 994.783 425.272C993.215 428.539 992.431 432.883 992.431 438.306C992.431 443.925 993.215 448.4 994.783 451.732C996.416 455.064 998.866 457.449 1002.13 458.886C1005.4 460.323 1009.45 461.042 1014.28 461.042ZM1057.96 468C1058.41 468 1058.87 467.543 1059.33 466.628C1059.79 465.713 1060.01 464.211 1060.01 462.12V415.08C1060.01 412.989 1059.79 411.519 1059.33 410.67C1058.87 409.755 1058.41 409.265 1057.96 409.2H1073.15C1073.08 409.396 1073.31 409.984 1073.83 410.964C1074.42 411.944 1075.47 413.381 1076.97 415.276C1077.43 415.864 1078.37 417.04 1079.81 418.804C1081.31 420.568 1083.17 422.757 1085.4 425.37C1087.62 427.918 1090 430.727 1092.55 433.798C1095.16 436.803 1097.78 439.874 1100.39 443.01C1103.07 446.081 1105.62 449.021 1108.03 451.83H1108.23V415.08C1108.23 412.989 1108 411.519 1107.54 410.67C1107.09 409.755 1106.63 409.265 1106.17 409.2H1121.26C1120.81 409.2 1120.35 409.657 1119.89 410.572C1119.43 411.487 1119.21 413.022 1119.21 415.178V462.12C1119.21 464.211 1119.43 465.713 1119.89 466.628C1120.35 467.543 1120.81 468 1121.26 468H1108.43C1108.49 467.804 1108.23 467.216 1107.64 466.236C1107.05 465.191 1106.01 463.753 1104.51 461.924C1103.53 460.683 1102.09 458.951 1100.19 456.73C1098.36 454.443 1096.27 451.863 1093.92 448.988C1091.57 446.048 1089.05 442.977 1086.38 439.776C1083.76 436.575 1081.15 433.373 1078.54 430.172C1075.99 426.971 1073.57 423.998 1071.28 421.254H1070.99V462.12C1070.99 464.211 1071.22 465.713 1071.68 466.628C1072.13 467.543 1072.59 468 1073.05 468H1057.96Z" fill="black"/>
<path d="M798.045 488.44L793.405 489.4C792.392 489.667 791.885 490.28 791.885 491.24V525.32C791.885 526.333 792.392 526.947 793.405 527.16L798.045 528.04V531H779.885V528.04L783.805 527.16C784.872 526.893 785.405 526.28 785.405 525.32V509.56H763.965V525.4C763.965 526.36 764.472 526.947 765.485 527.16L769.725 528.04V531H751.325V528.04L755.965 527.16C756.978 527 757.485 526.387 757.485 525.32V491.24C757.485 490.173 756.978 489.56 755.965 489.4L751.325 488.44V485.48H769.725V488.44L765.405 489.4C764.445 489.667 763.965 490.28 763.965 491.24V505.8H785.405V491.24C785.405 490.28 784.898 489.667 783.885 489.4L779.805 488.44V485.48H798.045V488.44ZM823.185 531.64C816.892 531.64 812.145 529.613 808.945 525.56C805.798 521.507 804.225 515.987 804.225 509C804.225 503.773 805.078 499.373 806.785 495.8C808.492 492.173 810.865 489.427 813.905 487.56C816.998 485.693 820.598 484.76 824.705 484.76C830.998 484.76 835.718 486.813 838.865 490.92C842.012 494.973 843.585 500.493 843.585 507.48C843.585 512.6 842.758 516.973 841.105 520.6C839.452 524.173 837.078 526.92 833.985 528.84C830.945 530.707 827.345 531.64 823.185 531.64ZM823.985 488.2C819.985 488.2 816.892 489.853 814.705 493.16C812.518 496.467 811.425 501.507 811.425 508.28C811.425 514.84 812.438 519.8 814.465 523.16C816.545 526.52 819.665 528.2 823.825 528.2C827.772 528.2 830.838 526.547 833.025 523.24C835.265 519.933 836.385 514.867 836.385 508.04C836.385 501.533 835.345 496.6 833.265 493.24C831.238 489.88 828.145 488.2 823.985 488.2ZM856.877 531V528.04L863.757 527C864.824 526.84 865.357 526.253 865.357 525.24V488.76H861.917C860.584 488.76 859.384 488.813 858.317 488.92C857.25 489.027 856.45 489.16 855.917 489.32C855.01 489.64 854.477 490.253 854.317 491.16L852.397 499.32H848.957C848.744 496.867 848.664 494.52 848.717 492.28C848.77 490.04 848.93 487.773 849.197 485.48H887.917C888.13 487.773 888.237 490.04 888.237 492.28C888.29 494.52 888.21 496.867 887.997 499.32H884.557L882.637 491.08C882.584 490.6 882.424 490.227 882.157 489.96C881.89 489.693 881.57 489.48 881.197 489.32C879.917 488.947 877.944 488.76 875.277 488.76H871.757V525.24C871.757 526.253 872.29 526.84 873.357 527L880.157 528.04V531H856.877ZM923.41 496.68L922.13 491.08C921.863 490.28 921.303 489.72 920.45 489.4C919.757 489.187 918.877 489.027 917.81 488.92C916.743 488.813 915.597 488.76 914.37 488.76H907.09V505.88L921.25 505.4V509.8L907.09 509.48V527.48H915.97C917.25 527.48 918.477 527.427 919.65 527.32C920.823 527.213 921.73 527.027 922.37 526.76C922.85 526.6 923.197 526.387 923.41 526.12C923.677 525.853 923.89 525.48 924.05 525L926.21 518.76L929.41 519.16C929.41 521.08 929.303 523.027 929.09 525C928.877 526.973 928.583 528.973 928.21 531H894.45V528.04L899.09 527.16C900.103 527 900.61 526.413 900.61 525.4V491.24C900.61 490.173 900.103 489.56 899.09 489.4L894.45 488.44V485.48H926.77C926.877 487.293 926.93 489.107 926.93 490.92C926.93 492.733 926.85 494.653 926.69 496.68H923.41ZM966.829 517.16L970.109 517.56C970.056 519.64 969.949 521.88 969.789 524.28C969.629 526.627 969.309 528.867 968.829 531H935.309V528.04L939.949 527.24C940.963 527.08 941.469 526.467 941.469 525.4V491.16C941.469 490.093 940.963 489.48 939.949 489.32L935.309 488.44V485.48H955.549V488.44L949.469 489.4C948.456 489.613 947.949 490.227 947.949 491.24V527.48H956.189C957.576 527.48 958.803 527.427 959.869 527.32C960.989 527.213 961.896 527.027 962.589 526.76C963.443 526.44 964.003 525.853 964.269 525L966.829 517.16Z" fill="black"/>
<defs>
<linearGradient id="paint0_linear_19_102" x1="860" y1="4" x2="860" y2="376" gradientUnits="userSpaceOnUse">
<stop stop-color="#3C7FFF"/>
<stop offset="0.494792" stop-color="#FF823C"/>
<stop offset="1" stop-color="#3C7FFF"/>
</linearGradient>
</defs>
</svg>
