<svg width="371" height="235" viewBox="0 0 371 235" fill="none" xmlns="http://www.w3.org/2000/svg">
<rect width="371" height="235" fill="white"/>
<path fill-rule="evenodd" clip-rule="evenodd" d="M311.81 43.101L306.81 45.226V103.101H311.81V43.101Z" fill="#829F31"/>
<path d="M301.81 43.101V103.101H306.81V45.226L301.81 43.101Z" fill="#829F31"/>
<path d="M301.81 43.101V103.101H306.81V45.226L301.81 43.101Z" fill="#829F31"/>
<path d="M301.81 43.101V103.101H306.81V45.226L301.81 43.101Z" fill="black" fill-opacity="0.1"/>
<path fill-rule="evenodd" clip-rule="evenodd" d="M356.81 119.101H306.81V219.101H349.81L356.81 119.101Z" fill="#C26544"/>
<path fill-rule="evenodd" clip-rule="evenodd" d="M356.81 119.101H306.81V219.101H349.81L356.81 119.101Z" fill="black" fill-opacity="0.1"/>
<path d="M256.81 119.101L263.81 219.101H306.81V119.101H256.81Z" fill="#C26544"/>
<path d="M256.81 119.101L263.81 219.101H306.81V119.101H256.81Z" fill="black" fill-opacity="0.1"/>
<path d="M256.81 119.101L263.81 219.101H306.81V119.101H256.81Z" fill="black" fill-opacity="0.1"/>
<path fill-rule="evenodd" clip-rule="evenodd" d="M360.31 119.101C360.31 110.264 353.147 103.101 344.31 103.101H306.81V119.101H360.31V119.101Z" fill="#766366"/>
<path d="M269.31 103.101C260.474 103.101 253.31 110.264 253.31 119.101V119.101H306.81V103.101H269.31Z" fill="#766366"/>
<path d="M269.31 103.101C260.474 103.101 253.31 110.264 253.31 119.101L-nan -nanL253.31 119.101H306.81V103.101H269.31Z" fill="#766366"/>
<path d="M269.31 103.101C260.474 103.101 253.31 110.264 253.31 119.101L-nan -nanL253.31 119.101H306.81V103.101H269.31Z" fill="black" fill-opacity="0.1"/>
<path d="M264.58 25.0874C272.357 22.3541 278.398 23.6303 286.327 26.3308C297.539 30.1498 307.036 45.7109 307.036 45.7109C307.036 45.7109 293.474 42.6884 285.29 44.4675C273.715 46.9835 274.516 62.0475 262.506 61.3607C245.521 60.3896 249.026 30.5538 264.58 25.0874Z" fill="#5A7413"/>
<path d="M349.04 25.0874C341.263 22.3541 335.222 23.6303 327.294 26.3308C316.081 30.1498 306.585 45.7109 306.585 45.7109C306.585 45.7109 320.146 42.6884 328.331 44.4675C339.906 46.9835 339.104 62.0475 351.114 61.3607C368.099 60.3896 364.594 30.5538 349.04 25.0874Z" fill="#5A7413"/>
<path d="M183.903 103.353C182.204 104.439 180.326 105.15 178.375 105.445C176.424 105.741 174.438 105.615 172.532 105.074C170.626 104.534 168.836 103.589 167.264 102.295C165.693 101.001 164.371 99.382 163.374 97.5312C162.377 95.6803 161.724 93.6336 161.453 91.508C161.182 89.3823 161.298 87.2192 161.794 85.1423C162.29 83.0654 163.157 81.1153 164.345 79.4033C165.533 77.6914 167.018 76.2511 168.717 75.1648L183.903 103.353Z" fill="#5A7413"/>
<path d="M183.717 103.353C185.416 104.439 187.295 105.15 189.246 105.445C191.197 105.741 193.182 105.615 195.089 105.074C196.995 104.534 198.785 103.589 200.356 102.295C201.927 101.001 203.249 99.382 204.247 97.5312C205.244 95.6803 205.896 93.6336 206.168 91.508C206.439 89.3823 206.323 87.2192 205.827 85.1423C205.33 83.0654 204.464 81.1153 203.276 79.4033C202.088 77.6914 200.602 76.2511 198.903 75.1648L183.717 103.353Z" fill="#829F31"/>
<path fill-rule="evenodd" clip-rule="evenodd" d="M187.81 69.101H183.81V103.101H187.81V69.101Z" fill="#829F31"/>
<path d="M179.81 69.101V103.101H183.81V69.101H179.81Z" fill="#829F31"/>
<path d="M179.81 69.101V103.101H183.81V69.101H179.81Z" fill="#829F31"/>
<path d="M179.81 69.101V103.101H183.81V69.101H179.81Z" fill="black" fill-opacity="0.1"/>
<path fill-rule="evenodd" clip-rule="evenodd" d="M232.762 134.079C233.329 125.982 226.913 119.101 218.796 119.101H183.81V219.101H226.81L232.762 134.079Z" fill="#C26544"/>
<path d="M148.825 119.101C140.708 119.101 134.292 125.982 134.859 134.079L140.81 219.101H183.81V119.101H148.825Z" fill="#C26544"/>
<path d="M148.825 119.101C140.708 119.101 134.292 125.982 134.859 134.079L140.81 219.101H183.81V119.101H148.825Z" fill="#C26544"/>
<path d="M148.825 119.101C140.708 119.101 134.292 125.982 134.859 134.079L140.81 219.101H183.81V119.101H148.825Z" fill="black" fill-opacity="0.1"/>
<path fill-rule="evenodd" clip-rule="evenodd" d="M226.06 111.101C226.06 106.683 222.479 103.101 218.06 103.101H183.81V111.101V119.101H218.06C222.479 119.101 226.06 115.519 226.06 111.101V111.101Z" fill="#766366"/>
<path d="M149.56 103.101C145.142 103.101 141.56 106.683 141.56 111.101V111.101C141.56 115.519 145.142 119.101 149.56 119.101H183.81V111.101V103.101H149.56Z" fill="#766366"/>
<path d="M149.56 103.101C145.142 103.101 141.56 106.683 141.56 111.101C141.56 115.519 145.142 119.101 149.56 119.101H183.81C183.81 115.101 183.81 119.101 183.81 111.101C183.81 106.683 183.81 111.101 183.81 103.101H149.56Z" fill="#766366"/>
<path d="M149.56 103.101C145.142 103.101 141.56 106.683 141.56 111.101C141.56 115.519 145.142 119.101 149.56 119.101H183.81C183.81 115.101 183.81 119.101 183.81 111.101C183.81 106.683 183.81 111.101 183.81 103.101H149.56Z" fill="black" fill-opacity="0.1"/>
<path fill-rule="evenodd" clip-rule="evenodd" d="M184.086 65.3425C183.981 64.9085 183.604 64.7058 183.244 64.7342V86.0984C183.604 86.1268 183.981 85.924 184.086 85.4901L184.653 83.1347C184.801 82.52 185.571 82.3136 186.007 82.7719L187.676 84.5282C188.253 85.1356 189.256 84.5562 189.019 83.7527L188.332 81.4293C188.153 80.8229 188.717 80.2591 189.323 80.4382L191.647 81.1248C192.45 81.3622 193.03 80.3587 192.422 79.7816L190.666 78.1127C190.208 77.6772 190.414 76.907 191.029 76.7589L193.384 76.1918C194.199 75.9957 194.199 74.8369 193.384 74.6408L191.029 74.0736C190.414 73.9256 190.208 73.1554 190.666 72.7199L192.422 71.051C193.03 70.4738 192.45 69.4704 191.647 69.7078L189.323 70.3943C188.717 70.5735 188.153 70.0097 188.332 69.4033L189.019 67.0799C189.256 66.2764 188.253 65.697 187.676 66.3044L186.007 68.0607C185.571 68.519 184.801 68.3126 184.653 67.6979L184.086 65.3425Z" fill="#DFDE20"/>
<path d="M181.968 83.1347L182.535 85.4901C182.626 85.8707 182.928 86.0735 183.244 86.0984V64.7342C182.928 64.7591 182.626 64.9619 182.535 65.3425L181.968 67.6979C181.82 68.3126 181.049 68.519 180.614 68.0607L178.945 66.3044C178.368 65.697 177.364 66.2764 177.602 67.0799L178.288 69.4033C178.467 70.0097 177.904 70.5735 177.297 70.3943L174.974 69.7078C174.17 69.4704 173.591 70.4738 174.198 71.051L175.955 72.7199C176.413 73.1554 176.207 73.9256 175.592 74.0736L173.236 74.6408C172.422 74.8369 172.422 75.9957 173.236 76.1918L175.592 76.7589C176.207 76.907 176.413 77.6772 175.955 78.1127L174.198 79.7816C173.591 80.3587 174.17 81.3622 174.974 81.1248L177.297 80.4382C177.904 80.2591 178.467 80.8229 178.288 81.4293L177.602 83.7527C177.364 84.5562 178.368 85.1356 178.945 84.5282L180.614 82.7719C181.049 82.3136 181.82 82.52 181.968 83.1347Z" fill="#DFDE20"/>
<path d="M181.968 83.1347L182.535 85.4901C182.626 85.8707 182.928 86.0735 183.244 86.0984V64.7342C182.928 64.7591 182.626 64.9619 182.535 65.3425L181.968 67.6979C181.82 68.3126 181.049 68.519 180.614 68.0607L178.945 66.3044C178.368 65.697 177.364 66.2764 177.602 67.0799L178.288 69.4033C178.467 70.0097 177.904 70.5735 177.297 70.3943L174.974 69.7078C174.17 69.4704 173.591 70.4738 174.198 71.051L175.955 72.7199C176.413 73.1554 176.207 73.9256 175.592 74.0736L173.236 74.6408C172.422 74.8369 172.422 75.9957 173.236 76.1918L175.592 76.7589C176.207 76.907 176.413 77.6772 175.955 78.1127L174.198 79.7816C173.591 80.3587 174.17 81.3622 174.974 81.1248L177.297 80.4382C177.904 80.2591 178.467 80.8229 178.288 81.4293L177.602 83.7527C177.364 84.5562 178.368 85.1356 178.945 84.5282L180.614 82.7719C181.049 82.3136 181.82 82.52 181.968 83.1347Z" fill="#C8C718"/>
<path fill-rule="evenodd" clip-rule="evenodd" d="M64.8103 60.101H60.8103L60.8103 103.101H64.8103V60.101Z" fill="#829F31"/>
<path d="M56.8103 60.101L56.8103 103.101H60.8103L60.8103 60.101H56.8103Z" fill="#829F31"/>
<path d="M56.8103 60.101L56.8103 103.101H60.8103L60.8103 60.101H56.8103Z" fill="#829F31"/>
<path d="M56.8103 60.101L56.8103 103.101H60.8103L60.8103 60.101H56.8103Z" fill="black" fill-opacity="0.1"/>
<path fill-rule="evenodd" clip-rule="evenodd" d="M110.81 119.101H60.8103V219.101H103.81L110.81 119.101Z" fill="#C26544"/>
<path fill-rule="evenodd" clip-rule="evenodd" d="M110.81 119.101H60.8103V219.101H103.81L110.81 119.101Z" fill="black" fill-opacity="0.1"/>
<path d="M10.8103 119.101L17.8103 219.101H60.8103V119.101H10.8103Z" fill="#C26544"/>
<path d="M10.8103 119.101L17.8103 219.101H60.8103V119.101H10.8103Z" fill="black" fill-opacity="0.1"/>
<path d="M10.8103 119.101L17.8103 219.101H60.8103V119.101H10.8103Z" fill="black" fill-opacity="0.1"/>
<path fill-rule="evenodd" clip-rule="evenodd" d="M113.81 108.101C113.81 105.34 111.572 103.101 108.81 103.101H60.8103V119.101H108.81C111.572 119.101 113.81 116.862 113.81 114.101V108.101Z" fill="#766366"/>
<path d="M12.8103 103.101C10.0488 103.101 7.81027 105.34 7.81027 108.101V114.101C7.81027 116.862 10.0488 119.101 12.8103 119.101H60.8103V103.101H12.8103Z" fill="#766366"/>
<path d="M12.8103 103.101C10.0488 103.101 7.81027 105.34 7.81027 108.101V114.101C7.81027 116.862 10.0488 119.101 12.8103 119.101H60.8103V103.101H12.8103Z" fill="black" fill-opacity="0.1"/>
<path fill-rule="evenodd" clip-rule="evenodd" d="M70.7577 61.0785C81.3714 58.0199 87.4961 46.9362 84.4374 36.3224V36.3224L61.1487 63.8476L70.7577 61.0785Z" fill="#829F31"/>
<path d="M74.8284 39.0915C64.2147 42.1501 58.09 53.2338 61.1487 63.8476V63.8476L84.4374 36.3224L74.8284 39.0915Z" fill="#829F31"/>
<path d="M76.2012 38.6959C64.8293 41.973 57.3816 50.7755 59.5664 58.3568L61.1487 63.8476L84.4374 36.3224L76.2012 38.6959Z" fill="#5A7413"/>
<path fill-rule="evenodd" clip-rule="evenodd" d="M59.9151 63.8476C63.6117 53.4388 58.1703 42.0042 47.7615 38.3076L38.3382 34.961L59.9151 63.8476V63.8476Z" fill="#829F31"/>
<path d="M38.3382 34.961C34.6416 45.3698 40.083 56.8045 50.4917 60.501L59.9151 63.8476L38.3382 34.961V34.961Z" fill="#829F31"/>
<path d="M36.4258 40.3458C33.7854 47.7807 40.6857 57.0185 51.8379 60.9791L59.9151 63.8476L38.3382 34.961L36.4258 40.3458Z" fill="#5A7413"/>
</svg>
