<svg width="518" height="410" viewBox="0 0 518 410" fill="none" xmlns="http://www.w3.org/2000/svg">
<rect width="518" height="410" fill="white"/>
<path d="M94.8817 276.382V133.882M94.8817 276.382L131.763 138.737M94.8817 276.382L58 138.737" stroke="black"/>
<path d="M70.625 186.007C69.625 180.007 76.25 167.882 82.25 167.882C88.8689 167.882 94.75 156.632 94.75 150.632" stroke="black"/>
<path d="M118.875 186.007C119.875 180.007 113.25 167.882 107.25 167.882C100.631 167.882 94.75 156.632 94.75 150.632" stroke="black"/>
<path d="M331.5 205V62.5M331.5 205L368.382 67.3556M331.5 205L294.618 67.3556" stroke="black"/>
<path d="M307.243 114.625C306.243 108.625 312.868 96.5 318.868 96.5C325.487 96.5 331.368 85.25 331.368 79.25" stroke="black"/>
<path d="M355.493 114.625C356.493 108.625 349.868 96.5 343.868 96.5C337.249 96.5 331.368 85.25 331.368 79.25" stroke="black"/>
<path d="M331.5 205L331.5 347.5M331.5 205L294.618 342.644M331.5 205L368.382 342.644" stroke="black"/>
<path d="M355.757 295.375C356.757 301.375 350.132 313.5 344.132 313.5C337.513 313.5 331.632 324.75 331.632 330.75" stroke="black"/>
<path d="M307.507 295.375C306.507 301.375 313.132 313.5 319.132 313.5C325.751 313.5 331.632 324.75 331.632 330.75" stroke="black"/>
<path d="M331.5 205L402.75 81.5914M331.5 205L432.263 104.237M331.5 205L368.382 67.3556" stroke="black"/>
<path d="M355.681 114.605C357.815 108.908 369.614 101.72 374.811 104.72C380.543 108.03 391.261 101.228 394.261 96.0314" stroke="black"/>
<path d="M397.466 138.73C401.332 134.033 401.657 120.22 396.461 117.22C390.729 113.911 391.261 101.228 394.261 96.0315" stroke="black"/>
<path d="M331.5 205L260.25 328.409M331.5 205L230.737 305.763M331.5 205L294.618 342.644" stroke="black"/>
<path d="M307.319 295.395C305.185 301.092 293.386 308.28 288.189 305.28C282.457 301.97 271.739 308.772 268.739 313.969" stroke="black"/>
<path d="M265.534 271.27C261.668 275.967 261.343 289.78 266.539 292.78C272.271 296.089 271.739 308.772 268.739 313.969" stroke="black"/>
<path d="M331.5 205L454.909 133.75M331.5 205L469.144 168.118M331.5 205L432.263 104.237" stroke="black"/>
<path d="M397.639 138.806C402.335 134.94 416.148 134.614 419.148 139.811C422.457 145.543 435.141 145.011 440.337 142.011" stroke="black"/>
<path d="M421.764 180.591C427.46 178.457 434.648 166.657 431.648 161.461C428.338 155.729 435.141 145.011 440.337 142.011" stroke="black"/>
<path d="M331.5 205L208.091 276.25M331.5 205L193.856 241.882M331.5 205L230.737 305.763" stroke="black"/>
<path d="M265.361 271.194C260.665 275.06 246.852 275.386 243.852 270.189C240.543 264.457 227.859 264.989 222.663 267.989" stroke="black"/>
<path d="M241.236 229.409C235.54 231.543 228.352 243.343 231.352 248.539C234.662 254.271 227.859 264.989 222.663 267.989" stroke="black"/>
<path d="M331.5 205L474 205M331.5 205L469.144 241.882M331.5 205L469.144 168.118" stroke="black"/>
<path d="M421.875 180.743C427.875 179.743 440 186.368 440 192.368C440 198.987 451.25 204.868 457.25 204.868" stroke="black"/>
<path d="M421.875 228.993C427.875 229.993 440 223.368 440 217.368C440 210.749 451.25 204.868 457.25 204.868" stroke="black"/>
<path d="M331.5 205L189 205M331.5 205L193.856 168.118M331.5 205L193.856 241.882" stroke="black"/>
<path d="M241.125 229.257C235.125 230.257 223 223.632 223 217.632C223 211.013 211.75 205.132 205.75 205.132" stroke="black"/>
<path d="M241.125 181.007C235.125 180.007 223 186.632 223 192.632C223 199.251 211.75 205.132 205.75 205.132" stroke="black"/>
<path d="M331.5 205L454.909 276.25M331.5 205L432.263 305.763M331.5 205L469.144 241.882" stroke="black"/>
<path d="M421.895 229.181C427.592 231.315 434.78 243.114 431.78 248.311C428.47 254.043 435.272 264.761 440.469 267.761" stroke="black"/>
<path d="M397.77 270.966C402.467 274.832 416.28 275.157 419.28 269.961C422.589 264.229 435.272 264.761 440.469 267.761" stroke="black"/>
<path d="M331.5 205L208.091 133.75M331.5 205L230.737 104.237M331.5 205L193.856 168.118" stroke="black"/>
<path d="M241.105 180.819C235.408 178.685 228.22 166.886 231.22 161.689C234.53 155.957 227.728 145.239 222.531 142.239" stroke="black"/>
<path d="M265.23 139.034C260.533 135.168 246.72 134.843 243.72 140.039C240.411 145.771 227.728 145.239 222.531 142.239" stroke="black"/>
<path d="M331.5 205L402.75 328.409M331.5 205L368.382 342.644M331.5 205L432.263 305.763" stroke="black"/>
<path d="M397.694 271.139C401.56 275.835 401.886 289.648 396.689 292.648C390.957 295.957 391.489 308.641 394.489 313.837" stroke="black"/>
<path d="M355.909 295.264C358.043 300.96 369.843 308.148 375.039 305.148C380.771 301.838 391.489 308.641 394.489 313.837" stroke="black"/>
<path d="M331.5 205L260.25 81.5914M331.5 205L294.618 67.3556M331.5 205L230.737 104.237" stroke="black"/>
<path d="M265.306 138.861C261.44 134.165 261.114 120.352 266.311 117.352C272.043 114.043 271.511 101.359 268.511 96.1631" stroke="black"/>
<path d="M307.091 114.736C304.957 109.04 293.157 101.852 287.961 104.852C282.229 108.162 271.511 101.359 268.511 96.1631" stroke="black"/>
</svg>
