<svg width="518" height="410" viewBox="0 0 518 410" fill="none" xmlns="http://www.w3.org/2000/svg">
<rect width="518" height="410" fill="white"/>
<path d="M94.8817 276.382V133.882M94.8817 276.382L131.763 138.737M94.8817 276.382L58 138.737" stroke="black"/>
<path d="M70.625 186.007C69.625 180.007 76.25 167.882 82.25 167.882C88.8689 167.882 94.75 156.632 94.75 150.632" stroke="black"/>
<path d="M118.875 186.007C119.875 180.007 113.25 167.882 107.25 167.882C100.631 167.882 94.75 156.632 94.75 150.632" stroke="black"/>
<path d="M73.5 175.25C81.75 173.25 91.4375 178.25 94.9375 186.687" stroke="black"/>
<path d="M116.375 175.25C108.125 173.25 98.4375 178.25 94.9375 186.687" stroke="black"/>
<path d="M72 191L90.5 197.25L86.875 246.75M74.25 200L85.25 203.5L82.75 231.25" stroke="black"/>
<path d="M117.75 191L99.25 197.25L102.875 246.75M115.5 200L104.5 203.5L107 231.25" stroke="black"/>
<path d="M102.587 188.98L114.265 185.535C114.265 185.535 110.291 179.915 106.216 181.145C102.158 182.37 102.587 188.98 102.587 188.98Z" stroke="black"/>
<path d="M87.163 188.98L75.4848 185.535C75.4848 185.535 79.4589 179.915 83.5341 181.145C87.5921 182.37 87.163 188.98 87.163 188.98Z" stroke="black"/>
<circle cx="94.75" cy="171.875" r="4.875" fill="black"/>
<path d="M60.5 149.625C65.0833 147.875 72 147.75 76.75 151.25C80.7267 154.18 82.5 157 82.5 167.75M62.125 155.625C67.2083 153.458 72.0542 153.149 75.5 157C76.6343 158.268 77.4421 160.358 77.9467 162.483M78.375 169.375C78.7603 168.364 78.6376 165.392 77.9467 162.483M77.9467 162.483C75.7145 162.322 73.6369 162.233 70.5 164.25C67 166.5 67.125 172.375 67.125 172.375" stroke="black"/>
<path d="M129 149.625C124.417 147.875 117.5 147.75 112.75 151.25C108.773 154.18 107 157 107 167.75M127.375 155.625C122.292 153.458 117.446 153.149 114 157C112.866 158.268 112.058 160.358 111.553 162.483M111.125 169.375C110.74 168.364 110.862 165.392 111.553 162.483M111.553 162.483C113.786 162.322 115.863 162.233 119 164.25C122.5 166.5 122.375 172.375 122.375 172.375" stroke="black"/>
<path d="M63 157.625L70.625 158.75L65.625 167.125" stroke="black"/>
<path d="M126.601 157.625L118.976 158.75L123.976 167.125" stroke="black"/>
<path d="M58.75 142.75C63.5833 143 73.2798 140.75 77 140.75C79.875 140.75 90.0833 147.833 94.75 150.5" stroke="black"/>
<path d="M130.938 142.75C126.104 143 116.408 140.75 112.688 140.75C109.812 140.75 99.6042 147.833 94.9375 150.5" stroke="black"/>
<circle cx="75.2822" cy="145.428" r="3" fill="black"/>
<circle cx="86.875" cy="158.553" r="3" fill="black"/>
<circle cx="84.2188" cy="150.5" r="3" fill="black"/>
<circle cx="3" cy="3" r="3" transform="matrix(-1 0 0 1 117.218 142.428)" fill="black"/>
<circle cx="3" cy="3" r="3" transform="matrix(-1 0 0 1 105.625 155.553)" fill="black"/>
<circle cx="3" cy="3" r="3" transform="matrix(-1 0 0 1 108.281 147.5)" fill="black"/>
<path d="M331.5 205V62.5M331.5 205L368.382 67.3556M331.5 205L294.618 67.3556" stroke="black"/>
<path d="M307.243 114.625C306.243 108.625 312.868 96.5 318.868 96.5C325.487 96.5 331.368 85.25 331.368 79.25" stroke="black"/>
<path d="M355.493 114.625C356.493 108.625 349.868 96.5 343.868 96.5C337.249 96.5 331.368 85.25 331.368 79.25" stroke="black"/>
<path d="M310.118 103.868C318.368 101.868 328.056 106.868 331.556 115.306" stroke="black"/>
<path d="M352.993 103.868C344.743 101.868 335.056 106.868 331.556 115.306" stroke="black"/>
<path d="M308.618 119.618L327.118 125.868L323.493 175.368M310.868 128.618L321.868 132.118L319.368 159.868" stroke="black"/>
<path d="M354.368 119.618L335.868 125.868L339.493 175.368M352.118 128.618L341.118 132.118L343.618 159.868" stroke="black"/>
<path d="M339.205 117.599L350.883 114.153C350.883 114.153 346.909 108.533 342.834 109.763C338.776 110.988 339.205 117.599 339.205 117.599Z" stroke="black"/>
<path d="M323.781 117.599L312.103 114.153C312.103 114.153 316.077 108.533 320.152 109.763C324.21 110.988 323.781 117.599 323.781 117.599Z" stroke="black"/>
<circle cx="331.368" cy="100.493" r="4.875" fill="black"/>
<path d="M297.118 78.2433C301.702 76.4933 308.618 76.3683 313.368 79.8683C317.345 82.7985 319.118 85.6183 319.118 96.3683M298.743 84.2433C303.827 82.0767 308.673 81.7672 312.118 85.6183C313.253 86.8861 314.06 88.9768 314.565 91.1013M314.993 97.9933C315.379 96.982 315.256 94.0099 314.565 91.1013M314.565 91.1013C312.333 90.9403 310.255 90.8518 307.118 92.8683C303.618 95.1183 303.743 100.993 303.743 100.993" stroke="black"/>
<path d="M365.618 78.2433C361.035 76.4933 354.118 76.3683 349.368 79.8683C345.392 82.7985 343.618 85.6183 343.618 96.3683M363.993 84.2433C358.91 82.0767 354.064 81.7672 350.618 85.6183C349.484 86.8861 348.676 88.9768 348.172 91.1013M347.743 97.9933C347.358 96.982 347.481 94.0099 348.172 91.1013M348.172 91.1013C350.404 90.9403 352.481 90.8518 355.618 92.8683C359.118 95.1183 358.993 100.993 358.993 100.993" stroke="black"/>
<path d="M299.618 86.2433L307.243 87.3683L302.243 95.7433" stroke="black"/>
<path d="M363.219 86.2433L355.594 87.3683L360.594 95.7433" stroke="black"/>
<path d="M295.368 71.3683C300.202 71.6183 309.898 69.3683 313.618 69.3683C316.493 69.3683 326.702 76.4516 331.368 79.1183" stroke="black"/>
<path d="M367.556 71.3683C362.722 71.6183 353.026 69.3684 349.306 69.3683C346.431 69.3683 336.222 76.4517 331.556 79.1183" stroke="black"/>
<circle cx="311.9" cy="74.0461" r="3" fill="black"/>
<circle cx="323.493" cy="87.1711" r="3" fill="black"/>
<circle cx="320.837" cy="79.1183" r="3" fill="black"/>
<circle cx="3" cy="3" r="3" transform="matrix(-1 0 0 1 353.836 71.0461)" fill="black"/>
<circle cx="3" cy="3" r="3" transform="matrix(-1 0 0 1 342.243 84.1711)" fill="black"/>
<circle cx="3" cy="3" r="3" transform="matrix(-1 0 0 1 344.9 76.1183)" fill="black"/>
<path d="M331.5 205L331.5 347.5M331.5 205L294.618 342.644M331.5 205L368.382 342.644" stroke="black"/>
<path d="M355.757 295.375C356.757 301.375 350.132 313.5 344.132 313.5C337.513 313.5 331.632 324.75 331.632 330.75" stroke="black"/>
<path d="M307.507 295.375C306.507 301.375 313.132 313.5 319.132 313.5C325.751 313.5 331.632 324.75 331.632 330.75" stroke="black"/>
<path d="M352.882 306.132C344.632 308.132 334.944 303.132 331.444 294.694" stroke="black"/>
<path d="M310.007 306.132C318.257 308.132 327.944 303.132 331.444 294.694" stroke="black"/>
<path d="M354.382 290.382L335.882 284.132L339.507 234.632M352.132 281.382L341.132 277.882L343.632 250.132" stroke="black"/>
<path d="M308.632 290.382L327.132 284.132L323.507 234.632M310.882 281.382L321.882 277.882L319.382 250.132" stroke="black"/>
<path d="M323.795 292.401L312.117 295.847C312.117 295.847 316.091 301.467 320.166 300.237C324.224 299.012 323.795 292.401 323.795 292.401Z" stroke="black"/>
<path d="M339.219 292.401L350.897 295.847C350.897 295.847 346.923 301.467 342.848 300.237C338.79 299.012 339.219 292.401 339.219 292.401Z" stroke="black"/>
<circle cx="331.632" cy="309.507" r="4.875" transform="rotate(-180 331.632 309.507)" fill="black"/>
<path d="M365.882 331.757C361.298 333.507 354.382 333.632 349.632 330.132C345.655 327.201 343.882 324.382 343.882 313.632M364.257 325.757C359.173 327.923 354.327 328.233 350.882 324.382C349.747 323.114 348.94 321.023 348.435 318.899M348.007 312.007C347.621 313.018 347.744 315.99 348.435 318.899M348.435 318.899C350.667 319.06 352.745 319.148 355.882 317.132C359.382 314.882 359.257 309.007 359.257 309.007" stroke="black"/>
<path d="M297.382 331.757C301.965 333.507 308.882 333.632 313.632 330.132C317.608 327.201 319.382 324.382 319.382 313.632M299.007 325.757C304.09 327.923 308.936 328.233 312.382 324.382C313.516 323.114 314.324 321.023 314.828 318.899M315.257 312.007C315.642 313.018 315.519 315.99 314.828 318.899M314.828 318.899C312.596 319.06 310.519 319.148 307.382 317.132C303.882 314.882 304.007 309.007 304.007 309.007" stroke="black"/>
<path d="M363.382 323.757L355.757 322.632L360.757 314.257" stroke="black"/>
<path d="M299.781 323.757L307.406 322.632L302.406 314.257" stroke="black"/>
<path d="M367.632 338.632C362.798 338.382 353.102 340.632 349.382 340.632C346.507 340.632 336.298 333.548 331.632 330.882" stroke="black"/>
<path d="M295.444 338.632C300.278 338.382 309.974 340.632 313.694 340.632C316.569 340.632 326.778 333.548 331.444 330.882" stroke="black"/>
<circle cx="351.1" cy="335.954" r="3" transform="rotate(-180 351.1 335.954)" fill="black"/>
<circle cx="339.507" cy="322.829" r="3" transform="rotate(-180 339.507 322.829)" fill="black"/>
<circle cx="342.163" cy="330.882" r="3" transform="rotate(-180 342.163 330.882)" fill="black"/>
<circle cx="3" cy="3" r="3" transform="matrix(1 8.74228e-08 8.74228e-08 -1 309.164 338.954)" fill="black"/>
<circle cx="3" cy="3" r="3" transform="matrix(1 8.74228e-08 8.74228e-08 -1 320.757 325.829)" fill="black"/>
<circle cx="3" cy="3" r="3" transform="matrix(1 8.74228e-08 8.74228e-08 -1 318.1 333.882)" fill="black"/>
<path d="M331.5 205L402.75 81.5914M331.5 205L432.263 104.237M331.5 205L368.382 67.3556" stroke="black"/>
<path d="M355.681 114.605C357.815 108.908 369.614 101.72 374.811 104.72C380.543 108.03 391.261 101.228 394.261 96.0314" stroke="black"/>
<path d="M397.466 138.73C401.332 134.033 401.657 120.22 396.461 117.22C390.729 113.911 391.261 101.228 394.261 96.0315" stroke="black"/>
<path d="M363.549 106.727C371.693 109.119 377.583 118.293 376.395 127.35" stroke="black"/>
<path d="M400.68 128.164C394.535 122.307 383.645 121.793 376.395 127.35" stroke="black"/>
<path d="M354.375 119.616L367.271 134.279L339.382 175.335M351.823 128.536L359.6 137.067L343.559 159.849" stroke="black"/>
<path d="M393.995 142.491L374.849 138.654L353.238 183.335M387.547 149.161L376.271 146.692L364.561 171.974" stroke="black"/>
<path d="M381.874 133.161L393.71 136.016C393.71 136.016 393.078 129.162 388.934 128.19C384.807 127.221 381.874 133.161 381.874 133.161Z" stroke="black"/>
<path d="M368.516 125.449L360.125 116.626C360.125 116.626 366.377 113.746 369.291 116.849C372.193 119.938 368.516 125.449 368.516 125.449Z" stroke="black"/>
<circle cx="383.639" cy="114.429" r="4.875" transform="rotate(30 383.639 114.429)" fill="black"/>
<path d="M365.103 78.0346C369.947 78.8108 376 82.1608 378.363 87.5669C380.342 92.0929 380.468 95.4216 375.093 104.731M363.51 84.0433C368.996 84.7086 373.347 86.8635 374.406 91.9216C374.754 93.5867 374.408 95.8011 373.783 97.8933M370.708 104.076C371.547 103.393 372.927 100.758 373.783 97.8933M373.783 97.8933C371.931 96.6378 370.176 95.5223 366.451 95.7002C362.295 95.8988 359.465 101.049 359.465 101.049" stroke="black"/>
<path d="M424.426 112.285C421.331 108.477 415.404 104.911 409.54 105.567C404.631 106.116 401.686 107.672 396.311 116.981M420.018 116.668C416.699 112.25 412.657 109.559 407.748 111.172C406.132 111.702 404.387 113.109 402.887 114.697M399.07 120.451C399.242 119.383 400.835 116.87 402.887 114.697M402.887 114.697C404.901 115.673 406.745 116.635 408.453 119.95C410.359 123.649 407.313 128.674 407.313 128.674" stroke="black"/>
<path d="M363.268 86.2128L369.309 90.9996L360.791 95.7526" stroke="black"/>
<path d="M418.348 118.013L411.182 115.175L411.325 124.928" stroke="black"/>
<path d="M367.025 71.2057C371.086 73.8389 380.608 76.7386 383.83 78.5987C386.32 80.0362 391.619 91.2747 394.327 95.9174" stroke="black"/>
<path d="M429.541 107.299C425.23 105.099 417.958 98.3025 414.736 96.4424C412.246 95.0049 399.864 96.0351 394.489 96.0112" stroke="black"/>
<circle cx="380.003" cy="81.7908" r="3" transform="rotate(30 380.003 81.7908)" fill="black"/>
<circle cx="383.48" cy="98.9538" r="3" transform="rotate(30 383.48 98.9538)" fill="black"/>
<circle cx="385.206" cy="90.6518" r="3" transform="rotate(30 385.206 90.6518)" fill="black"/>
<circle cx="3" cy="3" r="3" transform="matrix(-0.866025 -0.5 -0.5 0.866025 417.821 100.161)" fill="black"/>
<circle cx="3" cy="3" r="3" transform="matrix(-0.866025 -0.5 -0.5 0.866025 401.218 105.731)" fill="black"/>
<circle cx="3" cy="3" r="3" transform="matrix(-0.866025 -0.5 -0.5 0.866025 407.545 100.085)" fill="black"/>
<path d="M331.5 205L260.25 328.409M331.5 205L230.737 305.763M331.5 205L294.618 342.644" stroke="black"/>
<path d="M307.319 295.395C305.185 301.092 293.386 308.28 288.189 305.28C282.457 301.97 271.739 308.772 268.739 313.969" stroke="black"/>
<path d="M265.534 271.27C261.668 275.967 261.343 289.78 266.539 292.78C272.271 296.089 271.739 308.772 268.739 313.969" stroke="black"/>
<path d="M299.451 303.273C291.307 300.88 285.417 291.707 286.605 282.65" stroke="black"/>
<path d="M262.32 281.836C268.465 287.693 279.355 288.207 286.605 282.65" stroke="black"/>
<path d="M308.625 290.384L295.729 275.721L323.618 234.665M311.177 281.464L303.4 272.933L319.441 250.151" stroke="black"/>
<path d="M269.005 267.509L288.151 271.346L309.762 226.665M275.453 260.839L286.729 263.308L298.439 238.026" stroke="black"/>
<path d="M281.126 276.839L269.29 273.984C269.29 273.984 269.922 280.838 274.066 281.81C278.193 282.779 281.126 276.839 281.126 276.839Z" stroke="black"/>
<path d="M294.484 284.551L302.875 293.374C302.875 293.374 296.623 296.254 293.709 293.151C290.807 290.061 294.484 284.551 294.484 284.551Z" stroke="black"/>
<circle cx="279.361" cy="295.571" r="4.875" transform="rotate(-150 279.361 295.571)" fill="black"/>
<path d="M297.897 331.965C293.053 331.189 287 327.839 284.637 322.433C282.658 317.907 282.532 314.578 287.907 305.269M299.49 325.957C294.004 325.291 289.653 323.136 288.594 318.078C288.246 316.413 288.592 314.199 289.217 312.107M292.292 305.924C291.453 306.607 290.073 309.242 289.217 312.107M289.217 312.107C291.069 313.362 292.824 314.478 296.549 314.3C300.705 314.101 303.535 308.951 303.535 308.951" stroke="black"/>
<path d="M238.574 297.715C241.669 301.523 247.596 305.089 253.46 304.433C258.369 303.884 261.314 302.328 266.689 293.019M242.982 293.332C246.301 297.75 250.343 300.441 255.252 298.828C256.868 298.298 258.613 296.891 260.113 295.303M263.93 289.549C263.758 290.617 262.165 293.13 260.113 295.303M260.113 295.303C258.099 294.327 256.255 293.365 254.547 290.05C252.641 286.351 255.687 281.326 255.687 281.326" stroke="black"/>
<path d="M299.732 323.787L293.691 319L302.209 314.247" stroke="black"/>
<path d="M244.652 291.987L251.818 294.825L251.675 285.072" stroke="black"/>
<path d="M295.975 338.794C291.914 336.161 282.392 333.261 279.17 331.401C276.68 329.964 271.381 318.725 268.673 314.083" stroke="black"/>
<path d="M233.459 302.701C237.77 304.901 245.042 311.697 248.264 313.558C250.754 314.995 263.136 313.965 268.511 313.989" stroke="black"/>
<circle cx="282.997" cy="328.209" r="3" transform="rotate(-150 282.997 328.209)" fill="black"/>
<circle cx="279.52" cy="311.046" r="3" transform="rotate(-150 279.52 311.046)" fill="black"/>
<circle cx="277.794" cy="319.348" r="3" transform="rotate(-150 277.794 319.348)" fill="black"/>
<circle cx="3" cy="3" r="3" transform="matrix(0.866025 0.5 0.5 -0.866025 245.179 309.839)" fill="black"/>
<circle cx="3" cy="3" r="3" transform="matrix(0.866025 0.5 0.5 -0.866025 261.782 304.269)" fill="black"/>
<circle cx="3" cy="3" r="3" transform="matrix(0.866025 0.5 0.5 -0.866025 255.455 309.915)" fill="black"/>
<path d="M331.5 205L454.909 133.75M331.5 205L469.144 168.118M331.5 205L432.263 104.237" stroke="black"/>
<path d="M397.639 138.806C402.335 134.94 416.148 134.614 419.148 139.811C422.457 145.543 435.141 145.011 440.337 142.011" stroke="black"/>
<path d="M421.764 180.591C427.46 178.457 434.648 166.657 431.648 161.461C428.338 155.729 435.141 145.011 440.337 142.011" stroke="black"/>
<path d="M408.392 135.917C414.249 142.062 414.762 152.951 409.205 160.201" stroke="black"/>
<path d="M429.829 173.048C427.436 164.903 418.262 159.014 409.205 160.201" stroke="black"/>
<path d="M394.002 142.493L397.839 161.639L353.158 183.25M387.333 148.942L389.802 160.218L364.519 171.928" stroke="black"/>
<path d="M416.877 182.114L402.214 169.217L361.158 197.107M407.958 184.665L399.427 176.889L376.644 192.929" stroke="black"/>
<path d="M411.044 167.972L419.867 176.363C419.867 176.363 422.747 170.111 419.645 167.197C416.555 164.295 411.044 167.972 411.044 167.972Z" stroke="black"/>
<path d="M403.332 154.615L400.477 142.778C400.477 142.778 407.331 143.41 408.304 147.554C409.272 151.681 403.332 154.615 403.332 154.615Z" stroke="black"/>
<circle cx="421.94" cy="152.633" r="4.875" transform="rotate(60 421.94 152.633)" fill="black"/>
<path d="M424.084 111.846C427.891 114.941 431.457 120.868 430.801 126.732C430.252 131.641 428.697 134.586 419.387 139.961M419.7 116.254C424.118 119.572 426.809 123.614 425.197 128.524C424.666 130.14 423.259 131.885 421.672 133.385M415.917 137.201C416.986 137.029 419.498 135.437 421.672 133.385M421.672 133.385C420.695 131.371 419.733 129.527 416.418 127.819C412.719 125.913 407.694 128.959 407.694 128.959" stroke="black"/>
<path d="M458.334 171.169C457.558 166.325 454.207 160.272 448.801 157.909C444.275 155.93 440.947 155.804 431.637 161.179M452.325 172.762C451.66 167.276 449.505 162.925 444.447 161.866C442.782 161.518 440.567 161.863 438.475 162.489M432.292 165.564C432.975 164.724 435.611 163.345 438.475 162.489M438.475 162.489C439.731 164.341 440.846 166.096 440.668 169.821C440.469 173.977 435.319 176.807 435.319 176.807" stroke="black"/>
<path d="M418.405 118.011L421.244 125.177L411.491 125.035" stroke="black"/>
<path d="M450.206 173.091L445.419 167.05L440.666 175.568" stroke="black"/>
<path d="M429.163 106.893C431.363 111.204 438.16 118.476 440.02 121.698C441.457 124.188 440.427 136.57 440.451 141.945" stroke="black"/>
<path d="M465.256 169.409C462.623 165.349 459.723 155.826 457.863 152.604C456.426 150.115 445.187 144.816 440.545 142.107" stroke="black"/>
<circle cx="435.11" cy="122.549" r="3" transform="rotate(60 435.11 122.549)" fill="black"/>
<circle cx="429.539" cy="139.152" r="3" transform="rotate(60 429.539 139.152)" fill="black"/>
<circle cx="435.185" cy="132.825" r="3" transform="rotate(60 435.185 132.825)" fill="black"/>
<circle cx="3" cy="3" r="3" transform="matrix(-0.5 -0.866025 -0.866025 0.5 458.676 157.367)" fill="black"/>
<circle cx="3" cy="3" r="3" transform="matrix(-0.5 -0.866025 -0.866025 0.5 441.513 153.89)" fill="black"/>
<circle cx="3" cy="3" r="3" transform="matrix(-0.5 -0.866025 -0.866025 0.5 449.815 152.164)" fill="black"/>
<path d="M331.5 205L208.091 276.25M331.5 205L193.856 241.882M331.5 205L230.737 305.763" stroke="black"/>
<path d="M265.361 271.194C260.665 275.06 246.852 275.386 243.852 270.189C240.543 264.457 227.859 264.989 222.663 267.989" stroke="black"/>
<path d="M241.236 229.409C235.54 231.543 228.352 243.343 231.352 248.539C234.662 254.271 227.859 264.989 222.663 267.989" stroke="black"/>
<path d="M254.608 274.083C248.751 267.938 248.238 257.049 253.795 249.799" stroke="black"/>
<path d="M233.171 236.952C235.564 245.097 244.738 250.986 253.795 249.799" stroke="black"/>
<path d="M268.998 267.507L265.161 248.361L309.842 226.75M275.667 261.058L273.198 249.782L298.481 238.072" stroke="black"/>
<path d="M246.123 227.886L260.786 240.783L301.842 212.893M255.042 225.335L263.573 233.111L286.356 217.071" stroke="black"/>
<path d="M251.956 242.028L243.133 233.637C243.133 233.637 240.253 239.889 243.355 242.803C246.445 245.705 251.956 242.028 251.956 242.028Z" stroke="black"/>
<path d="M259.668 255.385L262.523 267.222C262.523 267.222 255.669 266.59 254.696 262.446C253.728 258.319 259.668 255.385 259.668 255.385Z" stroke="black"/>
<circle cx="241.06" cy="257.367" r="4.875" transform="rotate(-120 241.06 257.367)" fill="black"/>
<path d="M238.916 298.154C235.109 295.059 231.543 289.132 232.199 283.268C232.748 278.359 234.303 275.414 243.613 270.039M243.3 293.746C238.882 290.428 236.191 286.386 237.803 281.476C238.334 279.86 239.741 278.115 241.328 276.615M247.083 272.799C246.014 272.971 243.502 274.563 241.328 276.615M241.328 276.615C242.305 278.629 243.267 280.473 246.582 282.181C250.281 284.087 255.306 281.041 255.306 281.041" stroke="black"/>
<path d="M204.666 238.831C205.442 243.675 208.793 249.728 214.199 252.091C218.725 254.07 222.053 254.196 231.363 248.821M210.675 237.238C211.34 242.724 213.495 247.075 218.553 248.134C220.218 248.482 222.433 248.137 224.525 247.511M230.708 244.436C230.025 245.275 227.389 246.655 224.525 247.511M224.525 247.511C223.269 245.659 222.154 243.904 222.332 240.179C222.531 236.023 227.681 233.193 227.681 233.193" stroke="black"/>
<path d="M244.595 291.989L241.756 284.823L251.509 284.965" stroke="black"/>
<path d="M212.794 236.909L217.581 242.95L222.334 234.432" stroke="black"/>
<path d="M233.837 303.107C231.637 298.796 224.84 291.524 222.98 288.302C221.543 285.812 222.573 273.43 222.549 268.055" stroke="black"/>
<path d="M197.744 240.591C200.377 244.651 203.277 254.174 205.137 257.396C206.574 259.885 217.813 265.184 222.455 267.893" stroke="black"/>
<circle cx="227.89" cy="287.451" r="3" transform="rotate(-120 227.89 287.451)" fill="black"/>
<circle cx="233.461" cy="270.848" r="3" transform="rotate(-120 233.461 270.848)" fill="black"/>
<circle cx="227.815" cy="277.175" r="3" transform="rotate(-120 227.815 277.175)" fill="black"/>
<circle cx="3" cy="3" r="3" transform="matrix(0.5 0.866025 0.866025 -0.5 204.324 252.633)" fill="black"/>
<circle cx="3" cy="3" r="3" transform="matrix(0.5 0.866025 0.866025 -0.5 221.487 256.11)" fill="black"/>
<circle cx="3" cy="3" r="3" transform="matrix(0.5 0.866025 0.866025 -0.5 213.185 257.836)" fill="black"/>
<path d="M331.5 205L474 205M331.5 205L469.144 241.882M331.5 205L469.144 168.118" stroke="black"/>
<path d="M421.875 180.743C427.875 179.743 440 186.368 440 192.368C440 198.987 451.25 204.868 457.25 204.868" stroke="black"/>
<path d="M421.875 228.993C427.875 229.993 440 223.368 440 217.368C440 210.749 451.25 204.868 457.25 204.868" stroke="black"/>
<path d="M432.632 183.618C434.632 191.868 429.632 201.556 421.194 205.056" stroke="black"/>
<path d="M432.632 226.493C434.632 218.243 429.632 208.556 421.194 205.056" stroke="black"/>
<path d="M416.882 182.118L410.632 200.618L361.132 196.993M407.882 184.368L404.382 195.368L376.632 192.868" stroke="black"/>
<path d="M416.882 227.868L410.632 209.368L361.132 212.993M407.882 225.618L404.382 214.618L376.632 217.118" stroke="black"/>
<path d="M418.901 212.705L422.347 224.383C422.347 224.383 427.967 220.409 426.737 216.334C425.512 212.276 418.901 212.705 418.901 212.705Z" stroke="black"/>
<path d="M418.901 197.281L422.347 185.603C422.347 185.603 427.967 189.577 426.737 193.652C425.512 197.71 418.901 197.281 418.901 197.281Z" stroke="black"/>
<circle cx="436.007" cy="204.868" r="4.875" transform="rotate(90 436.007 204.868)" fill="black"/>
<path d="M458.257 170.618C460.007 175.202 460.132 182.118 456.632 186.868C453.701 190.845 450.882 192.618 440.132 192.618M452.257 172.243C454.423 177.327 454.733 182.173 450.882 185.618C449.614 186.753 447.523 187.56 445.399 188.065M438.507 188.493C439.518 188.879 442.49 188.756 445.399 188.065M445.399 188.065C445.56 185.833 445.648 183.755 443.632 180.618C441.382 177.118 435.507 177.243 435.507 177.243" stroke="black"/>
<path d="M458.257 239.118C460.007 234.535 460.132 227.618 456.632 222.868C453.701 218.892 450.882 217.118 440.132 217.118M452.257 237.493C454.423 232.41 454.733 227.564 450.882 224.118C449.614 222.984 447.523 222.176 445.399 221.672M438.507 221.243C439.518 220.858 442.49 220.981 445.399 221.672M445.399 221.672C445.56 223.904 445.648 225.981 443.632 229.118C441.382 232.618 435.507 232.493 435.507 232.493" stroke="black"/>
<path d="M450.257 173.118L449.132 180.743L440.757 175.743" stroke="black"/>
<path d="M450.257 236.719L449.132 229.094L440.757 234.094" stroke="black"/>
<path d="M465.132 168.868C464.882 173.702 467.132 183.398 467.132 187.118C467.132 189.993 460.048 200.202 457.382 204.868" stroke="black"/>
<path d="M465.132 241.056C464.882 236.222 467.132 226.526 467.132 222.806C467.132 219.931 460.048 209.722 457.382 205.056" stroke="black"/>
<circle cx="462.454" cy="185.4" r="3" transform="rotate(90 462.454 185.4)" fill="black"/>
<circle cx="449.329" cy="196.993" r="3" transform="rotate(90 449.329 196.993)" fill="black"/>
<circle cx="457.382" cy="194.337" r="3" transform="rotate(90 457.382 194.337)" fill="black"/>
<circle cx="3" cy="3" r="3" transform="matrix(6.79865e-09 -1 -1 -6.79865e-09 465.454 227.336)" fill="black"/>
<circle cx="3" cy="3" r="3" transform="matrix(6.79865e-09 -1 -1 -6.79865e-09 452.329 215.743)" fill="black"/>
<circle cx="3" cy="3" r="3" transform="matrix(6.79865e-09 -1 -1 -6.79865e-09 460.382 218.4)" fill="black"/>
<path d="M331.5 205L189 205M331.5 205L193.856 168.118M331.5 205L193.856 241.882" stroke="black"/>
<path d="M241.125 229.257C235.125 230.257 223 223.632 223 217.632C223 211.013 211.75 205.132 205.75 205.132" stroke="black"/>
<path d="M241.125 181.007C235.125 180.007 223 186.632 223 192.632C223 199.251 211.75 205.132 205.75 205.132" stroke="black"/>
<path d="M230.368 226.382C228.368 218.132 233.368 208.444 241.806 204.944" stroke="black"/>
<path d="M230.368 183.507C228.368 191.757 233.368 201.444 241.806 204.944" stroke="black"/>
<path d="M246.118 227.882L252.368 209.382L301.868 213.007M255.118 225.632L258.618 214.632L286.368 217.132" stroke="black"/>
<path d="M246.118 182.132L252.368 200.632L301.868 197.007M255.118 184.382L258.618 195.382L286.368 192.882" stroke="black"/>
<path d="M244.099 197.295L240.653 185.617C240.653 185.617 235.033 189.591 236.263 193.666C237.488 197.724 244.099 197.295 244.099 197.295Z" stroke="black"/>
<path d="M244.099 212.719L240.653 224.397C240.653 224.397 235.033 220.423 236.263 216.348C237.488 212.29 244.099 212.719 244.099 212.719Z" stroke="black"/>
<circle cx="226.993" cy="205.132" r="4.875" transform="rotate(-90 226.993 205.132)" fill="black"/>
<path d="M204.743 239.382C202.993 234.798 202.868 227.882 206.368 223.132C209.299 219.155 212.118 217.382 222.868 217.382M210.743 237.757C208.577 232.673 208.267 227.827 212.118 224.382C213.386 223.247 215.477 222.44 217.601 221.935M224.493 221.507C223.482 221.121 220.51 221.244 217.601 221.935M217.601 221.935C217.44 224.167 217.352 226.245 219.368 229.382C221.618 232.882 227.493 232.757 227.493 232.757" stroke="black"/>
<path d="M204.743 170.882C202.993 175.465 202.868 182.382 206.368 187.132C209.299 191.108 212.118 192.882 222.868 192.882M210.743 172.507C208.577 177.59 208.267 182.436 212.118 185.882C213.386 187.016 215.477 187.824 217.601 188.328M224.493 188.757C223.482 189.142 220.51 189.019 217.601 188.328M217.601 188.328C217.44 186.096 217.352 184.019 219.368 180.882C221.618 177.382 227.493 177.507 227.493 177.507" stroke="black"/>
<path d="M212.743 236.882L213.868 229.257L222.243 234.257" stroke="black"/>
<path d="M212.743 173.281L213.868 180.906L222.243 175.906" stroke="black"/>
<path d="M197.868 241.132C198.118 236.298 195.868 226.602 195.868 222.882C195.868 220.007 202.952 209.798 205.618 205.132" stroke="black"/>
<path d="M197.868 168.944C198.118 173.778 195.868 183.474 195.868 187.194C195.868 190.069 202.952 200.278 205.618 204.944" stroke="black"/>
<circle cx="200.546" cy="224.6" r="3" transform="rotate(-90 200.546 224.6)" fill="black"/>
<circle cx="213.671" cy="213.007" r="3" transform="rotate(-90 213.671 213.007)" fill="black"/>
<circle cx="205.618" cy="215.663" r="3" transform="rotate(-90 205.618 215.663)" fill="black"/>
<circle cx="3" cy="3" r="3" transform="matrix(-1.39839e-07 1 1 1.39839e-07 197.546 182.664)" fill="black"/>
<circle cx="3" cy="3" r="3" transform="matrix(-1.39839e-07 1 1 1.39839e-07 210.671 194.257)" fill="black"/>
<circle cx="3" cy="3" r="3" transform="matrix(-1.39839e-07 1 1 1.39839e-07 202.618 191.6)" fill="black"/>
<path d="M331.5 205L454.909 276.25M331.5 205L432.263 305.763M331.5 205L469.144 241.882" stroke="black"/>
<path d="M421.895 229.181C427.592 231.315 434.78 243.114 431.78 248.311C428.47 254.043 435.272 264.761 440.469 267.761" stroke="black"/>
<path d="M397.77 270.966C402.467 274.832 416.28 275.157 419.28 269.961C422.589 264.229 435.272 264.761 440.469 267.761" stroke="black"/>
<path d="M429.773 237.049C427.381 245.193 418.207 251.083 409.15 249.895" stroke="black"/>
<path d="M408.336 274.18C414.193 268.035 414.707 257.145 409.15 249.895" stroke="black"/>
<path d="M416.884 227.875L402.221 240.771L361.165 212.882M407.964 225.323L399.433 233.1L376.651 217.059" stroke="black"/>
<path d="M394.009 267.495L397.846 248.349L353.165 226.738M387.339 261.047L389.808 249.771L364.526 238.061" stroke="black"/>
<path d="M403.339 255.374L400.484 267.21C400.484 267.21 407.338 266.578 408.31 262.434C409.279 258.307 403.339 255.374 403.339 255.374Z" stroke="black"/>
<path d="M411.051 242.016L419.874 233.625C419.874 233.625 422.754 239.877 419.651 242.791C416.562 245.693 411.051 242.016 411.051 242.016Z" stroke="black"/>
<circle cx="422.071" cy="257.139" r="4.875" transform="rotate(120 422.071 257.139)" fill="black"/>
<path d="M458.465 238.603C457.689 243.447 454.339 249.5 448.933 251.863C444.407 253.842 441.078 253.968 431.769 248.593M452.457 237.01C451.791 242.496 449.637 246.847 444.578 247.906C442.913 248.254 440.699 247.908 438.607 247.283M432.424 244.208C433.107 245.047 435.742 246.427 438.607 247.283M438.607 247.283C439.862 245.431 440.978 243.676 440.8 239.951C440.601 235.795 435.451 232.965 435.451 232.965" stroke="black"/>
<path d="M424.215 297.926C428.023 294.831 431.589 288.904 430.933 283.04C430.384 278.131 428.828 275.186 419.519 269.811M419.832 293.518C424.25 290.199 426.941 286.157 425.328 281.248C424.798 279.632 423.391 277.887 421.803 276.387M416.049 272.57C417.117 272.742 419.63 274.335 421.803 276.387M421.803 276.387C420.827 278.401 419.865 280.245 416.55 281.953C412.851 283.859 407.826 280.813 407.826 280.813" stroke="black"/>
<path d="M450.287 236.768L445.5 242.809L440.747 234.291" stroke="black"/>
<path d="M418.487 291.848L421.325 284.682L411.572 284.825" stroke="black"/>
<path d="M465.294 240.525C462.661 244.586 459.761 254.108 457.901 257.33C456.464 259.82 445.225 265.119 440.583 267.827" stroke="black"/>
<path d="M429.201 303.041C431.401 298.73 438.197 291.458 440.058 288.236C441.495 285.746 440.465 273.364 440.489 267.989" stroke="black"/>
<circle cx="454.709" cy="253.503" r="3" transform="rotate(120 454.709 253.503)" fill="black"/>
<circle cx="437.546" cy="256.98" r="3" transform="rotate(120 437.546 256.98)" fill="black"/>
<circle cx="445.848" cy="258.706" r="3" transform="rotate(120 445.848 258.706)" fill="black"/>
<circle cx="3" cy="3" r="3" transform="matrix(0.5 -0.866025 -0.866025 -0.5 436.339 291.321)" fill="black"/>
<circle cx="3" cy="3" r="3" transform="matrix(0.5 -0.866025 -0.866025 -0.5 430.769 274.718)" fill="black"/>
<circle cx="3" cy="3" r="3" transform="matrix(0.5 -0.866025 -0.866025 -0.5 436.415 281.045)" fill="black"/>
<path d="M331.5 205L208.091 133.75M331.5 205L230.737 104.237M331.5 205L193.856 168.118" stroke="black"/>
<path d="M241.105 180.819C235.408 178.685 228.22 166.886 231.22 161.689C234.53 155.957 227.728 145.239 222.531 142.239" stroke="black"/>
<path d="M265.23 139.034C260.533 135.168 246.72 134.843 243.72 140.039C240.411 145.771 227.728 145.239 222.531 142.239" stroke="black"/>
<path d="M233.227 172.951C235.62 164.807 244.793 158.917 253.85 160.105" stroke="black"/>
<path d="M254.664 135.82C248.807 141.965 248.293 152.855 253.85 160.105" stroke="black"/>
<path d="M246.116 182.125L260.779 169.229L301.835 197.118M255.036 184.677L263.567 176.9L286.349 192.941" stroke="black"/>
<path d="M268.991 142.505L265.154 161.651L309.835 183.262M275.661 148.953L273.192 160.229L298.474 171.939" stroke="black"/>
<path d="M259.661 154.626L262.516 142.79C262.516 142.79 255.662 143.422 254.69 147.566C253.721 151.693 259.661 154.626 259.661 154.626Z" stroke="black"/>
<path d="M251.949 167.984L243.126 176.375C243.126 176.375 240.246 170.123 243.349 167.209C246.439 164.307 251.949 167.984 251.949 167.984Z" stroke="black"/>
<circle cx="240.929" cy="152.861" r="4.875" transform="rotate(-60 240.929 152.861)" fill="black"/>
<path d="M204.535 171.397C205.311 166.553 208.661 160.5 214.067 158.137C218.593 156.158 221.922 156.032 231.231 161.407M210.543 172.99C211.209 167.504 213.364 163.153 218.422 162.094C220.087 161.746 222.301 162.092 224.393 162.717M230.576 165.792C229.893 164.953 227.258 163.573 224.393 162.717M224.393 162.717C223.138 164.569 222.022 166.324 222.2 170.049C222.399 174.205 227.549 177.035 227.549 177.035" stroke="black"/>
<path d="M238.785 112.074C234.977 115.169 231.411 121.096 232.067 126.96C232.616 131.869 234.172 134.814 243.481 140.189M243.168 116.482C238.75 119.801 236.059 123.842 237.672 128.752C238.202 130.368 239.609 132.113 241.197 133.613M246.951 137.43C245.883 137.258 243.37 135.665 241.197 133.613M241.197 133.613C242.173 131.599 243.135 129.755 246.45 128.047C250.149 126.141 255.174 129.187 255.174 129.187" stroke="black"/>
<path d="M212.713 173.232L217.5 167.191L222.253 175.709" stroke="black"/>
<path d="M244.513 118.152L241.675 125.318L251.428 125.175" stroke="black"/>
<path d="M197.706 169.475C200.339 165.414 203.239 155.892 205.099 152.67C206.536 150.18 217.775 144.881 222.417 142.173" stroke="black"/>
<path d="M233.799 106.959C231.599 111.27 224.803 118.542 222.942 121.764C221.505 124.254 222.535 136.636 222.511 142.011" stroke="black"/>
<circle cx="208.291" cy="156.497" r="3" transform="rotate(-60 208.291 156.497)" fill="black"/>
<circle cx="225.454" cy="153.02" r="3" transform="rotate(-60 225.454 153.02)" fill="black"/>
<circle cx="217.152" cy="151.294" r="3" transform="rotate(-60 217.152 151.294)" fill="black"/>
<circle cx="3" cy="3" r="3" transform="matrix(-0.5 0.866025 0.866025 0.5 226.661 118.679)" fill="black"/>
<circle cx="3" cy="3" r="3" transform="matrix(-0.5 0.866025 0.866025 0.5 232.231 135.282)" fill="black"/>
<circle cx="3" cy="3" r="3" transform="matrix(-0.5 0.866025 0.866025 0.5 226.585 128.955)" fill="black"/>
<path d="M331.5 205L402.75 328.409M331.5 205L368.382 342.644M331.5 205L432.263 305.763" stroke="black"/>
<path d="M397.694 271.139C401.56 275.835 401.886 289.648 396.689 292.648C390.957 295.957 391.489 308.641 394.489 313.837" stroke="black"/>
<path d="M355.909 295.264C358.043 300.96 369.843 308.148 375.039 305.148C380.771 301.838 391.489 308.641 394.489 313.837" stroke="black"/>
<path d="M400.583 281.892C394.438 287.749 383.549 288.262 376.299 282.705" stroke="black"/>
<path d="M363.452 303.329C371.597 300.936 377.486 291.762 376.299 282.705" stroke="black"/>
<path d="M394.007 267.502L374.861 271.339L353.25 226.658M387.558 260.833L376.282 263.302L364.572 238.019" stroke="black"/>
<path d="M354.386 290.377L367.283 275.714L339.393 234.658M351.835 281.458L359.611 272.927L343.571 250.144" stroke="black"/>
<path d="M368.528 284.544L360.137 293.367C360.137 293.367 366.389 296.247 369.303 293.145C372.205 290.055 368.528 284.544 368.528 284.544Z" stroke="black"/>
<path d="M381.885 276.832L393.722 273.977C393.722 273.977 393.09 280.831 388.946 281.804C384.819 282.772 381.885 276.832 381.885 276.832Z" stroke="black"/>
<circle cx="383.867" cy="295.44" r="4.875" transform="rotate(150 383.867 295.44)" fill="black"/>
<path d="M424.654 297.584C421.559 301.391 415.632 304.957 409.768 304.301C404.859 303.752 401.914 302.197 396.539 292.887M420.246 293.2C416.928 297.618 412.886 300.309 407.976 298.697C406.36 298.166 404.615 296.759 403.115 295.172M399.299 289.417C399.471 290.486 401.063 292.998 403.115 295.172M403.115 295.172C405.129 294.195 406.973 293.233 408.681 289.918C410.587 286.219 407.541 281.194 407.541 281.194" stroke="black"/>
<path d="M365.331 331.834C370.175 331.058 376.228 327.707 378.591 322.301C380.57 317.775 380.696 314.447 375.321 305.137M363.738 325.825C369.224 325.16 373.575 323.005 374.634 317.947C374.982 316.282 374.637 314.067 374.011 311.975M370.936 305.792C371.775 306.475 373.155 309.111 374.011 311.975M374.011 311.975C372.159 313.231 370.404 314.346 366.679 314.168C362.523 313.969 359.693 308.819 359.693 308.819" stroke="black"/>
<path d="M418.489 291.905L411.323 294.744L411.465 284.991" stroke="black"/>
<path d="M363.409 323.706L369.45 318.919L360.932 314.166" stroke="black"/>
<path d="M429.607 302.663C425.296 304.863 418.024 311.66 414.802 313.52C412.312 314.957 399.93 313.927 394.555 313.951" stroke="black"/>
<path d="M367.091 338.756C371.151 336.123 380.674 333.223 383.896 331.363C386.385 329.926 391.684 318.687 394.393 314.045" stroke="black"/>
<circle cx="413.951" cy="308.61" r="3" transform="rotate(150 413.951 308.61)" fill="black"/>
<circle cx="397.348" cy="303.039" r="3" transform="rotate(150 397.348 303.039)" fill="black"/>
<circle cx="403.675" cy="308.685" r="3" transform="rotate(150 403.675 308.685)" fill="black"/>
<circle cx="3" cy="3" r="3" transform="matrix(0.866025 -0.5 -0.5 -0.866025 379.133 332.176)" fill="black"/>
<circle cx="3" cy="3" r="3" transform="matrix(0.866025 -0.5 -0.5 -0.866025 382.61 315.013)" fill="black"/>
<circle cx="3" cy="3" r="3" transform="matrix(0.866025 -0.5 -0.5 -0.866025 384.336 323.315)" fill="black"/>
<path d="M331.5 205L260.25 81.5914M331.5 205L294.618 67.3556M331.5 205L230.737 104.237" stroke="black"/>
<path d="M265.306 138.861C261.44 134.165 261.114 120.352 266.311 117.352C272.043 114.043 271.511 101.359 268.511 96.1631" stroke="black"/>
<path d="M307.091 114.736C304.957 109.04 293.157 101.852 287.961 104.852C282.229 108.162 271.511 101.359 268.511 96.1631" stroke="black"/>
<path d="M262.417 128.108C268.562 122.251 279.451 121.738 286.701 127.295" stroke="black"/>
<path d="M299.548 106.671C291.403 109.064 285.514 118.238 286.701 127.295" stroke="black"/>
<path d="M268.993 142.498L288.14 138.661L309.75 183.342M275.442 149.167L286.718 146.698L298.428 171.981" stroke="black"/>
<path d="M308.614 119.623L295.717 134.286L323.607 175.342M311.165 128.542L303.389 137.073L319.429 159.856" stroke="black"/>
<path d="M294.472 125.456L302.863 116.633C302.863 116.633 296.611 113.753 293.697 116.855C290.795 119.945 294.472 125.456 294.472 125.456Z" stroke="black"/>
<path d="M281.115 133.168L269.278 136.023C269.278 136.023 269.91 129.169 274.054 128.196C278.181 127.228 281.115 133.168 281.115 133.168Z" stroke="black"/>
<circle cx="279.133" cy="114.56" r="4.875" transform="rotate(-30 279.133 114.56)" fill="black"/>
<path d="M238.346 112.416C241.441 108.609 247.368 105.043 253.232 105.699C258.141 106.248 261.086 107.803 266.461 117.113M242.754 116.8C246.072 112.382 250.114 109.691 255.024 111.303C256.64 111.834 258.385 113.241 259.885 114.828M263.701 120.583C263.529 119.514 261.937 117.002 259.885 114.828M259.885 114.828C257.871 115.805 256.027 116.767 254.319 120.082C252.413 123.781 255.459 128.806 255.459 128.806" stroke="black"/>
<path d="M297.669 78.1663C292.825 78.9425 286.772 82.2925 284.409 87.6986C282.43 92.2246 282.304 95.5533 287.679 104.863M299.262 84.175C293.776 84.8403 289.425 86.9952 288.366 92.0533C288.018 93.7184 288.363 95.9328 288.989 98.025M292.064 104.208C291.225 103.525 289.845 100.889 288.989 98.025M288.989 98.025C290.841 96.7695 292.596 95.654 296.321 95.832C300.477 96.0305 303.307 101.181 303.307 101.181" stroke="black"/>
<path d="M244.511 118.095L251.677 115.256L251.535 125.009" stroke="black"/>
<path d="M299.591 86.2941L293.55 91.0809L302.068 95.8338" stroke="black"/>
<path d="M233.393 107.337C237.704 105.137 244.976 98.3405 248.198 96.4804C250.688 95.0429 263.07 96.073 268.445 96.0491" stroke="black"/>
<path d="M295.909 71.2437C291.849 73.8769 282.326 76.7765 279.104 78.6366C276.615 80.0741 271.316 91.3126 268.607 95.9554" stroke="black"/>
<circle cx="249.049" cy="101.39" r="3" transform="rotate(-30 249.049 101.39)" fill="black"/>
<circle cx="265.652" cy="106.961" r="3" transform="rotate(-30 265.652 106.961)" fill="black"/>
<circle cx="259.325" cy="101.315" r="3" transform="rotate(-30 259.325 101.315)" fill="black"/>
<circle cx="3" cy="3" r="3" transform="matrix(-0.866025 0.5 0.5 0.866025 283.867 77.8244)" fill="black"/>
<circle cx="3" cy="3" r="3" transform="matrix(-0.866025 0.5 0.5 0.866025 280.39 94.9875)" fill="black"/>
<circle cx="3" cy="3" r="3" transform="matrix(-0.866025 0.5 0.5 0.866025 278.664 86.6854)" fill="black"/>
</svg>
