<svg width="557" height="335" viewBox="0 0 557 335" fill="none" xmlns="http://www.w3.org/2000/svg">
<rect width="557" height="335" fill="#1E1E1E"/>
<rect width="557" height="335" fill="white"/>
<mask id="mask0_0_1" style="mask-type:alpha" maskUnits="userSpaceOnUse" x="191" y="90" width="213" height="84">
<rect x="191.5" y="90.5" width="212" height="83" fill="#D9D9D9"/>
</mask>
<g mask="url(#mask0_0_1)">
<g filter="url(#filter0_d_0_1)">
<path d="M206.6 231.5V91.5H279.6V115.5H234V150.5H273.6V173.7H234V231.5H206.6ZM302.017 91.5H350.017V115.5H311.617L311.017 116.7L343.017 175.1C349.551 186.833 352.817 195.767 352.817 201.9C352.817 215.367 348.351 225.233 339.417 231.5H286.417V208.3H327.817L328.417 207.1L292.417 142.5C287.217 133.167 284.617 125.567 284.617 119.7C284.617 105.833 290.417 96.4333 302.017 91.5Z" fill="url(#paint0_linear_0_1)" shape-rendering="crispEdges"/>
</g>
</g>
<mask id="mask1_0_1" style="mask-type:alpha" maskUnits="userSpaceOnUse" x="191" y="202" width="213" height="84">
<rect x="191.5" y="202.5" width="212" height="83" fill="#D9D9D9"/>
</mask>
<g mask="url(#mask1_0_1)">
<path d="M206.6 231.5V91.5H279.6V115.5H234V150.5H273.6V173.7H234V231.5H206.6ZM302.017 91.5H350.017V115.5H311.617L311.017 116.7L343.017 175.1C349.551 186.833 352.817 195.767 352.817 201.9C352.817 215.367 348.351 225.233 339.417 231.5H286.417V208.3H327.817L328.417 207.1L292.417 142.5C287.217 133.167 284.617 125.567 284.617 119.7C284.617 105.833 290.417 96.4333 302.017 91.5Z" fill="black"/>
</g>
<path d="M206.94 198.5V177.5H217.89V181.1H211.05V186.35H216.99V189.83H211.05V198.5H206.94ZM228.966 177.5C230.366 178.64 231.406 180.17 232.086 182.09C232.766 184.01 233.106 185.99 233.106 188.03C233.106 190.05 232.776 191.97 232.116 193.79C231.456 195.61 230.406 197.18 228.966 198.5H222.786C221.346 197.18 220.296 195.61 219.636 193.79C218.976 191.97 218.646 190.05 218.646 188.03C218.646 185.99 218.986 184.01 219.666 182.09C220.346 180.17 221.386 178.64 222.786 177.5H228.966ZM224.796 195.02H226.956C227.456 194.44 227.876 193.5 228.216 192.2C228.576 190.88 228.756 189.49 228.756 188.03C228.756 186.57 228.586 185.2 228.246 183.92C227.906 182.62 227.486 181.68 226.986 181.1H224.796C224.296 181.68 223.866 182.62 223.506 183.92C223.166 185.2 222.996 186.57 222.996 188.03C222.996 189.49 223.166 190.88 223.506 192.2C223.866 193.5 224.296 194.44 224.796 195.02ZM245.226 177.5C246.626 178.64 247.666 180.17 248.346 182.09C249.026 184.01 249.366 185.99 249.366 188.03C249.366 190.05 249.036 191.97 248.376 193.79C247.716 195.61 246.666 197.18 245.226 198.5H239.046C237.606 197.18 236.556 195.61 235.896 193.79C235.236 191.97 234.906 190.05 234.906 188.03C234.906 185.99 235.246 184.01 235.926 182.09C236.606 180.17 237.646 178.64 239.046 177.5H245.226ZM241.056 195.02H243.216C243.716 194.44 244.136 193.5 244.476 192.2C244.836 190.88 245.016 189.49 245.016 188.03C245.016 186.57 244.846 185.2 244.506 183.92C244.166 182.62 243.746 181.68 243.246 181.1H241.056C240.556 181.68 240.126 182.62 239.766 183.92C239.426 185.2 239.256 186.57 239.256 188.03C239.256 189.49 239.426 190.88 239.766 192.2C240.126 193.5 240.556 194.44 241.056 195.02ZM255.786 195.02H258.486C259.046 194.32 259.486 193.3 259.806 191.96C260.146 190.62 260.316 189.29 260.316 187.97C260.316 184.83 259.726 182.54 258.546 181.1H255.786V195.02ZM251.706 198.5V177.5H260.406C263.246 180.02 264.666 183.44 264.666 187.76C264.666 192.06 263.336 195.64 260.676 198.5H251.706Z" fill="black"/>
<path d="M313.36 177.5H320.56V181.1H314.8L314.71 181.28L319.51 190.04C320.49 191.8 320.98 193.14 320.98 194.06C320.98 196.08 320.31 197.56 318.97 198.5H311.02V195.02H317.23L317.32 194.84L311.92 185.15C311.14 183.75 310.75 182.61 310.75 181.73C310.75 179.65 311.62 178.24 313.36 177.5ZM323.071 198.5V177.5H333.841V181.1H327.181V186.11H333.121V189.59H327.181V195.02H333.961V198.5H323.071ZM345.224 198.5L344.594 195.17H339.854L339.224 198.5H335.144L339.194 177.5H345.404L349.244 198.5H345.224ZM342.164 181.4L340.994 188.39L340.334 191.96H344.084L343.394 188.39L342.224 181.4H342.164Z" fill="black"/>
<defs>
<filter id="filter0_d_0_1" x="202.6" y="91.5" width="154.217" height="148" filterUnits="userSpaceOnUse" color-interpolation-filters="sRGB">
<feFlood flood-opacity="0" result="BackgroundImageFix"/>
<feColorMatrix in="SourceAlpha" type="matrix" values="0 0 0 0 0 0 0 0 0 0 0 0 0 0 0 0 0 0 127 0" result="hardAlpha"/>
<feOffset dy="4"/>
<feGaussianBlur stdDeviation="2"/>
<feComposite in2="hardAlpha" operator="out"/>
<feColorMatrix type="matrix" values="0 0 0 0 0 0 0 0 0 0 0 0 0 0 0 0 0 0 0.25 0"/>
<feBlend mode="normal" in2="BackgroundImageFix" result="effect1_dropShadow_0_1"/>
<feBlend mode="normal" in="SourceGraphic" in2="effect1_dropShadow_0_1" result="shape"/>
</filter>
<linearGradient id="paint0_linear_0_1" x1="279.25" y1="15.5" x2="279.25" y2="237.5" gradientUnits="userSpaceOnUse">
<stop offset="0.583333" stop-color="#FA0E0E"/>
<stop offset="0.907658" stop-color="#420E0E" stop-opacity="0.77"/>
<stop offset="1" stop-opacity="0"/>
</linearGradient>
</defs>
</svg>
