<svg width="533" height="533" viewBox="0 0 533 533" fill="none" xmlns="http://www.w3.org/2000/svg">
<path fill-rule="evenodd" clip-rule="evenodd" d="M303.423 95.5341L290.696 82.8061L358.578 14.9239L440.588 96.9341C424.62 112.276 404.75 121.147 384.253 123.561C355.465 126.951 325.494 117.605 303.423 95.5341ZM385.89 137.465C391.876 136.76 397.816 135.572 403.648 133.902L350.093 187.458C311.821 225.729 249.771 225.729 211.5 187.458L197.357 173.316L106.848 82.8061L188.872 0.781745L275.846 87.7559L293.524 105.434C318.753 130.662 353.03 141.335 385.89 137.465ZM399.405 403.648L345.85 350.092C307.579 311.821 307.579 249.771 345.85 211.5L359.992 197.357L450.502 106.848L532.526 188.872L445.552 275.846L427.874 293.524C402.645 318.753 391.973 353.03 395.843 385.89C396.548 391.876 397.735 397.816 399.405 403.648ZM409.747 384.253C412.161 404.75 421.032 424.62 436.374 440.588L518.384 358.578L450.502 290.696L437.774 303.423C415.703 325.494 406.356 355.465 409.747 384.253ZM335.95 359.992L426.46 450.502L344.436 532.526L257.462 445.552L239.784 427.874C214.555 402.645 180.278 391.973 147.418 395.843C141.432 396.548 135.492 397.735 129.66 399.405L183.215 345.85C221.487 307.578 283.537 307.578 321.808 345.85L335.95 359.992ZM173.316 335.95L82.8062 426.46L0.781785 344.436L87.7559 257.462L105.434 239.784C130.662 214.555 141.335 180.278 137.465 147.418C136.76 141.432 135.572 135.492 133.903 129.66L187.458 183.215C225.729 221.487 225.729 283.537 187.458 321.808L173.316 335.95ZM123.561 149.055C121.147 128.558 112.276 108.688 96.9342 92.7197L14.9239 174.73L82.8062 242.612L95.5341 229.884C117.605 207.814 126.951 177.842 123.561 149.055ZM174.73 518.384L92.7198 436.374C108.688 421.032 128.558 412.161 149.055 409.747C177.842 406.356 207.814 415.703 229.884 437.774L242.612 450.502L174.73 518.384Z" fill="#CF3535"/>
</svg>
