<svg width="1800" height="1800" viewBox="0 0 1800 1800" fill="none" xmlns="http://www.w3.org/2000/svg">
<rect width="1800" height="1800" fill="#1E1E1E"/>
<rect width="1800" height="1800" fill="#424242"/>
<g filter="url(#filter0_d_34_2)">
<path d="M630.367 902.553L521.952 965.147L569.905 992.832C569.441 987.215 571.758 981.062 576.854 974.375C581.951 967.688 589.364 961.535 599.093 955.918C616.467 945.887 634.768 939.868 653.996 937.862C673.455 935.722 692.103 936.725 709.941 940.871C727.778 945.018 743.994 951.304 758.589 959.73C785.692 975.378 799.592 992.23 800.287 1010.29C800.75 1028.21 787.082 1045.19 759.284 1061.24C740.751 1071.94 721.524 1079.43 701.601 1083.71C681.447 1087.86 661.988 1088.8 643.224 1086.52C624.46 1084.25 607.317 1079.03 591.796 1070.87L649.826 1037.37C658.397 1040.71 667.779 1042.25 677.972 1041.98C687.933 1041.58 697.547 1038.71 706.813 1033.36C717.701 1027.07 722.334 1020.38 720.713 1013.3C719.091 1006.21 712.489 999.319 700.906 992.631C689.555 986.078 678.088 982.667 666.505 982.4C654.922 982.132 643.803 985.075 633.147 991.227C625.27 995.775 620.753 1000.66 619.595 1005.87C618.205 1010.95 619.827 1015.77 624.46 1020.32L567.125 1053.42L415.969 966.15L578.244 872.46L630.367 902.553Z" fill="white"/>
<path d="M749.342 916.518C709.497 893.514 685.753 870.977 678.108 848.909C670.695 826.707 684.131 805.709 718.416 785.914C752.701 766.12 788.956 758.429 827.179 762.843C865.634 767.123 904.784 780.765 944.629 803.769C984.937 827.041 1008.8 849.778 1016.21 871.98C1023.86 894.049 1010.53 914.98 976.25 934.775C941.965 954.569 905.595 962.326 867.14 958.046C828.916 953.633 789.651 939.79 749.342 916.518ZM886.251 837.474C862.854 823.965 842.352 815.071 824.746 810.791C806.909 806.377 789.998 808.785 774.014 818.013C758.029 827.242 753.86 837.006 761.504 847.304C768.917 857.469 784.322 869.305 807.72 882.814C823.472 891.909 837.488 898.93 849.765 903.879C861.811 908.694 873.858 911.369 885.904 911.904C897.95 912.171 909.533 909.095 920.652 902.675C931.772 896.255 936.984 889.635 936.289 882.814C935.594 875.725 931.077 868.704 922.737 861.749C914.166 854.66 902.004 846.568 886.251 837.474Z" fill="white"/>
<path d="M976.022 785.645C936.177 762.64 912.432 740.104 904.787 718.036C897.374 695.834 910.81 674.835 945.096 655.041C979.381 635.246 1015.63 627.556 1053.86 631.97C1092.31 636.249 1131.46 649.892 1171.31 672.896C1211.62 696.168 1235.48 718.905 1242.89 741.107C1250.53 763.175 1237.21 784.107 1202.93 803.901C1168.64 823.696 1132.27 831.453 1093.82 827.173C1055.6 822.759 1016.33 808.917 976.022 785.645ZM1112.93 706.6C1089.53 693.092 1069.03 684.198 1051.43 679.918C1033.59 675.504 1016.68 677.912 1000.69 687.14C984.709 696.369 980.539 706.132 988.184 716.431C995.597 726.595 1011 738.432 1034.4 751.94C1050.15 761.035 1064.17 768.057 1076.44 773.006C1088.49 777.82 1100.54 780.495 1112.58 781.03C1124.63 781.298 1136.21 778.222 1147.33 771.802C1158.45 765.382 1163.66 758.762 1162.97 751.94C1162.27 744.852 1157.76 737.83 1149.42 730.875C1140.85 723.787 1128.68 715.695 1112.93 706.6Z" fill="white"/>
<path d="M755.079 1160.81C749.728 1163.9 744.064 1166.17 738.087 1167.61C732.11 1169.06 726.134 1169.54 720.157 1169.06C714.25 1168.54 708.829 1166.93 703.895 1164.24L722.867 1153.29C725.856 1154.69 728.879 1155.35 731.937 1155.27C734.925 1155.15 737.705 1154.35 740.276 1152.87C742.917 1151.34 744.411 1149.8 744.759 1148.23C745.037 1146.63 744.099 1145.2 741.944 1143.96C740.137 1142.92 738.018 1142.41 735.585 1142.45C733.222 1142.45 730.755 1142.76 728.184 1143.36C725.682 1143.92 722.311 1144.86 718.072 1146.19C711.887 1148.07 706.57 1149.46 702.122 1150.34C697.675 1151.22 692.949 1151.46 687.945 1151.06C682.941 1150.66 678.146 1149.14 673.559 1146.49C666.748 1142.56 663.899 1138.06 665.011 1133.01C666.054 1127.91 670.536 1123.07 678.459 1118.5C686.52 1113.85 694.964 1111.22 703.79 1110.62C712.547 1109.97 720.539 1111.54 727.767 1115.31L708.481 1126.45C705.98 1125.16 703.269 1124.6 700.35 1124.76C697.362 1124.88 694.617 1125.66 692.115 1127.11C689.96 1128.35 688.814 1129.7 688.675 1131.14C688.466 1132.54 689.439 1133.87 691.594 1135.11C693.957 1136.48 696.91 1136.9 700.454 1136.38C703.999 1135.85 708.898 1134.67 715.153 1132.82C721.477 1131.02 726.829 1129.7 731.207 1128.85C735.655 1127.97 740.346 1127.71 745.28 1128.07C750.214 1128.43 754.871 1129.88 759.249 1132.4C763.419 1134.81 766.129 1137.62 767.38 1140.83C768.7 1144 768.353 1147.33 766.338 1150.82C764.322 1154.31 760.569 1157.64 755.079 1160.81Z" fill="white"/>
<path d="M791.277 1071.9L849.446 1105.49L831.62 1115.78L823.697 1111.2C824.461 1113.73 824.079 1116.36 822.55 1119.09C821.021 1121.74 818.38 1124.14 814.628 1126.31C810.18 1128.88 805.28 1130.58 799.929 1131.43C794.508 1132.23 788.983 1132.09 783.354 1131.01C777.725 1129.92 772.373 1127.92 767.3 1124.99L733.316 1105.37L751.038 1095.13L782.624 1113.37C786.516 1115.62 790.547 1116.78 794.717 1116.86C798.887 1116.94 802.674 1116 806.079 1114.03C809.554 1112.03 811.222 1109.82 811.083 1107.41C810.944 1105 808.929 1102.68 805.037 1100.43L773.451 1082.19L791.277 1071.9Z" fill="white"/>
<path d="M886.747 1084.91C881.674 1087.84 876.288 1089.95 870.589 1091.23C864.891 1092.52 859.4 1092.96 854.119 1092.56C848.767 1092.12 844.076 1090.89 840.046 1088.89L857.663 1078.71C859.887 1079.76 862.458 1080.16 865.377 1079.92C868.296 1079.68 870.972 1078.85 873.404 1077.45C875.628 1076.17 876.914 1074.94 877.261 1073.78C877.609 1072.53 877.087 1071.51 875.697 1070.71C874.03 1069.75 871.945 1069.55 869.443 1070.11C866.871 1070.63 863.153 1071.73 858.288 1073.42C853.146 1075.26 848.663 1076.69 844.841 1077.69C840.949 1078.65 836.849 1079.05 832.54 1078.89C828.162 1078.69 823.992 1077.45 820.03 1075.16C816.695 1073.24 814.575 1070.97 813.671 1068.36C812.768 1065.67 813.289 1062.84 815.235 1059.88C817.251 1056.87 820.725 1053.94 825.66 1051.09C832.957 1046.88 840.497 1044.61 848.281 1044.29C856.134 1043.93 863.362 1045.29 869.964 1048.38L853.493 1057.89C851.2 1056.89 848.698 1056.49 845.988 1056.69C843.347 1056.85 840.81 1057.63 838.378 1059.03C836.293 1060.24 835.111 1061.4 834.833 1062.52C834.486 1063.61 835.007 1064.55 836.397 1065.35C838.065 1066.32 840.185 1066.54 842.756 1066.01C845.397 1065.45 849.011 1064.33 853.597 1062.64C859.018 1060.8 863.64 1059.41 867.462 1058.49C871.215 1057.53 875.315 1057.17 879.763 1057.41C884.211 1057.57 888.485 1058.79 892.585 1061.08C895.991 1063.05 898.075 1065.37 898.84 1068.06C899.604 1070.67 898.944 1073.46 896.859 1076.43C894.844 1079.36 891.473 1082.18 886.747 1084.91Z" fill="white"/>
<path d="M887.75 1049.79C881.704 1046.3 877.638 1042.55 875.553 1038.53C873.538 1034.48 873.503 1030.49 875.449 1026.56C877.464 1022.58 881.322 1018.95 887.02 1015.66C894.317 1011.45 902.31 1009.04 910.997 1008.44C919.753 1007.8 928.371 1009.04 936.85 1012.17L917.877 1023.13C911.831 1021.48 906.514 1021.98 901.927 1024.63C898.661 1026.52 897.341 1028.76 897.966 1031.37C898.522 1033.94 901.163 1036.59 905.889 1039.32C910.615 1042.04 915.236 1043.59 919.753 1043.95C924.201 1044.27 928.058 1043.49 931.325 1041.6C935.911 1038.95 936.78 1035.88 933.931 1032.39L952.903 1021.44C958.185 1026.25 960.305 1031.21 959.262 1036.31C958.22 1041.4 954.085 1046.04 946.857 1050.21C941.158 1053.5 934.869 1055.73 927.989 1056.89C921.178 1058.01 914.263 1057.99 907.244 1056.83C900.294 1055.63 893.796 1053.28 887.75 1049.79Z" fill="white"/>
<path d="M952.848 989.814C951.736 986.764 951.84 983.815 953.161 980.967C954.412 978.078 956.948 975.53 960.771 973.323L979.639 984.217L974.74 987.045C970.292 989.613 967.929 992.101 967.651 994.508C967.303 996.876 969.527 999.444 974.323 1002.21L1001.32 1017.8L983.496 1028.09L925.327 994.508L943.153 984.217L952.848 989.814Z" fill="white"/>
<path d="M972.835 960.098C969.708 961.904 966.233 962.867 962.411 962.987C958.589 963.027 955.322 962.265 952.612 960.7C949.832 959.095 948.512 957.209 948.65 955.042C948.789 952.795 950.423 950.769 953.55 948.964C956.608 947.198 960.048 946.295 963.87 946.255C967.693 946.135 970.994 946.877 973.774 948.482C976.484 950.047 977.77 951.953 977.631 954.2C977.492 956.366 975.893 958.332 972.835 960.098ZM987.742 958.473L1045.91 992.057L1028.09 1002.35L969.917 968.765L987.742 958.473Z" fill="white"/>
<path d="M1026.72 945.477C1025.75 942.909 1025.96 940.261 1027.35 937.533C1028.74 934.804 1031.48 932.257 1035.58 929.889C1040.38 927.121 1045.94 925.315 1052.26 924.472C1058.59 923.63 1065.12 923.871 1071.86 925.195C1078.67 926.479 1085.06 928.846 1091.04 932.297C1097.02 935.747 1101.15 939.459 1103.45 943.431C1105.74 947.323 1106.19 951.115 1104.8 954.806C1103.34 958.458 1100.22 961.667 1095.42 964.436C1091.39 966.763 1086.98 968.348 1082.18 969.191C1077.45 969.993 1072.9 970.134 1068.52 969.612L1104.38 990.316L1086.56 1000.61L1000.66 951.015L1018.49 940.723L1026.72 945.477ZM1072.9 942.769C1068.46 940.201 1063.73 938.917 1058.73 938.917C1053.72 938.837 1049.41 939.84 1045.8 941.926C1042.25 943.973 1040.52 946.46 1040.59 949.39C1040.73 952.278 1043.02 955.007 1047.47 957.575C1051.91 960.143 1056.64 961.467 1061.64 961.547C1066.72 961.587 1071.03 960.584 1074.57 958.538C1078.12 956.491 1079.85 954.004 1079.78 951.075C1079.64 948.106 1077.35 945.337 1072.9 942.769Z" fill="white"/>
<path d="M1146.89 916.305L1162 925.032L1152.93 930.268C1146.47 933.999 1139.87 936.005 1133.13 936.286C1126.32 936.527 1119.33 934.581 1112.17 930.448L1089.03 917.087L1081.94 921.18L1067.14 912.633L1074.23 908.541L1060.05 900.355L1077.88 890.063L1092.05 898.249L1103.73 891.508L1118.53 900.054L1106.86 906.795L1130.21 920.277C1131.95 921.28 1133.61 921.761 1135.21 921.721C1136.81 921.681 1138.58 921.099 1140.53 919.976L1146.89 916.305Z" fill="white"/>
<path d="M1199.24 904.493C1193.55 907.783 1187.19 910.05 1180.17 911.294C1173.22 912.498 1166.16 912.558 1159.01 911.475C1151.92 910.351 1145.35 908.044 1139.3 904.553C1133.33 901.103 1129.4 897.311 1127.52 893.178C1125.58 889.005 1125.68 884.892 1127.84 880.84C1129.99 876.787 1133.92 873.116 1139.62 869.826C1145.31 866.536 1151.67 864.269 1158.69 863.025C1165.71 861.781 1172.84 861.721 1180.06 862.844C1187.22 863.928 1193.79 866.195 1199.77 869.645C1205.74 873.096 1209.67 876.928 1211.55 881.141C1213.42 885.274 1213.25 889.386 1211.02 893.479C1208.87 897.532 1204.94 901.203 1199.24 904.493ZM1183.82 895.586C1187.22 893.619 1188.85 891.232 1188.72 888.423C1188.65 885.575 1186.28 882.806 1181.63 880.118C1176.97 877.429 1172.21 876.045 1167.35 875.965C1162.55 875.844 1158.45 876.767 1155.04 878.733C1151.57 880.74 1149.94 883.127 1150.14 885.896C1150.28 888.624 1152.72 891.352 1157.44 894.081C1162.1 896.769 1166.79 898.194 1171.51 898.354C1176.31 898.474 1180.41 897.552 1183.82 895.586Z" fill="white"/>
<path d="M1207.66 842.699C1206.55 839.649 1206.65 836.7 1207.97 833.852C1209.22 830.963 1211.76 828.415 1215.58 826.208L1234.45 837.102L1229.55 839.93C1225.1 842.498 1222.74 844.986 1222.46 847.393C1222.11 849.761 1224.34 852.329 1229.13 855.097L1256.13 870.685L1238.31 880.977L1180.14 847.393L1197.96 837.102L1207.66 842.699Z" fill="white"/>
<path d="M1307.71 806.242C1309.37 807.205 1311.01 808.268 1312.61 809.432L1272.26 832.724C1276.15 834.65 1280.08 835.593 1284.04 835.553C1288 835.432 1291.48 834.509 1294.47 832.784C1298.92 830.216 1300.13 827.347 1298.12 824.178L1317.09 813.224C1319.94 815.992 1321.61 819.002 1322.09 822.252C1322.65 825.462 1321.88 828.671 1319.8 831.881C1317.71 835.091 1314.31 838.06 1309.58 840.789C1303.88 844.079 1297.59 846.306 1290.71 847.47C1283.83 848.633 1276.88 848.633 1269.87 847.47C1262.85 846.306 1256.31 843.979 1250.27 840.488C1244.22 836.997 1240.16 833.246 1238.07 829.233C1236.06 825.181 1236.06 821.168 1238.07 817.196C1240.09 813.224 1243.98 809.572 1249.75 806.242C1255.38 802.992 1261.56 800.785 1268.3 799.622C1275.04 798.458 1281.82 798.438 1288.63 799.561C1295.51 800.645 1301.87 802.872 1307.71 806.242ZM1284.77 814.066C1281.71 812.301 1278.24 811.498 1274.35 811.659C1270.46 811.819 1266.95 812.802 1263.82 814.608C1260.83 816.333 1259.16 818.299 1258.82 820.506C1258.54 822.673 1259.75 824.82 1262.46 826.946L1284.77 814.066Z" fill="white"/>
<path d="M1371.63 804.965C1366.56 807.895 1361.17 810.001 1355.47 811.285C1349.77 812.569 1344.28 813.01 1339 812.609C1333.65 812.168 1328.96 810.944 1324.93 808.938L1342.55 798.766C1344.77 799.81 1347.34 800.211 1350.26 799.97C1353.18 799.729 1355.86 798.907 1358.29 797.502C1360.51 796.218 1361.8 794.995 1362.14 793.831C1362.49 792.587 1361.97 791.564 1360.58 790.762C1358.91 789.799 1356.83 789.598 1354.33 790.16C1351.75 790.681 1348.04 791.785 1343.17 793.47C1338.03 795.316 1333.55 796.74 1329.72 797.743C1325.83 798.706 1321.73 799.107 1317.42 798.947C1313.05 798.746 1308.88 797.502 1304.91 795.215C1301.58 793.289 1299.46 791.022 1298.55 788.414C1297.65 785.726 1298.17 782.897 1300.12 779.928C1302.13 776.919 1305.61 773.99 1310.54 771.141C1317.84 766.928 1325.38 764.661 1333.16 764.34C1341.02 763.979 1348.25 765.343 1354.85 768.433L1338.38 777.942C1336.08 776.939 1333.58 776.538 1330.87 776.738C1328.23 776.899 1325.69 777.681 1323.26 779.085C1321.18 780.289 1319.99 781.453 1319.72 782.576C1319.37 783.66 1319.89 784.603 1321.28 785.405C1322.95 786.368 1325.07 786.589 1327.64 786.067C1330.28 785.505 1333.89 784.382 1338.48 782.697C1343.9 780.851 1348.52 779.467 1352.35 778.544C1356.1 777.581 1360.2 777.22 1364.65 777.46C1369.09 777.621 1373.37 778.845 1377.47 781.132C1380.87 783.098 1382.96 785.425 1383.72 788.113C1384.49 790.721 1383.83 793.51 1381.74 796.479C1379.73 799.408 1376.36 802.237 1371.63 804.965Z" fill="white"/>
</g>
<defs>
<filter id="filter0_d_34_2" x="411.969" y="630.762" width="976.062" height="657.475" filterUnits="userSpaceOnUse" color-interpolation-filters="sRGB">
<feFlood flood-opacity="0" result="BackgroundImageFix"/>
<feColorMatrix in="SourceAlpha" type="matrix" values="0 0 0 0 0 0 0 0 0 0 0 0 0 0 0 0 0 0 127 0" result="hardAlpha"/>
<feOffset dy="115"/>
<feGaussianBlur stdDeviation="2"/>
<feComposite in2="hardAlpha" operator="out"/>
<feColorMatrix type="matrix" values="0 0 0 0 0 0 0 0 0 0 0 0 0 0 0 0 0 0 0.25 0"/>
<feBlend mode="normal" in2="BackgroundImageFix" result="effect1_dropShadow_34_2"/>
<feBlend mode="normal" in="SourceGraphic" in2="effect1_dropShadow_34_2" result="shape"/>
</filter>
</defs>
</svg>
