<svg width="320" height="320" viewBox="0 0 320 320" fill="none" xmlns="http://www.w3.org/2000/svg">
<g clip-path="url(#clip0_11_74)">
<rect width="320" height="320" fill="url(#paint0_linear_11_74)" style="mix-blend-mode:color-dodge"/>
<g filter="url(#filter0_d_11_74)">
<circle cx="63.4443" cy="304.693" r="9.75204" transform="rotate(-179.712 63.4443 304.693)" fill="url(#paint1_linear_11_74)"/>
<circle cx="96.061" cy="300.263" r="9.59303" transform="rotate(-179.712 96.061 300.263)" fill="url(#paint2_linear_11_74)"/>
<circle cx="82.6015" cy="281.505" r="9.40722" transform="rotate(-179.712 82.6015 281.505)" fill="url(#paint3_linear_11_74)"/>
<circle cx="256.575" cy="12.1418" r="8.92547" fill="url(#paint4_linear_11_74)"/>
<circle cx="228.8" cy="24.6374" r="12.4957" fill="url(#paint5_linear_11_74)"/>
<circle cx="254.662" cy="44.2111" r="7.01287" fill="url(#paint6_linear_11_74)"/>
</g>
<g filter="url(#filter1_d_11_74)">
<path fill-rule="evenodd" clip-rule="evenodd" d="M233.213 55.3045C230.981 67.1379 221.109 76.0551 209.269 76.0551C195.784 76.0551 184.853 64.4888 184.853 50.2211C184.853 39.9924 190.471 31.1521 198.621 26.9667C198.848 25.7544 198.966 24.504 198.966 23.226C198.966 12.0555 189.911 3 178.74 3C167.57 3 158.514 12.0555 158.514 23.226C158.514 27.1944 156.049 29.5397 153.423 30.1146L114.501 30.9631C101.823 31.2395 91.8699 41.9214 92.489 54.588L101.272 234.265L101.07 234.167L100.902 234.2C95.6429 235.226 91.3042 236.541 88.157 238.997C84.9779 241.479 83.0707 245.078 82.5688 250.529L82.5667 250.553V250.576C82.5667 254.958 83.2378 257.963 84.944 259.98C86.6545 262.001 89.3109 262.919 92.9847 263.372C94.568 263.67 96.4787 263.611 98.2718 263.354C102.868 252.533 113.593 244.944 126.091 244.944C142.776 244.944 156.302 258.47 156.302 275.155C156.302 284.994 151.598 293.735 144.317 299.251C142.97 307.273 148.775 313.811 155.278 312.918C160.443 312.918 164.862 310.005 169.98 306.632C174.952 303.354 180.583 299.643 188.198 297.745L207.567 297.197C220.528 297.192 224.56 293.329 224.567 277.628L228.173 93.5096C228.565 91.8407 229.975 90.2797 231.668 90.4106C234.073 90.5965 236.501 90.2863 238.798 89.4875C241.979 88.381 244.776 86.3837 246.855 83.7332C248.934 81.0827 250.208 77.8907 250.525 74.537C250.842 71.1833 250.189 67.8092 248.643 64.8162C247.097 61.8232 244.724 59.3373 241.806 57.6544C239.186 56.1435 236.226 55.3369 233.213 55.3045ZM151.797 40.7071L112.183 42.0642C107.914 42.2105 104.572 45.79 104.718 50.0592L106.435 100.164C106.581 104.433 110.16 107.775 114.43 107.629L154.043 106.272C158.313 106.126 161.655 102.546 161.509 98.277L159.792 48.1723C159.646 43.9031 156.066 40.5608 151.797 40.7071ZM112.06 38.4569C105.798 38.6714 100.896 43.9212 101.111 50.1828L102.827 100.287C103.042 106.549 108.292 111.451 114.553 111.237L154.167 109.879C160.428 109.665 165.331 104.415 165.116 98.1535L163.399 48.0487C163.185 41.7872 157.935 36.8852 151.674 37.0997L112.06 38.4569ZM126.667 77.4124C135.716 77.4124 143.053 70.0763 143.053 61.0268C143.053 51.9773 135.716 44.6412 126.667 44.6412C117.617 44.6412 110.281 51.9773 110.281 61.0268C110.281 70.0763 117.617 77.4124 126.667 77.4124ZM157.2 87.6603C157.2 93.504 152.463 98.2413 146.619 98.2413C140.776 98.2413 136.038 93.504 136.038 87.6603C136.038 81.8166 140.776 77.0793 146.619 77.0793C152.463 77.0793 157.2 81.8166 157.2 87.6603ZM152.599 67.0062C155.901 67.0062 158.578 64.3292 158.578 61.0268C158.578 57.7245 155.901 55.0474 152.599 55.0474C149.296 55.0474 146.619 57.7245 146.619 61.0268C146.619 64.3292 149.296 67.0062 152.599 67.0062Z" fill="url(#paint7_linear_11_74)"/>
</g>
<mask id="mask0_11_74" style="mask-type:alpha" maskUnits="userSpaceOnUse" x="82" y="3" width="169" height="310">
<path fill-rule="evenodd" clip-rule="evenodd" d="M233.213 55.3045C230.981 67.1379 221.109 76.0551 209.269 76.0551C195.784 76.0551 184.853 64.4888 184.853 50.2211C184.853 39.9924 190.471 31.1521 198.621 26.9667C198.848 25.7544 198.966 24.504 198.966 23.226C198.966 12.0555 189.911 3 178.74 3C167.57 3 158.514 12.0555 158.514 23.226C158.514 27.1944 156.049 29.5397 153.423 30.1146L114.501 30.9631C101.823 31.2395 91.8699 41.9214 92.489 54.588L101.272 234.265L101.07 234.167L100.902 234.2C95.6429 235.226 91.3042 236.541 88.157 238.997C84.9779 241.479 83.0707 245.078 82.5688 250.529L82.5667 250.553V250.576C82.5667 254.958 83.2378 257.963 84.944 259.98C86.6545 262.001 89.3109 262.919 92.9847 263.372C94.568 263.67 96.4787 263.611 98.2718 263.354C102.868 252.533 113.593 244.944 126.091 244.944C142.776 244.944 156.302 258.47 156.302 275.155C156.302 284.994 151.598 293.735 144.317 299.251C142.97 307.273 148.775 313.811 155.278 312.918C160.443 312.918 164.862 310.005 169.98 306.632C174.952 303.354 180.583 299.643 188.198 297.745L207.567 297.197C220.528 297.192 224.56 293.329 224.567 277.628L228.173 93.5096C228.565 91.8407 229.975 90.2797 231.668 90.4106C234.073 90.5965 236.501 90.2863 238.798 89.4875C241.979 88.381 244.776 86.3837 246.855 83.7332C248.934 81.0827 250.208 77.8907 250.525 74.537C250.842 71.1833 250.189 67.8092 248.643 64.8162C247.097 61.8232 244.724 59.3373 241.806 57.6544C239.186 56.1435 236.226 55.3369 233.213 55.3045ZM151.797 40.7071L112.183 42.0642C107.914 42.2105 104.572 45.79 104.718 50.0592L106.435 100.164C106.581 104.433 110.16 107.775 114.43 107.629L154.043 106.272C158.313 106.126 161.655 102.546 161.509 98.277L159.792 48.1723C159.646 43.9031 156.066 40.5608 151.797 40.7071ZM112.06 38.4569C105.798 38.6714 100.896 43.9212 101.111 50.1828L102.827 100.287C103.042 106.549 108.292 111.451 114.553 111.237L154.167 109.879C160.428 109.665 165.331 104.415 165.116 98.1535L163.399 48.0487C163.185 41.7872 157.935 36.8852 151.674 37.0997L112.06 38.4569ZM126.667 77.4124C135.716 77.4124 143.053 70.0763 143.053 61.0268C143.053 51.9773 135.716 44.6412 126.667 44.6412C117.617 44.6412 110.281 51.9773 110.281 61.0268C110.281 70.0763 117.617 77.4124 126.667 77.4124ZM157.2 87.6603C157.2 93.504 152.463 98.2413 146.619 98.2413C140.776 98.2413 136.038 93.504 136.038 87.6603C136.038 81.8166 140.776 77.0793 146.619 77.0793C152.463 77.0793 157.2 81.8166 157.2 87.6603ZM152.599 67.0062C155.901 67.0062 158.578 64.3292 158.578 61.0268C158.578 57.7245 155.901 55.0474 152.599 55.0474C149.296 55.0474 146.619 57.7245 146.619 61.0268C146.619 64.3292 149.296 67.0062 152.599 67.0062Z" fill="black"/>
</mask>
<g mask="url(#mask0_11_74)">
<path d="M152.677 53.1226L135.772 23.3589L199.49 -71.2472L307.421 13.792L190.387 160.485L164.38 268.91L182.585 308.24L152.677 348.634L27.8413 268.91L92.8597 227.453L135.772 160.485L152.677 53.1226Z" fill="url(#paint8_linear_11_74)"/>
</g>
<circle cx="126.569" cy="275.021" r="20.072" transform="rotate(-179.712 126.569 275.021)" fill="url(#paint9_linear_11_74)"/>
<circle cx="209.044" cy="50.5581" r="16.4482" fill="url(#paint10_linear_11_74)"/>
<path d="M132.2 134.128L141.164 133.894C141.58 133.883 141.947 134.025 142.265 134.319C142.582 134.613 142.751 134.968 142.772 135.384L144.588 172.004C144.609 172.42 144.476 172.783 144.188 173.093C143.9 173.403 143.549 173.564 143.132 173.575L132.863 173.843C132.447 173.854 132.08 173.713 131.763 173.418C131.445 173.124 131.276 172.769 131.255 172.353L130.485 156.821L127.044 163.041C126.485 164.002 125.809 164.492 125.015 164.513L121.043 164.617C120.249 164.638 119.526 164.184 118.874 163.255L114.825 157.231L115.596 172.763C115.616 173.179 115.483 173.542 115.195 173.852C114.908 174.162 114.556 174.323 114.14 174.334L103.87 174.603C103.454 174.614 103.087 174.472 102.77 174.177C102.452 173.883 102.283 173.528 102.263 173.112L100.446 136.493C100.425 136.077 100.559 135.714 100.846 135.404C101.134 135.093 101.486 134.933 101.902 134.922L110.866 134.687C111.925 134.659 112.764 135.148 113.382 136.154L122.284 149.543L129.836 135.723C130.353 134.688 131.14 134.156 132.2 134.128ZM152.128 149.76C152.018 147.535 152.83 145.612 154.563 143.991C156.325 142.34 158.9 141.471 162.286 141.382C165.701 141.293 168.34 142.026 170.202 143.582C172.062 145.108 173.047 146.969 173.156 149.165C173.236 150.797 172.833 152.264 171.946 153.565C171.087 154.835 169.72 156.06 167.846 157.238L171.359 160.623C172.064 159.832 172.731 158.596 173.362 156.915C173.466 156.615 173.755 156.459 174.231 156.447L180.958 156.271C181.196 156.264 181.393 156.334 181.548 156.478C181.704 156.622 181.788 156.813 181.8 157.051C181.843 157.911 181.301 159.278 180.174 161.149C179.077 163.021 177.994 164.564 176.924 165.781L182.5 171.162C182.687 171.335 182.786 171.541 182.798 171.778C182.808 171.986 182.728 172.166 182.557 172.319C182.416 172.472 182.242 172.55 182.034 172.556L172.945 172.794C172.588 172.803 172.21 172.665 171.809 172.378L170.553 171.341C168.426 172.823 165.58 173.611 162.015 173.704C158.451 173.797 155.544 173.056 153.295 171.481C151.044 169.876 149.842 167.53 149.689 164.444C149.517 160.972 151.308 158.102 155.062 155.834C153.217 154.011 152.239 151.986 152.128 149.76ZM159.371 163.566C159.412 164.397 159.712 165.043 160.27 165.504C160.858 165.964 161.612 166.182 162.533 166.158C163.454 166.134 164.203 165.936 164.779 165.564L160.657 161.616C159.759 162.085 159.33 162.735 159.371 163.566ZM164.619 149.745C164.595 149.27 164.413 148.889 164.071 148.601C163.76 148.312 163.366 148.173 162.891 148.186C162.445 148.197 162.067 148.371 161.757 148.706C161.445 149.011 161.303 149.461 161.333 150.054C161.361 150.618 161.794 151.26 162.633 151.981C163.998 151.321 164.66 150.576 164.619 149.745ZM201.158 147.421L201.63 156.944C201.782 160.006 203.257 161.499 206.056 161.426C208.212 161.37 209.58 160.312 210.16 158.254C210.317 157.606 210.522 157.166 210.776 156.932C211.067 156.697 211.534 156.572 212.177 156.555L223.752 156.252C224.092 156.243 224.382 156.368 224.623 156.626C224.899 156.846 225.045 157.126 225.062 157.466C225.225 160.754 224.416 163.537 222.636 165.817C219.362 170.065 214.037 172.285 206.661 172.479C200.874 172.63 196.197 171.485 192.629 169.043C189.06 166.563 187.144 162.678 186.881 157.387L186.403 147.751C186.146 142.573 187.712 138.635 191.1 135.935C194.489 133.235 199.001 131.812 204.637 131.664C212.012 131.471 217.543 133.407 221.23 137.473C223.231 139.653 224.314 142.387 224.477 145.675C224.494 146.015 224.376 146.321 224.125 146.593C223.909 146.825 223.631 146.946 223.291 146.955L211.716 147.258C211.111 147.274 210.652 147.172 210.338 146.954C210.062 146.734 209.794 146.306 209.535 145.669C208.716 143.647 207.246 142.664 205.128 142.719C202.329 142.793 201.006 144.36 201.158 147.421Z" fill="#FED238"/>
</g>
<defs>
<filter id="filter0_d_11_74" x="49.612" y="3.21631" width="219.968" height="319.39" filterUnits="userSpaceOnUse" color-interpolation-filters="sRGB">
<feFlood flood-opacity="0" result="BackgroundImageFix"/>
<feColorMatrix in="SourceAlpha" type="matrix" values="0 0 0 0 0 0 0 0 0 0 0 0 0 0 0 0 0 0 127 0" result="hardAlpha"/>
<feOffset dy="4.08021"/>
<feGaussianBlur stdDeviation="2.04011"/>
<feComposite in2="hardAlpha" operator="out"/>
<feColorMatrix type="matrix" values="0 0 0 0 0 0 0 0 0 0 0 0 0 0 0 0 0 0 0.25 0"/>
<feBlend mode="normal" in2="BackgroundImageFix" result="effect1_dropShadow_11_74"/>
<feBlend mode="normal" in="SourceGraphic" in2="effect1_dropShadow_11_74" result="shape"/>
</filter>
<filter id="filter1_d_11_74" x="81.645" y="3" width="169.88" height="315.018" filterUnits="userSpaceOnUse" color-interpolation-filters="sRGB">
<feFlood flood-opacity="0" result="BackgroundImageFix"/>
<feColorMatrix in="SourceAlpha" type="matrix" values="0 0 0 0 0 0 0 0 0 0 0 0 0 0 0 0 0 0 127 0" result="hardAlpha"/>
<feOffset dy="4.0964"/>
<feGaussianBlur stdDeviation="0.460845"/>
<feComposite in2="hardAlpha" operator="out"/>
<feColorMatrix type="matrix" values="0 0 0 0 0 0 0 0 0 0 0 0 0 0 0 0 0 0 0.25 0"/>
<feBlend mode="normal" in2="BackgroundImageFix" result="effect1_dropShadow_11_74"/>
<feBlend mode="normal" in="SourceGraphic" in2="effect1_dropShadow_11_74" result="shape"/>
</filter>
<linearGradient id="paint0_linear_11_74" x1="164.5" y1="-7" x2="160" y2="320" gradientUnits="userSpaceOnUse">
<stop offset="0.02" stop-color="#666666"/>
<stop offset="1"/>
</linearGradient>
<linearGradient id="paint1_linear_11_74" x1="64.2191" y1="307.678" x2="64.1886" y2="296.075" gradientUnits="userSpaceOnUse">
<stop stop-color="#FED238"/>
<stop offset="1" stop-color="#666666"/>
</linearGradient>
<linearGradient id="paint2_linear_11_74" x1="96.8232" y1="303.199" x2="96.7932" y2="291.784" gradientUnits="userSpaceOnUse">
<stop stop-color="#FED238"/>
<stop offset="1" stop-color="#666666"/>
</linearGradient>
<linearGradient id="paint3_linear_11_74" x1="83.349" y1="284.385" x2="83.3195" y2="273.191" gradientUnits="userSpaceOnUse">
<stop stop-color="#FED238"/>
<stop offset="1" stop-color="#666666"/>
</linearGradient>
<linearGradient id="paint4_linear_11_74" x1="257.284" y1="14.8736" x2="257.256" y2="4.25345" gradientUnits="userSpaceOnUse">
<stop stop-color="#FED238"/>
<stop offset="1" stop-color="#666666"/>
</linearGradient>
<linearGradient id="paint5_linear_11_74" x1="229.793" y1="28.462" x2="229.754" y2="13.5938" gradientUnits="userSpaceOnUse">
<stop stop-color="#FED238"/>
<stop offset="1" stop-color="#666666"/>
</linearGradient>
<linearGradient id="paint6_linear_11_74" x1="255.219" y1="46.3576" x2="255.197" y2="38.0132" gradientUnits="userSpaceOnUse">
<stop stop-color="#FED238"/>
<stop offset="1" stop-color="#666666"/>
</linearGradient>
<linearGradient id="paint7_linear_11_74" x1="166.585" y1="3" x2="166.585" y2="313" gradientUnits="userSpaceOnUse">
<stop offset="0.15" stop-color="#666666"/>
<stop offset="0.615"/>
</linearGradient>
<linearGradient id="paint8_linear_11_74" x1="167.631" y1="-71.2472" x2="167.631" y2="348.634" gradientUnits="userSpaceOnUse">
<stop offset="0.329268" stop-color="#FED238"/>
<stop offset="0.466197" stop-color="#AF9B53"/>
<stop offset="0.555" stop-color="#6A6A6A"/>
<stop offset="0.72" stop-color="#FED238"/>
<stop offset="0.93"/>
</linearGradient>
<linearGradient id="paint9_linear_11_74" x1="128.163" y1="281.164" x2="128.101" y2="257.281" gradientUnits="userSpaceOnUse">
<stop stop-color="#FED238"/>
<stop offset="1" stop-color="#666666"/>
</linearGradient>
<linearGradient id="paint10_linear_11_74" x1="210.351" y1="55.5924" x2="210.3" y2="36.0212" gradientUnits="userSpaceOnUse">
<stop stop-color="#FED238"/>
<stop offset="1" stop-color="#666666"/>
</linearGradient>
<clipPath id="clip0_11_74">
<rect width="320" height="320" fill="white"/>
</clipPath>
</defs>
</svg>
