<svg width="130" height="170" viewBox="0 0 130 170" fill="none" xmlns="http://www.w3.org/2000/svg">
<path d="M59.0181 82.4682V165.468L61.5671 167.037C64.0106 168.54 67.0721 168.621 69.5907 167.247L71.0181 166.468V82.4682H65.0181H59.0181Z" fill="#D9D9D9"/>
<mask id="mask0_16_71" style="mask-type:alpha" maskUnits="userSpaceOnUse" x="59" y="82" width="13" height="87">
<path d="M59.0181 82.4682V165.468L61.5671 167.037C64.0106 168.54 67.0721 168.621 69.5907 167.247L71.0181 166.468V82.4682H65.0181H59.0181Z" fill="#D9D9D9"/>
</mask>
<g mask="url(#mask0_16_71)">
<rect x="56.0181" y="91.4682" width="9" height="78" fill="#897C7C"/>
</g>
<path d="M23.0181 61.4682V144.468L25.5671 146.037C28.0106 147.54 31.0721 147.621 33.5907 146.247L35.0181 145.468V61.4682H29.0181H23.0181Z" fill="#D9D9D9"/>
<mask id="mask1_16_71" style="mask-type:alpha" maskUnits="userSpaceOnUse" x="23" y="61" width="13" height="87">
<path d="M23.0181 61.4682V144.468L25.5671 146.037C28.0106 147.54 31.0721 147.621 33.5907 146.247L35.0181 145.468V61.4682H29.0181H23.0181Z" fill="#D9D9D9"/>
</mask>
<g mask="url(#mask1_16_71)">
<rect x="20.0181" y="70.4682" width="9" height="78" fill="#897C7C"/>
</g>
<path d="M95.0181 61.4682V144.468L97.5671 146.037C100.011 147.54 103.072 147.621 105.591 146.247L107.018 145.468V61.4682H101.018H95.0181Z" fill="#D9D9D9"/>
<mask id="mask2_16_71" style="mask-type:alpha" maskUnits="userSpaceOnUse" x="95" y="61" width="13" height="87">
<path d="M95.0181 61.4682V144.468L97.5671 146.037C100.011 147.54 103.072 147.621 105.591 146.247L107.018 145.468V61.4682H101.018H95.0181Z" fill="#D9D9D9"/>
</mask>
<g mask="url(#mask2_16_71)">
<rect x="92.0181" y="70.4682" width="9" height="78" fill="#897C7C"/>
</g>
<path d="M33.865 44.8902C53.5733 33.5028 77.91 33.7119 97.4197 45.4364V45.4364V45.4364C111.842 54.1034 111.741 75.1035 97.4197 83.9364V83.9364V83.9364C77.9815 95.9252 53.4962 96.1382 33.8523 84.4894L32.9197 83.9364V83.9364C18.3014 75.2676 18.2041 53.939 32.9197 45.4364V45.4364L33.865 44.8902Z" fill="#CBCBCB"/>
<path d="M33.8469 37.422C53.5552 26.0346 77.8919 26.2437 97.4016 37.9682V37.9682V37.9682C111.824 46.6352 111.723 67.6353 97.4016 76.4682V76.4682V76.4682C77.9634 88.457 53.4781 88.6701 33.8342 77.0212L32.9016 76.4682V76.4682C18.2833 67.7995 18.186 46.4708 32.9016 37.9682V37.9682L33.8469 37.422Z" fill="#F47E50"/>
</svg>
