<svg width="550" height="551" viewBox="0 0 550 551" fill="none" xmlns="http://www.w3.org/2000/svg">
<path d="M275 550.938C310.899 550.938 340 521.836 340 485.938C340 462.267 327.348 441.552 308.438 430.186C305.424 428.786 302.459 427.3 299.545 425.731C291.971 422.641 283.685 420.938 275 420.938C266.315 420.938 258.029 422.641 250.455 425.731C247.541 427.3 244.576 428.786 241.562 430.186C219.811 440.295 195.565 445.938 170 445.938C150.501 445.938 131.769 442.655 114.326 436.612C47.7804 413.557 0 350.327 0 275.938C0 427.816 123.122 550.938 275 550.938Z" fill="#8C756A"/>
<path d="M550 275.938C550 240.039 520.899 210.938 485 210.938C461.33 210.938 440.615 223.59 429.249 242.5C427.848 245.513 426.362 248.479 424.794 251.393C421.703 258.966 420 267.253 420 275.938C420 284.622 421.703 292.909 424.794 300.482C426.362 303.396 427.848 306.362 429.249 309.375C439.357 331.126 445 355.373 445 380.938C445 400.436 441.717 419.169 435.674 436.612C412.619 503.157 349.389 550.938 275 550.938C426.878 550.938 550 427.816 550 275.938Z" fill="#F36C20"/>
<path d="M275 0.9375C239.101 0.9375 210 30.039 210 65.9375C210 89.6076 222.652 110.323 241.562 121.689C244.576 123.089 247.541 124.575 250.455 126.144C258.029 129.234 266.315 130.938 275 130.938C283.685 130.938 291.971 129.234 299.545 126.144C302.459 124.575 305.424 123.089 308.438 121.689C330.189 111.58 354.435 105.938 380 105.938C399.499 105.938 418.231 109.22 435.674 115.263C502.22 138.318 550 201.548 550 275.938C550 124.059 426.878 0.9375 275 0.9375Z" fill="#B32626"/>
<path d="M0 275.938C0 311.836 29.1015 340.938 65 340.938C88.6701 340.938 109.385 328.285 120.751 309.375C122.152 306.362 123.638 303.397 125.206 300.482C128.297 292.909 130 284.622 130 275.938C130 267.253 128.297 258.966 125.206 251.393C123.638 248.479 122.152 245.513 120.751 242.5C110.643 220.749 105 196.502 105 170.938C105 151.439 108.283 132.706 114.326 115.263C137.381 48.7179 200.611 0.9375 275 0.9375C123.122 0.9375 0 124.059 0 275.938Z" fill="#0C334F"/>
</svg>
