<svg width="435" height="356" viewBox="0 0 435 356" fill="none" xmlns="http://www.w3.org/2000/svg">
<circle cx="254.5" cy="152.5" r="137.5" fill="black" stroke="url(#paint0_linear_13_4)" stroke-width="30"/>
<path d="M24 224C-17 229.608 7.99998 229.608 7.99998 229.608C7.99998 229.608 43.2428 236.48 66 235.641C82.8129 235.021 108.657 229.608 108.657 229.608L165 246L202 235.641L220 178.502L202 124.522L165 116.79C154.862 93.5184 74.1045 98.9196 52 124.522C37.8438 140.918 7.48243 162.152 30 151C52.5175 139.848 86.8084 132.205 92.4501 145.264C98.0919 158.323 74.7316 168.729 66 178.502C49.4305 197.049 -17.1842 158.696 17.4079 185.686C32.5807 197.525 43.0104 199.305 52 199.02C47.3432 207.096 36.0326 222.354 24 224Z" fill="url(#paint1_linear_13_4)"/>
<path d="M136.585 80.5624C155.029 86.6221 197.967 87.0617 214 96C231.644 105.836 247.728 118.564 246 154.761C244.633 183.399 229.575 226.315 229.575 226.315C229.575 226.315 251.38 248.601 285.039 218.068C318.697 187.535 331.377 161.454 331.377 90.6258C331.377 90.6258 360.268 128.317 356.694 154.761C351.517 193.069 338.828 215.638 308.61 240.061C275.151 267.103 200.457 262.74 200.457 262.74L148.536 249.571L106.342 226.315L131.822 236.186C131.822 236.186 153.861 239.926 165.414 236.186C178.684 231.889 183.707 228.882 192.418 218.068C199.486 209.294 205.357 202.573 207.608 191.57C209.879 180.47 210.044 173.634 207.608 162.569C205.301 152.091 203.142 145.826 196.356 137.473C189.244 128.717 182.797 124.754 172.728 120.742C163.728 117.156 148.536 115.165 148.536 115.165C74.9636 137.473 59.3492 90.6258 35.9275 86.1641C35.3433 86.0529 34.8111 85.9536 34.3298 85.8656C29.8109 85.245 29.3665 84.9578 34.3298 85.8656C44.7429 87.2955 76.791 90.495 114.162 84.9205C111.373 81.9171 104.428 74.0374 102.01 67.5562C99.4742 60.7596 102.01 49 102.01 49C102.01 49 117.509 70.4856 131.822 78.5525C133.128 79.2887 134.733 79.9539 136.585 80.5624Z" fill="url(#paint2_linear_13_4)"/>
<path d="M84.9 348C84.6227 348 84.388 347.915 84.196 347.744C84.0253 347.552 83.94 347.317 83.94 347.04V323.008H85.86V347.04C85.86 347.317 85.764 347.552 85.572 347.744C85.4013 347.915 85.1773 348 84.9 348ZM75.844 324.736C75.588 324.736 75.3747 324.661 75.204 324.512C75.0547 324.341 74.98 324.128 74.98 323.872C74.98 323.616 75.0547 323.413 75.204 323.264C75.3747 323.093 75.588 323.008 75.844 323.008H93.956C94.212 323.008 94.4147 323.093 94.564 323.264C94.7347 323.413 94.82 323.616 94.82 323.872C94.82 324.128 94.7347 324.341 94.564 324.512C94.4147 324.661 94.212 324.736 93.956 324.736H75.844ZM114.244 348.16C112.559 348.16 111.055 347.787 109.732 347.04C108.431 346.272 107.407 345.216 106.66 343.872C105.913 342.528 105.54 340.992 105.54 339.264C105.54 337.515 105.892 335.979 106.596 334.656C107.3 333.312 108.271 332.256 109.508 331.488C110.745 330.72 112.164 330.336 113.764 330.336C115.343 330.336 116.74 330.709 117.956 331.456C119.172 332.181 120.121 333.195 120.804 334.496C121.487 335.776 121.828 337.259 121.828 338.944C121.828 339.221 121.743 339.445 121.572 339.616C121.401 339.765 121.177 339.84 120.9 339.84H106.82V338.176H121.412L120.004 339.232C120.047 337.845 119.812 336.619 119.3 335.552C118.788 334.485 118.052 333.653 117.092 333.056C116.153 332.437 115.044 332.128 113.764 332.128C112.548 332.128 111.46 332.437 110.5 333.056C109.561 333.653 108.815 334.485 108.26 335.552C107.727 336.619 107.46 337.856 107.46 339.264C107.46 340.651 107.748 341.877 108.324 342.944C108.9 344.011 109.7 344.853 110.724 345.472C111.748 346.069 112.921 346.368 114.244 346.368C115.076 346.368 115.908 346.229 116.74 345.952C117.593 345.653 118.265 345.269 118.756 344.8C118.927 344.629 119.129 344.544 119.364 344.544C119.62 344.523 119.833 344.587 120.004 344.736C120.239 344.928 120.356 345.141 120.356 345.376C120.377 345.611 120.281 345.824 120.068 346.016C119.385 346.635 118.489 347.147 117.38 347.552C116.292 347.957 115.247 348.16 114.244 348.16ZM146.239 348.192C144.575 348.192 143.082 347.797 141.759 347.008C140.458 346.219 139.423 345.152 138.655 343.808C137.908 342.464 137.535 340.949 137.535 339.264C137.535 337.557 137.887 336.032 138.591 334.688C139.295 333.344 140.266 332.288 141.503 331.52C142.74 330.731 144.159 330.336 145.759 330.336C147.124 330.336 148.372 330.603 149.503 331.136C150.634 331.648 151.615 332.437 152.447 333.504C152.618 333.717 152.682 333.941 152.639 334.176C152.596 334.411 152.458 334.603 152.223 334.752C152.031 334.901 151.818 334.965 151.583 334.944C151.348 334.901 151.146 334.773 150.975 334.56C149.61 332.939 147.871 332.128 145.759 332.128C144.5 332.128 143.391 332.437 142.431 333.056C141.492 333.675 140.756 334.517 140.223 335.584C139.711 336.651 139.455 337.877 139.455 339.264C139.455 340.608 139.743 341.824 140.319 342.912C140.895 343.979 141.684 344.832 142.687 345.472C143.711 346.091 144.895 346.4 146.239 346.4C147.114 346.4 147.935 346.272 148.703 346.016C149.492 345.76 150.175 345.365 150.751 344.832C150.943 344.661 151.156 344.565 151.391 344.544C151.626 344.523 151.828 344.597 151.999 344.768C152.212 344.96 152.319 345.184 152.319 345.44C152.34 345.675 152.255 345.877 152.063 346.048C150.506 347.477 148.564 348.192 146.239 348.192ZM171.544 340.32C171.266 340.32 171.032 340.235 170.84 340.064C170.669 339.872 170.584 339.637 170.584 339.36V323.968C170.584 323.669 170.669 323.435 170.84 323.264C171.032 323.093 171.266 323.008 171.544 323.008C171.842 323.008 172.077 323.093 172.248 323.264C172.418 323.435 172.504 323.669 172.504 323.968V339.36C172.504 339.637 172.418 339.872 172.248 340.064C172.077 340.235 171.842 340.32 171.544 340.32ZM185.72 348C185.442 348 185.208 347.915 185.016 347.744C184.845 347.552 184.76 347.317 184.76 347.04V338.432C184.76 337.024 184.482 335.861 183.928 334.944C183.394 334.027 182.658 333.344 181.72 332.896C180.802 332.427 179.757 332.192 178.584 332.192C177.432 332.192 176.397 332.416 175.48 332.864C174.562 333.291 173.837 333.888 173.304 334.656C172.77 335.424 172.504 336.288 172.504 337.248H170.904C170.989 335.925 171.384 334.741 172.088 333.696C172.792 332.629 173.709 331.797 174.84 331.2C175.97 330.581 177.218 330.272 178.584 330.272C180.12 330.272 181.496 330.592 182.712 331.232C183.949 331.851 184.92 332.768 185.624 333.984C186.328 335.179 186.68 336.661 186.68 338.432V347.04C186.68 347.317 186.584 347.552 186.392 347.744C186.221 347.915 185.997 348 185.72 348ZM171.544 348C171.266 348 171.032 347.915 170.84 347.744C170.669 347.552 170.584 347.317 170.584 347.04V331.456C170.584 331.157 170.669 330.923 170.84 330.752C171.032 330.581 171.266 330.496 171.544 330.496C171.842 330.496 172.077 330.581 172.248 330.752C172.418 330.923 172.504 331.157 172.504 331.456V347.04C172.504 347.317 172.418 347.552 172.248 347.744C172.077 347.915 171.842 348 171.544 348ZM220.371 348C220.094 348 219.859 347.915 219.667 347.744C219.496 347.552 219.411 347.317 219.411 347.04V338.432C219.411 337.024 219.134 335.861 218.579 334.944C218.046 334.027 217.31 333.344 216.371 332.896C215.454 332.427 214.408 332.192 213.235 332.192C212.083 332.192 211.048 332.416 210.131 332.864C209.214 333.291 208.488 333.888 207.955 334.656C207.422 335.424 207.155 336.288 207.155 337.248H205.555C205.64 335.925 206.035 334.741 206.739 333.696C207.443 332.629 208.36 331.797 209.491 331.2C210.622 330.581 211.87 330.272 213.235 330.272C214.771 330.272 216.147 330.592 217.363 331.232C218.6 331.851 219.571 332.768 220.275 333.984C220.979 335.179 221.331 336.661 221.331 338.432V347.04C221.331 347.317 221.235 347.552 221.043 347.744C220.872 347.915 220.648 348 220.371 348ZM206.195 348C205.918 348 205.683 347.915 205.491 347.744C205.32 347.552 205.235 347.317 205.235 347.04V331.456C205.235 331.157 205.32 330.923 205.491 330.752C205.683 330.581 205.918 330.496 206.195 330.496C206.494 330.496 206.728 330.581 206.899 330.752C207.07 330.923 207.155 331.157 207.155 331.456V347.04C207.155 347.317 207.07 347.552 206.899 347.744C206.728 347.915 206.494 348 206.195 348ZM247.886 348.192C246.18 348.192 244.644 347.808 243.278 347.04C241.934 346.251 240.868 345.184 240.078 343.84C239.31 342.475 238.926 340.949 238.926 339.264C238.926 337.557 239.31 336.032 240.078 334.688C240.868 333.323 241.934 332.256 243.278 331.488C244.644 330.699 246.18 330.304 247.886 330.304C249.593 330.304 251.118 330.699 252.462 331.488C253.806 332.256 254.862 333.323 255.63 334.688C256.42 336.032 256.814 337.557 256.814 339.264C256.814 340.949 256.42 342.475 255.63 343.84C254.862 345.184 253.806 346.251 252.462 347.04C251.118 347.808 249.593 348.192 247.886 348.192ZM247.886 346.4C249.23 346.4 250.425 346.091 251.47 345.472C252.537 344.832 253.369 343.979 253.966 342.912C254.585 341.824 254.894 340.597 254.894 339.232C254.894 337.888 254.585 336.683 253.966 335.616C253.369 334.528 252.537 333.675 251.47 333.056C250.425 332.416 249.23 332.096 247.886 332.096C246.564 332.096 245.369 332.416 244.302 333.056C243.236 333.675 242.393 334.528 241.774 335.616C241.156 336.683 240.846 337.899 240.846 339.264C240.846 340.608 241.156 341.824 241.774 342.912C242.393 343.979 243.236 344.832 244.302 345.472C245.369 346.091 246.564 346.4 247.886 346.4ZM278.245 348C277.434 348 276.709 347.776 276.069 347.328C275.45 346.88 274.96 346.261 274.597 345.472C274.256 344.683 274.085 343.765 274.085 342.72V323.968C274.085 323.669 274.17 323.435 274.341 323.264C274.533 323.093 274.768 323.008 275.045 323.008C275.344 323.008 275.578 323.093 275.749 323.264C275.92 323.435 276.005 323.669 276.005 323.968V342.72C276.005 343.701 276.208 344.512 276.613 345.152C277.04 345.771 277.584 346.08 278.245 346.08H279.045C279.28 346.08 279.472 346.165 279.621 346.336C279.77 346.507 279.845 346.741 279.845 347.04C279.845 347.317 279.76 347.552 279.589 347.744C279.418 347.915 279.184 348 278.885 348H278.245ZM303.501 348.192C301.795 348.192 300.259 347.808 298.893 347.04C297.549 346.251 296.483 345.184 295.693 343.84C294.925 342.475 294.541 340.949 294.541 339.264C294.541 337.557 294.925 336.032 295.693 334.688C296.483 333.323 297.549 332.256 298.893 331.488C300.259 330.699 301.795 330.304 303.501 330.304C305.208 330.304 306.733 330.699 308.077 331.488C309.421 332.256 310.477 333.323 311.245 334.688C312.035 336.032 312.429 337.557 312.429 339.264C312.429 340.949 312.035 342.475 311.245 343.84C310.477 345.184 309.421 346.251 308.077 347.04C306.733 347.808 305.208 348.192 303.501 348.192ZM303.501 346.4C304.845 346.4 306.04 346.091 307.085 345.472C308.152 344.832 308.984 343.979 309.581 342.912C310.2 341.824 310.509 340.597 310.509 339.232C310.509 337.888 310.2 336.683 309.581 335.616C308.984 334.528 308.152 333.675 307.085 333.056C306.04 332.416 304.845 332.096 303.501 332.096C302.179 332.096 300.984 332.416 299.917 333.056C298.851 333.675 298.008 334.528 297.389 335.616C296.771 336.683 296.461 337.899 296.461 339.264C296.461 340.608 296.771 341.824 297.389 342.912C298.008 343.979 298.851 344.832 299.917 345.472C300.984 346.091 302.179 346.4 303.501 346.4ZM338.34 348.192C336.591 348.192 335.044 347.808 333.7 347.04C332.356 346.272 331.3 345.216 330.532 343.872C329.764 342.528 329.38 340.992 329.38 339.264C329.38 337.515 329.775 335.968 330.564 334.624C331.353 333.28 332.42 332.224 333.764 331.456C335.129 330.688 336.655 330.304 338.34 330.304C340.089 330.304 341.625 330.688 342.948 331.456C344.292 332.224 345.348 333.28 346.116 334.624C346.884 335.968 347.268 337.515 347.268 339.264L346.148 340.544C346.148 342.037 345.817 343.36 345.156 344.512C344.495 345.664 343.577 346.571 342.404 347.232C341.231 347.872 339.876 348.192 338.34 348.192ZM338.468 354.688C336.697 354.688 335.183 354.357 333.924 353.696C332.687 353.035 331.663 352.192 330.852 351.168C330.681 350.955 330.596 350.731 330.596 350.496C330.596 350.261 330.703 350.069 330.916 349.92C331.129 349.749 331.375 349.685 331.652 349.728C331.951 349.771 332.175 349.909 332.324 350.144C332.985 350.933 333.828 351.584 334.852 352.096C335.876 352.629 337.081 352.896 338.468 352.896C339.791 352.896 340.964 352.576 341.988 351.936C343.033 351.296 343.855 350.411 344.452 349.28C345.049 348.171 345.348 346.923 345.348 345.536V340.448L346.212 339.264H347.268V345.536C347.268 347.264 346.884 348.821 346.116 350.208C345.348 351.595 344.303 352.683 342.98 353.472C341.657 354.283 340.153 354.688 338.468 354.688ZM338.34 346.4C339.705 346.4 340.911 346.101 341.956 345.504C343.023 344.885 343.855 344.043 344.452 342.976C345.049 341.888 345.348 340.651 345.348 339.264C345.348 337.856 345.049 336.619 344.452 335.552C343.855 334.464 343.023 333.621 341.956 333.024C340.911 332.405 339.705 332.096 338.34 332.096C336.975 332.096 335.759 332.405 334.692 333.024C333.625 333.621 332.793 334.464 332.196 335.552C331.599 336.619 331.3 337.856 331.3 339.264C331.3 340.651 331.599 341.888 332.196 342.976C332.793 344.043 333.625 344.885 334.692 345.504C335.759 346.101 336.975 346.4 338.34 346.4ZM366.779 348C366.501 348 366.267 347.915 366.075 347.744C365.904 347.552 365.819 347.317 365.819 347.04V331.456C365.819 331.157 365.904 330.923 366.075 330.752C366.267 330.581 366.501 330.496 366.779 330.496C367.077 330.496 367.312 330.581 367.483 330.752C367.653 330.923 367.739 331.157 367.739 331.456V347.04C367.739 347.317 367.653 347.552 367.483 347.744C367.312 347.915 367.077 348 366.779 348ZM366.747 326.816C366.341 326.816 365.989 326.677 365.691 326.4C365.413 326.101 365.275 325.739 365.275 325.312C365.275 324.821 365.424 324.459 365.723 324.224C366.043 323.968 366.395 323.84 366.779 323.84C367.141 323.84 367.472 323.968 367.771 324.224C368.091 324.459 368.251 324.821 368.251 325.312C368.251 325.739 368.101 326.101 367.803 326.4C367.525 326.677 367.173 326.816 366.747 326.816ZM395.012 348.16C393.326 348.16 391.822 347.787 390.5 347.04C389.198 346.272 388.174 345.216 387.428 343.872C386.681 342.528 386.308 340.992 386.308 339.264C386.308 337.515 386.66 335.979 387.364 334.656C388.068 333.312 389.038 332.256 390.276 331.488C391.513 330.72 392.932 330.336 394.532 330.336C396.11 330.336 397.508 330.709 398.724 331.456C399.94 332.181 400.889 333.195 401.572 334.496C402.254 335.776 402.596 337.259 402.596 338.944C402.596 339.221 402.51 339.445 402.34 339.616C402.169 339.765 401.945 339.84 401.668 339.84H387.588V338.176H402.18L400.772 339.232C400.814 337.845 400.58 336.619 400.068 335.552C399.556 334.485 398.82 333.653 397.86 333.056C396.921 332.437 395.812 332.128 394.532 332.128C393.316 332.128 392.228 332.437 391.268 333.056C390.329 333.653 389.582 334.485 389.028 335.552C388.494 336.619 388.228 337.856 388.228 339.264C388.228 340.651 388.516 341.877 389.092 342.944C389.668 344.011 390.468 344.853 391.492 345.472C392.516 346.069 393.689 346.368 395.012 346.368C395.844 346.368 396.676 346.229 397.508 345.952C398.361 345.653 399.033 345.269 399.524 344.8C399.694 344.629 399.897 344.544 400.132 344.544C400.388 344.523 400.601 344.587 400.772 344.736C401.006 344.928 401.124 345.141 401.124 345.376C401.145 345.611 401.049 345.824 400.836 346.016C400.153 346.635 399.257 347.147 398.148 347.552C397.06 347.957 396.014 348.16 395.012 348.16ZM425.84 348.192C424.73 348.192 423.568 347.989 422.352 347.584C421.136 347.179 420.122 346.496 419.312 345.536C419.141 345.323 419.066 345.099 419.088 344.864C419.13 344.608 419.269 344.395 419.504 344.224C419.717 344.075 419.941 344.021 420.176 344.064C420.432 344.107 420.634 344.224 420.784 344.416C421.402 345.141 422.149 345.653 423.024 345.952C423.92 346.229 424.89 346.368 425.936 346.368C427.728 346.368 428.997 346.048 429.744 345.408C430.49 344.768 430.864 344.021 430.864 343.168C430.864 342.336 430.458 341.653 429.648 341.12C428.858 340.565 427.632 340.171 425.968 339.936C423.834 339.637 422.256 339.061 421.232 338.208C420.208 337.355 419.696 336.363 419.696 335.232C419.696 334.165 419.962 333.269 420.496 332.544C421.029 331.797 421.754 331.243 422.672 330.88C423.61 330.496 424.677 330.304 425.872 330.304C427.322 330.304 428.549 330.571 429.552 331.104C430.554 331.616 431.365 332.309 431.984 333.184C432.154 333.397 432.208 333.632 432.144 333.888C432.101 334.123 431.941 334.315 431.664 334.464C431.45 334.571 431.226 334.603 430.992 334.56C430.757 334.517 430.554 334.389 430.384 334.176C429.85 333.493 429.2 332.981 428.432 332.64C427.685 332.277 426.81 332.096 425.808 332.096C424.464 332.096 423.418 332.384 422.672 332.96C421.925 333.536 421.552 334.229 421.552 335.04C421.552 335.595 421.701 336.085 422 336.512C422.32 336.917 422.832 337.269 423.536 337.568C424.24 337.845 425.178 338.069 426.352 338.24C427.952 338.453 429.21 338.816 430.128 339.328C431.066 339.84 431.728 340.437 432.112 341.12C432.517 341.781 432.72 342.496 432.72 343.264C432.72 344.267 432.4 345.141 431.76 345.888C431.12 346.635 430.277 347.211 429.232 347.616C428.186 348 427.056 348.192 425.84 348.192Z" fill="white"/>
<defs>
<linearGradient id="paint0_linear_13_4" x1="254.5" y1="0" x2="254.5" y2="305" gradientUnits="userSpaceOnUse">
<stop stop-color="#F38800"/>
<stop offset="0.286458" stop-color="#FF5C00" stop-opacity="0.7"/>
<stop offset="0.515625" stop-color="#F38800" stop-opacity="0.484375"/>
<stop offset="1" stop-color="#C09600"/>
</linearGradient>
<linearGradient id="paint1_linear_13_4" x1="28" y1="134" x2="210" y2="209" gradientUnits="userSpaceOnUse">
<stop stop-color="#FFB800"/>
<stop offset="0.34375" stop-color="#D76700"/>
<stop offset="0.902991"/>
</linearGradient>
<linearGradient id="paint2_linear_13_4" x1="207.199" y1="49" x2="207.199" y2="266.859" gradientUnits="userSpaceOnUse">
<stop stop-color="#FF5C00"/>
<stop offset="0.2" stop-color="#FFA600"/>
<stop offset="0.4" stop-color="#FFCD00"/>
<stop offset="0.6" stop-color="#B4490D"/>
<stop offset="0.8" stop-color="#FFCD00"/>
<stop offset="1" stop-color="#F07D13"/>
</linearGradient>
</defs>
</svg>
