<svg width="586" height="586" viewBox="0 0 586 586" fill="none" xmlns="http://www.w3.org/2000/svg">
<path d="M138.751 259.5C128.643 237.749 123 213.502 123 187.938C123 168.439 126.283 149.706 132.326 132.263C155.381 65.7179 218.611 17.9375 293 17.9375C257.101 17.9375 228 47.039 228 82.9375C228 106.608 240.652 127.323 259.562 138.689M138.751 259.5C140.152 262.513 141.638 265.479 143.206 268.393M138.751 259.5C140.453 262.331 141.945 265.303 143.206 268.393M143.206 317.482C146.297 309.909 148 301.622 148 292.938C148 284.253 146.297 275.966 143.206 268.393M143.206 317.482C141.638 320.397 140.152 323.362 138.751 326.375M143.206 317.482C141.945 320.572 140.453 323.544 138.751 326.375M138.751 326.375C127.385 345.285 106.67 357.938 83 357.938C47.1015 357.938 18 328.836 18 292.938C18 367.327 65.7804 430.557 132.326 453.612C149.769 459.655 168.501 462.938 188 462.938C213.565 462.938 237.811 457.295 259.562 447.186M326.438 138.689C348.189 128.58 372.435 122.938 398 122.938C417.499 122.938 436.231 126.22 453.674 132.263C520.22 155.318 568 218.548 568 292.938C568 257.039 538.899 227.938 503 227.938C479.33 227.938 458.615 240.59 447.249 259.5M326.438 138.689C323.424 140.089 320.459 141.575 317.545 143.144M326.438 138.689C323.606 140.39 320.635 141.883 317.545 143.144M268.455 143.144C276.029 146.234 284.315 147.938 293 147.938C301.685 147.938 309.971 146.234 317.545 143.144M268.455 143.144C265.541 141.575 262.576 140.089 259.562 138.689M268.455 143.144C265.365 141.883 262.394 140.39 259.562 138.689M447.249 259.5C445.848 262.513 444.362 265.479 442.794 268.393M447.249 259.5C445.547 262.331 444.055 265.303 442.794 268.393M442.794 268.393C439.703 275.966 438 284.253 438 292.938C438 301.622 439.703 309.909 442.794 317.482M442.794 317.482C444.362 320.396 445.848 323.362 447.249 326.375M442.794 317.482C444.055 320.572 445.547 323.544 447.249 326.375M447.249 326.375C457.357 348.126 463 372.373 463 397.938C463 417.436 459.717 436.169 453.674 453.612C430.619 520.157 367.389 567.938 293 567.938C328.899 567.938 358 538.836 358 502.938C358 479.267 345.348 458.552 326.438 447.186M326.438 447.186C323.424 445.786 320.459 444.3 317.545 442.731M326.438 447.186C323.606 445.485 320.635 443.992 317.545 442.731M317.545 442.731C309.971 439.641 301.685 437.938 293 437.938C284.315 437.938 276.029 439.641 268.455 442.731M268.455 442.731C265.541 444.3 262.576 445.786 259.562 447.186M268.455 442.731C265.365 443.992 262.394 445.485 259.562 447.186" stroke="black" stroke-width="35" stroke-linejoin="round"/>
</svg>
