<svg width="550" height="551" viewBox="0 0 550 551" fill="none" xmlns="http://www.w3.org/2000/svg">
<path d="M170 105.938C170 47.9476 217.01 0.9375 275 0.9375C200.611 0.9375 137.381 48.7179 114.326 115.263C108.283 132.706 105 151.439 105 170.938C146.073 170.938 181.638 194.52 198.892 228.884C205.999 243.038 210 259.02 210 275.938C210 256.439 213.283 237.706 219.326 220.263C236.769 214.22 255.501 210.938 275 210.938C258.083 210.938 242.1 206.937 227.947 199.83C193.583 182.575 170 147.01 170 105.938Z" fill="#13B078"/>
<path d="M445 170.938C502.99 170.938 550 217.948 550 275.938C550 201.548 502.22 138.318 435.674 115.263C418.231 109.22 399.499 105.938 380 105.938C380 147.01 356.417 182.575 322.053 199.83C307.9 206.937 291.917 210.938 275 210.938C294.499 210.938 313.231 214.22 330.674 220.263C336.717 237.706 340 256.439 340 275.938C340 259.02 344.001 243.038 351.108 228.884C368.362 194.52 403.927 170.938 445 170.938Z" fill="#13B078"/>
<path d="M105 380.938C47.0101 380.938 0 333.927 0 275.938C0 350.327 47.7804 413.557 114.326 436.612C131.769 442.655 150.501 445.938 170 445.938C170 404.865 193.583 369.3 227.947 352.045C242.1 344.938 258.083 340.938 275 340.938C255.501 340.938 236.769 337.655 219.326 331.612C213.283 314.169 210 295.436 210 275.938C210 292.855 205.999 308.837 198.892 322.991C181.638 357.355 146.073 380.938 105 380.938Z" fill="#13B078"/>
<path d="M380 445.938C380 503.927 332.99 550.938 275 550.938C349.389 550.938 412.619 503.157 435.674 436.612C441.717 419.169 445 400.436 445 380.938C403.927 380.938 368.362 357.355 351.108 322.991C344.001 308.837 340 292.855 340 275.938C340 295.436 336.717 314.169 330.674 331.612C313.231 337.655 294.499 340.938 275 340.938C291.917 340.938 307.9 344.938 322.053 352.045C356.417 369.3 380 404.865 380 445.938Z" fill="#13B078"/>
</svg>
