<svg width="550" height="551" viewBox="0 0 550 551" fill="none" xmlns="http://www.w3.org/2000/svg">
<path d="M210 65.9375C210 30.039 239.101 0.9375 275 0.9375C217.01 0.9375 170 47.9476 170 105.938C170 147.01 193.583 182.575 227.947 199.83C242.1 206.937 258.083 210.938 275 210.938C291.917 210.938 307.9 206.937 322.053 199.83C356.417 182.575 380 147.01 380 105.938C354.435 105.938 330.189 111.58 308.438 121.689C305.606 123.39 302.635 124.883 299.545 126.144C291.971 129.234 283.685 130.938 275 130.938C266.315 130.938 258.029 129.234 250.455 126.144C247.365 124.883 244.394 123.39 241.562 121.689C222.652 110.323 210 89.6076 210 65.9375Z" fill="#3C7FFF"/>
<path d="M340 485.938C340 521.836 310.899 550.938 275 550.938C332.99 550.938 380 503.927 380 445.938C380 404.865 356.417 369.3 322.053 352.045C307.9 344.938 291.917 340.938 275 340.938C258.083 340.938 242.1 344.938 227.947 352.045C193.583 369.3 170 404.865 170 445.938C195.565 445.938 219.811 440.295 241.562 430.186C244.394 428.485 247.365 426.992 250.455 425.731C258.029 422.641 266.315 420.938 275 420.938C283.685 420.938 291.971 422.641 299.545 425.731C302.635 426.992 305.606 428.485 308.438 430.186C327.348 441.552 340 462.267 340 485.938Z" fill="#3C7FFF"/>
<path d="M65 340.938C29.1015 340.938 0 311.836 0 275.938C0 333.927 47.0101 380.938 105 380.938C146.073 380.938 181.638 357.355 198.892 322.991C205.999 308.837 210 292.855 210 275.938C210 259.02 205.999 243.038 198.892 228.884C181.638 194.52 146.073 170.938 105 170.938C105 196.502 110.643 220.749 120.751 242.5C122.453 245.331 123.945 248.303 125.206 251.393C128.297 258.966 130 267.253 130 275.938C130 284.622 128.297 292.909 125.206 300.482C123.945 303.572 122.453 306.544 120.751 309.375C109.385 328.285 88.6701 340.938 65 340.938Z" fill="#0C334F"/>
<path d="M485 210.938C520.899 210.938 550 240.039 550 275.938C550 217.948 502.99 170.938 445 170.938C403.927 170.938 368.362 194.52 351.108 228.884C344.001 243.038 340 259.02 340 275.938C340 292.855 344.001 308.837 351.108 322.991C368.362 357.355 403.927 380.938 445 380.938C445 355.373 439.357 331.126 429.249 309.375C427.547 306.544 426.055 303.572 424.794 300.482C421.703 292.909 420 284.622 420 275.938C420 267.253 421.703 258.966 424.794 251.393C426.055 248.303 427.547 245.331 429.249 242.5C440.615 223.59 461.33 210.938 485 210.938Z" fill="#0C334F"/>
<path d="M220.373 22.1631C210.754 34.1508 205 49.3722 205 65.9375C205 91.4343 218.635 113.742 238.987 125.974C242.036 127.807 245.237 129.414 248.566 130.773C256.729 134.104 265.657 135.938 275 135.938C284.343 135.938 293.271 134.104 301.434 130.773C304.678 129.449 307.801 127.889 310.78 126.114C330.364 117.05 352.029 111.712 374.873 111.016C373.025 147.964 351.124 179.638 319.81 195.362C306.337 202.127 291.12 205.938 275 205.938C258.88 205.938 243.663 202.127 230.19 195.362C197.451 178.922 175 145.047 175 105.938C175 70.8675 193.053 40.014 220.373 22.1631ZM329.627 529.712C339.246 517.724 345 502.503 345 485.938C345 460.441 331.365 438.133 311.013 425.901C307.964 424.068 304.763 422.461 301.434 421.102C293.271 417.771 284.343 415.938 275 415.938C265.657 415.938 256.729 417.771 248.566 421.102C245.322 422.426 242.199 423.986 239.22 425.761C219.636 434.825 197.971 440.163 175.127 440.859C176.975 403.911 198.876 372.237 230.19 356.513C243.663 349.748 258.88 345.938 275 345.938C291.12 345.938 306.337 349.748 319.81 356.513C352.549 372.953 375 406.828 375 445.938C375 481.007 356.947 511.861 329.627 529.712ZM125.177 240.158C116.113 220.573 110.775 198.908 110.078 176.064C147.027 177.912 178.701 199.814 194.424 231.128C201.189 244.601 205 259.817 205 275.938C205 292.058 201.189 307.274 194.424 320.747C177.985 353.487 144.11 375.938 105 375.938C69.93 375.938 39.0765 357.885 21.2256 330.565C33.2133 340.183 48.4347 345.938 65 345.938C90.4968 345.938 112.804 332.303 125.037 311.951C126.869 308.902 128.477 305.701 129.836 302.371C133.167 294.209 135 285.281 135 275.938C135 266.594 133.167 257.666 129.836 249.504C128.511 246.259 126.951 243.137 125.177 240.158ZM528.774 221.31C516.787 211.692 501.565 205.938 485 205.938C459.503 205.938 437.196 219.572 424.963 239.924C423.131 242.973 421.523 246.174 420.164 249.504C416.833 257.666 415 266.594 415 275.938C415 285.281 416.833 294.209 420.164 302.371C421.489 305.616 423.049 308.738 424.823 311.717C433.887 331.302 439.225 352.967 439.922 375.811C402.973 373.963 371.299 352.061 355.576 320.747C348.811 307.274 345 292.058 345 275.938C345 259.817 348.811 244.601 355.576 231.128C372.015 198.388 405.89 175.938 445 175.938C480.07 175.938 510.923 193.99 528.774 221.31Z" stroke="#3C7FFF" stroke-width="10"/>
</svg>
